<svg width="609" height="711" viewBox="0 0 609 711" fill="none" xmlns="http://www.w3.org/2000/svg"><path d="M163.772 338.066c71.301 85.832 165.002 145.414 251.858 49.244 44.773-49.542 103.944-183.338 45.553-244.584-80.473-84.381-126.672 53.681-186.805 72.394-41.241 12.798-75.918-61.146-125.283-11.746-39.025 39.034-14.969 99.014 14.677 134.692Z" fill="#5A12EF"/><path opacity=".9" d="M163.772 338.066c71.301 85.832 165.002 145.414 251.858 49.244 44.773-49.542 103.944-183.338 45.553-244.584-80.473-84.381-126.672 53.681-186.805 72.394-41.241 12.798-75.918-61.146-125.283-11.746-39.025 39.034-14.969 99.014 14.677 134.692Z" fill="#fff"/><path d="M304.5 607.99c130.426 0 236.158-7.207 236.158-16.097S434.926 575.796 304.5 575.796c-130.427 0-236.158 7.207-236.158 16.097S174.073 607.99 304.5 607.99Z" fill="#F5F5F5"/><path d="m425.386 232.397-12.082-5.688s-15.944 33.944-20.511 35.664c-6.212 2.332-19.074 8.817-26.699 9.954-1.035 1.422-2.728 5.845-2.57 7.452 10.243 3.995 32.752-1.309 37.575-5.489 10.974-9.485 24.287-41.893 24.287-41.893Z" fill="#E58A7B"/><path d="M429.102 224.676c2.253 9.712-9.951 29.25-9.951 29.25l-15.993-10.465s2.996-8.035 6.65-16.211c5.859-13.211 16.724-13.651 19.294-2.574Z" fill="#5A12EF"/><path opacity=".2" d="M429.102 224.676c2.253 9.712-9.951 29.25-9.951 29.25l-15.993-10.465s2.996-8.035 6.65-16.211c5.859-13.211 16.724-13.651 19.294-2.574Z" fill="#000"/><path opacity=".2" d="m409.504 247.641 6.297 4.124 1.108-22.567c-3.666 3.285-6.248 13.182-7.405 18.443Z" fill="#000"/><path d="M418.579 217.367s-12.448 32.336-5.189 92.543h49.049c.78-8.788-1.802-51.675 7.54-93.084a107.86 107.86 0 0 0-16.297-2.431c-6.941-.47-13.899-.47-20.84 0a83.745 83.745 0 0 0-14.263 2.972Z" fill="#5A12EF"/><path opacity=".2" d="M418.579 217.367s-12.448 32.336-5.189 92.543h49.049c.78-8.788-1.802-51.675 7.54-93.084a107.86 107.86 0 0 0-16.297-2.431c-6.941-.47-13.899-.47-20.84 0a83.745 83.745 0 0 0-14.263 2.972Z" fill="#000"/><path d="M407.201 593.173c-.073 1.536 18.526 2.773 41.534 2.773s41.741-1.237 41.814-2.773c.073-1.536-18.514-2.758-41.534-2.758s-41.728 1.237-41.814 2.758Z" fill="#E8ECF1" style="mix-blend-mode:multiply"/><path d="m439.944 552.821-8.7 3.931 7.494 22.601 8.699-3.931-7.493-22.601Zm38.79 29.417h-9.171l-3.362-24.785h9.172l3.361 24.785Z" fill="#E58A7B"/><path d="M468.93 581h10.304a.699.699 0 0 1 .488.211.924.924 0 0 1 .255.529l1.328 9.513c.028.239.012.482-.048.712a1.77 1.77 0 0 1-.297.625c-.137.18-.305.325-.493.423a1.271 1.271 0 0 1-.599.146c-3.593-.071-5.323-.327-9.854-.327-2.789 0-8.526.341-12.399.341-3.873 0-4.129-4.437-2.533-4.849 7.161-1.806 9.938-4.266 12.326-6.655.421-.432.962-.669 1.522-.669Zm-30.45-3.668 9.744-3.328a.688.688 0 0 1 .526.04.854.854 0 0 1 .388.415l3.654 8.532a1.873 1.873 0 0 1-.007 1.379 1.621 1.621 0 0 1-.37.558 1.335 1.335 0 0 1-.537.324c-3.544 1.138-5.919 1.835-10.353 3.342-3.057 1.038-6.175 2.73-9.195 3.854-2.095.782-7.016.81-9.562.81-3.763 0-4.604-4.635-2.984-4.849 4.08-.526 4.629-.284 6.882-1.607 3.687-1.881 7.028-4.575 9.841-7.934.531-.706 1.211-1.236 1.973-1.536Z" fill="#263238"/><path d="m367.629 272.27-10.085-4.934-4.153 13.054c4.133.735 8.338.735 12.472 0l1.766-8.12Zm-17.588-5.275-.268 8.674 3.618 4.692 4.153-13.054-7.503-.312Z" fill="#E58A7B"/><path d="m441.137 554.74-8.727 3.933 3.865 11.687 8.726-3.933-3.864-11.687Zm34.236 2.713h-9.172l1.742 12.783h9.171l-1.741-12.783Z" fill="#CF6F64"/><path opacity=".2" d="M411.83 293.629c.183 2.574.39 5.205.658 7.906l36.467-13.822c5.695-1.97 10.644-6.148 14.031-11.845.146-3.797.329-7.792.609-11.959.122-2.019.268-4.095.426-6.2.159-2.104.378-4.436.609-6.683l-52.8 42.603Z" fill="#000"/><path d="m423.743 246.987-1.218-.171c.719-7.11 5.262-12.712 10.049-12.57v1.422c-4.19-.1-8.185 4.948-8.831 11.319Zm6.491 13.125h-.207v-1.422c4.19.185 8.124-4.92 8.77-11.276l1.218.17c-.646 6.954-5.043 12.528-9.781 12.528Z" fill="#fff"/><path d="M453 186.993c-1.718 7.835-3.739 22.183.682 27.402 0 0-3.094 7.949-15.554 7.949-11.388 0-5.286-7.949-5.286-7.949 7.576-2.076 7.71-8.532 6.711-14.646L453 186.993Z" fill="#E58A7B"/><path d="m447.518 192.197-7.954 7.551c.247 1.405.39 2.832.427 4.266 2.326 2.702 6.991-4.138 7.466-7.636.241-1.377.262-2.795.061-4.181Zm-21.631-5.304a9.065 9.065 0 0 0 2.189 2.863 7.576 7.576 0 0 0 2.987 1.602c2.923.754 4.385-2.389 3.581-5.545-.719-2.844-3.118-6.67-6.09-6.015a3.844 3.844 0 0 0-1.738.959 4.74 4.74 0 0 0-1.166 1.784 5.447 5.447 0 0 0-.335 2.21c.041.757.237 1.492.572 2.142Z" fill="#CF6F64"/><path d="M430.721 161.824c-4.555 2.431-6.163 23.562-.438 26.69 5.724 3.129 9.062-31.312.438-26.69Z" fill="#263238"/><path d="M454.388 175.205c-1.096 10.608-1.218 16.85-6.09 22.282-1.51 1.803-3.417 3.083-5.511 3.7a10.102 10.102 0 0 1-6.354-.204c-2.062-.75-3.906-2.151-5.328-4.048-1.423-1.896-2.369-4.215-2.734-6.7-1.474-9.527.561-25.269 9.671-29.492 1.914-.986 4.02-1.356 6.098-1.072 2.078.284 4.053 1.212 5.72 2.687 1.668 1.475 2.967 3.444 3.763 5.703a15.823 15.823 0 0 1 .765 7.144Z" fill="#E58A7B"/><path d="M439.417 167.312c6.748-2.005 11.705-3.37 9.927 3.186-2.351 8.759-5.176 17.234-1.388 17.618 2.314.242 12.545-4.82 11.242-9.954-1.133-4.465 3.654-5.688 4.506-7.949 3.155-8.19-5.871-7.11-4.263-12.087 1.608-4.977-7.308-12.997-12.18-9.001-7.929 6.456-21.534 6.356-14.384-4.266 5.127-7.579-4.02-6.029-4.02-6.029s5.53 3.825-3.776 9.741c-9.841 6.313-.816 23.278 14.336 18.741Z" fill="#263238"/><path d="M457.968 186.893c-1.333 2.251-3.334 3.842-5.615 4.465-3.009.754-4.166-2.389-3.033-5.545 1.011-2.844 3.788-6.67 6.662-6.015 2.875.654 3.532 4.308 1.986 7.095Z" fill="#E58A7B"/><path d="M413.39 309.911s-8.233 86.031-8.879 118.68c-.658 33.957 27.905 139.91 27.905 139.91l14.616-7.11s-17.052-96.809-14.616-130.155c2.582-36.361 13.251-121.268 13.251-121.268l-32.277-.057Z" fill="#5A12EF"/><path opacity=".2" d="M433.852 333.53c-6.565 15.898-2.143 47.339 1.413 65.967 1.352-13.154 2.96-27.431 4.482-40.641-.146-20.306-1.498-35.991-5.895-25.326Z" fill="#000"/><path d="M446.384 555.76c.073 0 1.73 5.432 1.73 5.432l-16.857 8.276-2.655-5.773 17.782-7.935Zm-15.589-245.849s6.297 81.822 10.463 112.466c4.579 33.573 22.533 145.385 22.533 145.385h16.796s-10.061-109.096-11.961-142.342c-2.071-36.062-6.187-115.509-6.187-115.509h-31.644Z" fill="#5A12EF"/><path d="M480.843 562.657c.073 0 .56 5.474.56 5.474h-18.465l-1.315-6.285 19.22.811Z" fill="#5A12EF"/><path opacity=".2" d="M474.412 556.173a.146.146 0 0 1-.104-.044.197.197 0 0 1-.054-.113c-.097-.995-9.172-99.54-10.877-129.402-1.851-32.393-5.578-104.246-5.615-104.972a.201.201 0 0 1 .039-.13.135.135 0 0 1 .049-.04.108.108 0 0 1 .058-.014.142.142 0 0 1 .108.049c.03.031.048.075.051.121 0 .725 3.763 72.522 5.615 104.972 1.705 29.862 10.779 128.336 10.864 129.402a.188.188 0 0 1-.029.134.144.144 0 0 1-.046.046.125.125 0 0 1-.059.019v-.028Z" fill="#000"/><path d="M440.453 178.162c0 .868-.463 1.565-.95 1.565-.487 0-.84-.697-.791-1.565.048-.867.462-1.564.95-1.564.487 0 .84.711.791 1.564Zm-8.355 0c0 .868-.475 1.565-.95 1.565s-.84-.697-.804-1.565c.037-.867.475-1.564.963-1.564.487 0 .84.711.791 1.564Z" fill="#263238"/><path d="M434.73 178.603a34.462 34.462 0 0 1-3.898 7.38c1.218 1.422 3.496.768 3.496.768l.402-8.148Z" fill="#DF5753"/><path d="M434.948 190.377a.165.165 0 0 1-.082-.019.233.233 0 0 1-.113-.14.264.264 0 0 1-.012-.097.282.282 0 0 1 .072-.181.21.21 0 0 1 .159-.074 5.499 5.499 0 0 0 2.696-.692 6.472 6.472 0 0 0 2.176-1.982.213.213 0 0 1 .152-.067c.056 0 .11.024.153.067a.284.284 0 0 1 .061.178c0 .066-.022.13-.061.178a6.905 6.905 0 0 1-2.326 2.103c-.9.49-1.882.738-2.875.726Zm6.992-14.831a.368.368 0 0 1-.378 0 3.154 3.154 0 0 0-1.513-.625 3.013 3.013 0 0 0-1.593.241.362.362 0 0 1-.321.024.405.405 0 0 1-.141-.097.487.487 0 0 1-.098-.155.61.61 0 0 1-.003-.396.499.499 0 0 1 .234-.286 3.714 3.714 0 0 1 2.012-.349c.685.074 1.345.34 1.923.775a.5.5 0 0 1 .179.322.586.586 0 0 1-.07.375.482.482 0 0 1-.231.171Zm-13.069-2.844a.346.346 0 0 1-.171-.114.51.51 0 0 1-.094-.162.572.572 0 0 1 0-.386.527.527 0 0 1 .094-.163 4.632 4.632 0 0 1 1.699-1.394 3.97 3.97 0 0 1 2.053-.369c.056.01.109.033.157.069.048.035.09.081.122.136a.561.561 0 0 1-.125.704.428.428 0 0 1-.325.101 3.19 3.19 0 0 0-1.62.312 3.729 3.729 0 0 0-1.34 1.11.45.45 0 0 1-.206.152.392.392 0 0 1-.244.004Z" fill="#263238"/><path d="m474.692 230.819-12.668-3.939s-12.423 35.706-16.82 38.024c-5.968 3.185-21.084 14.22-27.515 19.439-.353 1.777-.073 6.484.731 7.778 10.962-2.332 31.948-11.76 36.333-16.552 10-10.935 19.939-44.75 19.939-44.75Z" fill="#E58A7B"/><path d="M465.848 582.878a2.388 2.388 0 0 1-1.741-.555 1.471 1.471 0 0 1-.341-.61 1.652 1.652 0 0 1-.037-.727.937.937 0 0 1 .123-.422.768.768 0 0 1 .291-.289c1.023-.611 3.886 1.508 4.215 1.749a.22.22 0 0 1 .079.112.271.271 0 0 1 .006.144.32.32 0 0 1-.062.133.254.254 0 0 1-.109.081c-.794.228-1.606.356-2.424.384Zm-1.218-2.219a.553.553 0 0 0-.28 0 .298.298 0 0 0-.111.124.36.36 0 0 0-.035.175c-.032.165-.027.338.016.5a.997.997 0 0 0 .228.424c.475.498 1.668.555 3.24.199a7.46 7.46 0 0 0-3.094-1.422h.036Z" fill="#5A12EF"/><path d="M468.211 582.494a.135.135 0 0 1-.097 0c-.914-.597-2.631-2.944-2.375-4.138a.888.888 0 0 1 .26-.479.675.675 0 0 1 .458-.189.979.979 0 0 1 .488.047c.157.056.303.152.426.28 1.011 1.009 1.071 4.109 1.071 4.266a.24.24 0 0 1-.021.135.197.197 0 0 1-.088.092.179.179 0 0 1-.122-.014Zm-1.632-4.337h-.085c-.28 0-.317.185-.329.256-.146.697.938 2.474 1.839 3.313a6.594 6.594 0 0 0-.913-3.356.683.683 0 0 0-.512-.213ZM433.51 581.1a3.02 3.02 0 0 1-2.302 0 1.235 1.235 0 0 1-.417-.451 1.502 1.502 0 0 1-.18-.629.974.974 0 0 1 .045-.416.841.841 0 0 1 .211-.338c.974-1.024 4.957 0 5.408.199a.191.191 0 0 1 .107.084.245.245 0 0 1 .039.143.3.3 0 0 1-.034.152.234.234 0 0 1-.1.104 16.23 16.23 0 0 1-2.777 1.152Zm-1.985-1.692a.802.802 0 0 0-.378.213.304.304 0 0 0-.086.133.346.346 0 0 0-.011.166c.008.149.048.294.116.42a.833.833 0 0 0 .273.305c.646.398 2.144.086 4.081-.867a10.338 10.338 0 0 0-3.995-.37Z" fill="#5A12EF"/><path d="M436.25 579.949h-.097c-1.218-.256-3.654-1.892-3.727-3.115 0-.284.109-.682.694-.91a1.351 1.351 0 0 1 1.218.086c1.316.753 2.01 3.484 2.046 3.612a.286.286 0 0 1-.061.241.245.245 0 0 1-.073.086Zm-2.886-3.598h-.122c-.378.156-.378.341-.378.398 0 .74 1.766 2.091 2.997 2.546-.284-1.143-.883-2.143-1.706-2.845a.976.976 0 0 0-.791-.099Z" fill="#5A12EF"/><path d="m418.724 283.504-12.703 6.826-1.474 4.266 4.689 3.682s8.77-1.109 11.267-7.693l-1.779-7.081Z" fill="#E58A7B"/><path d="M419.259 292.363c-.283-2.85-1.089-5.595-2.363-8.048l2.01-1.764c1.512 2.828 2.476 6.006 2.826 9.314l-2.473.498Z" fill="#263238"/><path d="M421.429 285.523c.269.493.401 1.071.378 1.655a3.149 3.149 0 0 1-.505 1.608 2.47 2.47 0 0 1-1.203.978c-.478.174-.99.172-1.467-.006a2.481 2.481 0 0 1-1.198-.988 3.157 3.157 0 0 1-.495-1.613 3.215 3.215 0 0 1 .388-1.651 2.567 2.567 0 0 1 1.13-1.092 1.93 1.93 0 0 1 1.682-.159c.556.207 1.02.663 1.29 1.268Z" fill="#263238"/><path d="m397.434 295.847 1.693 1.991 11.4-5.688-4.506-1.82-8.587 5.517Z" fill="#E58A7B"/><path opacity=".2" d="M446.384 555.76c.073 0 1.73 5.432 1.73 5.432l-16.857 8.276-2.655-5.773 17.782-7.935Zm34.459 6.897c.073 0 .56 5.474.56 5.474h-18.465l-1.315-6.285 19.22.811Z" fill="#000"/><path d="M477.991 226.724c3.35 12.613-9.744 29.861-9.744 29.861l-18.087-8.617a241.516 241.516 0 0 1 7.406-21.429c5.554-13.979 17.039-12.542 20.425.185Z" fill="#5A12EF"/><path opacity=".2" d="M477.991 226.724c3.35 12.613-9.744 29.861-9.744 29.861l-18.087-8.617a241.516 241.516 0 0 1 7.406-21.429c5.554-13.979 17.039-12.542 20.425.185Z" fill="#000"/><path d="M298.263 100.351h-7.783v1.464h7.783v-1.464Zm100.751 57.969-.942 24.406 1.254.066.941-24.406-1.253-.066Zm-2.42-51.4H252.87l-13.374 349.414H383.22l13.374-349.414Z" fill="#5A12EF"/><path opacity=".56" d="M392.305 111.727H248.581L235.207 461.14h143.724l13.374-349.413Z" fill="#FAFAFA"/><path opacity=".07" d="M388.018 116.519H244.294l-13.386 349.413h143.724l13.386-349.413Z" fill="#5A12EF"/><path d="M371.661 268.915H248.984l-1.023 26.733h122.677l1.023-26.733Z" fill="#fff"/><path d="M316.448 249.405h-66.722l-.451 11.959h66.722l.451-11.959Z" fill="#5A12EF"/><path d="M368.895 341.067H246.218l-1.023 26.734h122.677l1.023-26.734Z" fill="#fff"/><path opacity=".47" d="M346.399 403.905h-82.495l-1.23 32.037h82.495l1.23-32.037Z" fill="#5A12EF"/><path d="M340.881 440.919h-82.495a.184.184 0 0 1-.109 0 .229.229 0 0 1 0-.127l1.218-32.052a.172.172 0 0 1 .043-.116.13.13 0 0 1 .048-.033.114.114 0 0 1 .055-.008h82.495a.095.095 0 0 1 .049-.013c.017 0 .033.004.048.013a.122.122 0 0 1 .013.057c0 .02-.004.04-.013.057l-1.193 32.123a.175.175 0 0 1-.066.078.134.134 0 0 1-.093.021Zm-82.349-.341h82.203l1.218-31.71H259.75l-1.218 31.71Z" fill="#fff"/><path d="M302.04 321.557h-55.078l-.45 11.973h55.066l.462-11.973Z" fill="#5A12EF"/><path d="M344.828 182.556c-.315 7.78-2.685 15.256-6.784 21.401-3.035 4.642-6.94 8.41-11.416 11.016-4.477 2.605-9.404 3.979-14.406 4.015-4.042.036-8.047-.895-11.769-2.734-3.722-1.84-7.082-4.55-9.873-7.963-2.791-3.413-4.954-7.457-6.356-11.883a39.905 39.905 0 0 1-1.794-13.852c.428-9.777 4.04-18.995 10.096-25.767 6.056-6.772 14.1-10.587 22.485-10.664 4.045-.044 8.055.88 11.781 2.717 3.727 1.836 7.091 4.545 9.886 7.96 2.794 3.414 4.959 7.461 6.361 11.891a39.849 39.849 0 0 1 1.789 13.863Z" fill="#fff"/><path d="M347.764 153.747c-.08 2.068-.71 4.057-1.803 5.688-.808 1.232-1.848 2.233-3.038 2.926a7.735 7.735 0 0 1-3.831 1.069 6.992 6.992 0 0 1-3.702-1.046c-1.142-.697-2.121-1.709-2.851-2.949-.967-1.676-1.445-3.67-1.364-5.688.118-2.596 1.079-5.042 2.688-6.839 1.609-1.797 3.745-2.809 5.972-2.831a6.911 6.911 0 0 1 3.129.721 7.976 7.976 0 0 1 2.626 2.112 9.526 9.526 0 0 1 1.693 3.156c.374 1.176.538 2.428.481 3.681Z" fill="#5A12EF"/><path d="M262.199 282.281c-.059 1.146-.487 2.224-1.199 3.015-.712.792-1.655 1.239-2.638 1.251a3.03 3.03 0 0 1-1.383-.315 3.504 3.504 0 0 1-1.162-.931 4.2 4.2 0 0 1-.75-1.393 4.691 4.691 0 0 1-.213-1.627c.053-1.148.48-2.229 1.193-3.022.713-.793 1.659-1.238 2.644-1.244.474-.004.944.104 1.381.319.437.215.832.532 1.161.932.328.399.583.872.749 1.391a4.7 4.7 0 0 1 .217 1.624Zm16.417 0c-.055 1.147-.483 2.227-1.195 3.019-.713.792-1.657 1.238-2.641 1.247a3.045 3.045 0 0 1-1.38-.319 3.516 3.516 0 0 1-1.158-.932 4.21 4.21 0 0 1-.746-1.391 4.673 4.673 0 0 1-.212-1.624c.053-1.145.478-2.225 1.188-3.017.711-.793 1.654-1.239 2.637-1.249.474-.006.945.101 1.383.315.438.215.833.531 1.162.931.329.4.584.874.749 1.394.166.519.238 1.073.213 1.626Zm16.432 0c-.056 1.147-.483 2.227-1.196 3.019-.713.792-1.657 1.238-2.641 1.247a3.049 3.049 0 0 1-1.381-.319 3.51 3.51 0 0 1-1.16-.931 4.2 4.2 0 0 1-.75-1.391 4.706 4.706 0 0 1-.217-1.625c.056-1.147.484-2.226 1.196-3.018.713-.793 1.657-1.239 2.641-1.248a3.05 3.05 0 0 1 1.383.315 3.52 3.52 0 0 1 1.163.931c.328.4.583.874.749 1.394.165.519.238 1.073.213 1.626Zm-35.613 72.153c-.059 1.145-.487 2.223-1.199 3.014-.712.792-1.655 1.239-2.638 1.252a3.062 3.062 0 0 1-1.381-.319 3.526 3.526 0 0 1-1.161-.932 4.216 4.216 0 0 1-.749-1.391 4.7 4.7 0 0 1-.217-1.624c.056-1.147.483-2.227 1.196-3.019.713-.792 1.657-1.238 2.641-1.247.474-.005.944.104 1.381.319.437.215.832.532 1.16.931a4.2 4.2 0 0 1 .75 1.391c.166.519.24 1.072.217 1.625Zm16.418 0c-.056 1.144-.482 2.221-1.192 3.013-.71.792-1.651 1.24-2.633 1.253a3.056 3.056 0 0 1-1.383-.315 3.516 3.516 0 0 1-1.162-.931 4.205 4.205 0 0 1-.75-1.394 4.685 4.685 0 0 1-.213-1.626c.056-1.147.484-2.227 1.196-3.019.713-.792 1.657-1.238 2.641-1.247.474-.005.943.104 1.38.319.436.215.83.532 1.158.932.327.399.581.873.746 1.391.165.519.237 1.071.212 1.624Zm16.466 0c-.056 1.147-.483 2.226-1.196 3.018-.713.793-1.657 1.239-2.641 1.248a3.081 3.081 0 0 1-1.379-.323 3.541 3.541 0 0 1-1.158-.932 4.219 4.219 0 0 1-.75-1.389 4.716 4.716 0 0 1-.221-1.622c.059-1.146.487-2.223 1.199-3.015.712-.792 1.655-1.239 2.638-1.251.475-.007.946.1 1.383.315.438.214.834.531 1.163.931.328.399.583.874.749 1.393.165.52.238 1.073.213 1.627Zm16.394 0c-.058 1.145-.487 2.223-1.199 3.014-.712.792-1.654 1.239-2.637 1.252a3.07 3.07 0 0 1-1.379-.324 3.519 3.519 0 0 1-1.159-.931 4.237 4.237 0 0 1-.75-1.389 4.691 4.691 0 0 1-.22-1.622c.058-1.146.487-2.224 1.199-3.015.712-.792 1.654-1.239 2.638-1.251.474-.005.944.104 1.381.319.437.215.832.532 1.16.931.328.399.584.873.75 1.391.166.519.24 1.072.216 1.625Zm16.494 0c-.059 1.145-.487 2.223-1.199 3.014-.712.792-1.655 1.239-2.638 1.252a3.053 3.053 0 0 1-1.383-.315 3.506 3.506 0 0 1-1.162-.931 4.205 4.205 0 0 1-.75-1.394 4.685 4.685 0 0 1-.213-1.626c.056-1.147.483-2.227 1.196-3.019.713-.792 1.657-1.238 2.641-1.247.474-.005.944.104 1.381.319.437.215.832.532 1.16.931a4.2 4.2 0 0 1 .75 1.391c.166.519.24 1.072.217 1.625Z" fill="#263238"/><path d="M322.712 180.659c5.098-5.821 5.369-15.15.604-20.838-4.764-5.688-12.759-5.58-17.857.24-5.098 5.82-5.368 15.15-.604 20.838 4.764 5.687 12.759 5.58 17.857-.24Zm15.332 23.299c-3.035 4.641-6.94 8.409-11.416 11.015-4.476 2.605-9.404 3.979-14.405 4.015-4.85.048-9.636-1.298-13.935-3.919-4.299-2.621-7.98-6.437-10.718-11.111 5.92-6.883 15.286-11.376 25.664-11.376 10.377 0 19.414 4.493 24.81 11.376Z" fill="#5A12EF"/><path opacity=".1" d="M322.712 180.659c5.098-5.821 5.369-15.15.604-20.838-4.764-5.688-12.759-5.58-17.857.24-5.098 5.82-5.368 15.15-.604 20.838 4.764 5.687 12.759 5.58 17.857-.24Zm15.332 23.299c-3.035 4.641-6.94 8.409-11.416 11.015-4.476 2.605-9.404 3.979-14.405 4.015-4.85.048-9.636-1.298-13.935-3.919-4.299-2.621-7.98-6.437-10.718-11.111 5.92-6.883 15.286-11.376 25.664-11.376 10.377 0 19.414 4.493 24.81 11.376Z" fill="#fff"/><path d="M158.839 302.089c-1.157 2.958-2.375 6.214-3.435 9.371s-2.144 6.414-3.081 9.656a139.49 139.49 0 0 0-4.361 19.623l-.268 2.091c-.025.358.003.719.085 1.066a12.03 12.03 0 0 0 1.34 3.299 40.27 40.27 0 0 0 5.408 7.11 86.666 86.666 0 0 0 6.723 6.556c2.339 2.104 4.799 4.152 7.223 6.086l-2.277 4.991c-5.788-2.944-11.282-6.621-16.383-10.964-2.721-2.317-5.177-5.031-7.308-8.077a21.418 21.418 0 0 1-2.911-6.072 15.95 15.95 0 0 1-.584-4.266v-1.777l.122-1.422a127.526 127.526 0 0 1 3.982-21.814c.95-3.498 1.961-6.982 3.119-10.38 1.157-3.399 2.35-6.726 3.824-10.182l8.782 5.105Z" fill="#E58A7B"/><path d="m166.756 366.065 8.611-5.09-2.229 11.034s-5.907 1.934-8.648-1.422l2.266-4.522Zm16.492-3.284-2.29 9.129-7.819.099 2.229-11.034 7.88 1.806Z" fill="#E58A7B"/><path d="M195.403 248.85a31.46 31.46 0 0 0 1.913 5.688 1.996 1.996 0 0 1-.883.674 1.72 1.72 0 0 1-1.054.051l.024-6.413Z" fill="#DF5753"/><path d="M195.148 248.935c.504 0 .913-.732.913-1.635s-.409-1.635-.913-1.635c-.505 0-.914.732-.914 1.635s.409 1.635.914 1.635Z" fill="#263238"/><path d="m194.879 245.721 1.851-.611s-.901 1.678-1.851.611Z" fill="#263238"/><path d="M171.615 259.287c1.109 6.612 2.217 18.742-1.754 23.165 0 0 1.559 6.711 12.095 6.711 11.583 0 5.53-6.711 5.53-6.711-6.322-1.764-6.163-7.238-5.055-12.386l-10.816-10.779Z" fill="#E58A7B"/><path d="M168.533 244.214c.584 11.049.633 15.742 5.408 21.416 7.198 8.532 18.696 5.289 20.949-5.688 2.034-9.954.743-26.336-8.526-30.73-2.034-.978-4.249-1.335-6.435-1.035-2.185.299-4.269 1.245-6.054 2.747-1.786 1.501-3.213 3.51-4.148 5.836a17.309 17.309 0 0 0-1.194 7.454Z" fill="#E58A7B"/><path d="M169.471 231.786c-4.75 2.019-11.084.512-8.599 17.618 2.631 18.117-1.413 24.075-1.413 24.075s18.014 4.479 36.406-.27c0 0-5.615-11.462-4.044-19.908 2.01-10.665.427-14.604.427-14.604s-16.102-9.755-22.777-6.911Z" fill="#263238"/><path d="M189.568 249.973c.005 2.101.521 4.157 1.486 5.93 1.291 2.304 2.814 1.422 3.191-1.024.341-2.147.086-5.944-1.559-7.423-1.644-1.478-3.093-.028-3.118 2.517Z" fill="#E58A7B"/><path d="M165.342 233.649c-1.364-4.48 5.14-11.376 18.903-8.532 13.764 2.844 14.36 16.225 14.36 16.225l-2.777-3.868.122 4.067-14.141 3.171-16.467-11.063Z" fill="#263238"/><path d="M166.511 283.206c-.081-.65.058-1.31.388-1.842.33-.531.824-.891 1.378-1.002 4.287-.825 14.031-2.503 18.928-1.707 3.654.598 4.604 3.072 4.762 5.105.025.356-.016.714-.119 1.051a2.594 2.594 0 0 1-.482.898 2.134 2.134 0 0 1-.756.585c-.285.13-.591.187-.896.168l-21.169-1.109a2.021 2.021 0 0 1-1.345-.651 2.682 2.682 0 0 1-.689-1.496Z" fill="#5A12EF"/><path opacity=".6" d="M166.511 283.206c-.081-.65.058-1.31.388-1.842.33-.531.824-.891 1.378-1.002 4.287-.825 14.031-2.503 18.928-1.707 3.654.598 4.604 3.072 4.762 5.105.025.356-.016.714-.119 1.051a2.594 2.594 0 0 1-.482.898 2.134 2.134 0 0 1-.756.585c-.285.13-.591.187-.896.168l-21.169-1.109a2.021 2.021 0 0 1-1.345-.651 2.682 2.682 0 0 1-.689-1.496Z" fill="#000"/><path d="m178.752 531.629 7.856 6.37 13.142-20.804-7.856-6.356-13.142 20.79Zm-18.318-.412 8.294 5.517 11.632-21.998-8.295-5.518-11.631 21.999Z" fill="#E58A7B"/><path d="m199.74 517.195-6.773 10.722-7.856-6.356 6.772-10.722 7.857 6.356Zm-27.687-7.977 8.307 5.532-5.993 11.333-8.306-5.531 5.992-11.334Z" fill="#CF6F64"/><path d="M185.379 352.656s30.669 45.12 24.908 88.277c-4.64 34.854-31.558 82.05-31.558 82.05l-12.655-7.338c8.92-20.867 16.532-42.462 22.776-64.615 1.926-6.878 2.488-14.177 1.644-21.345-.844-7.169-3.072-14.019-6.516-20.036-15.541-26.491-40.437-10.721-23.69-56.993h25.091Z" fill="#5A12EF"/><path opacity=".6" d="M185.379 352.656s30.669 45.12 24.908 88.277c-4.64 34.854-31.558 82.05-31.558 82.05l-12.655-7.338c8.92-20.867 16.532-42.462 22.776-64.615 1.926-6.878 2.488-14.177 1.644-21.345-.844-7.169-3.072-14.019-6.516-20.036-15.541-26.491-40.437-10.721-23.69-56.993h25.091Z" fill="#000"/><path opacity=".4" d="m200.421 381.636-4.458-5.176c0 .412 8.636 62.653 11.059 80.144a120.872 120.872 0 0 0 3.277-15.642c2.85-21.174-3.106-42.802-9.878-59.326Z" fill="#000"/><path d="M199.069 352.656s36.93 56.709 37.977 90.709c.865 28.44-40.194 83.543-40.194 83.543l-11.936-9.016s24.031-39.133 30.084-71.1c-2.338-31.682-51.789-94.136-51.789-94.136h35.858Z" fill="#5A12EF"/><path opacity=".6" d="M199.069 352.656s36.93 56.709 37.977 90.709c.865 28.44-40.194 83.543-40.194 83.543l-11.936-9.016s24.031-39.133 30.084-71.1c-2.338-31.682-51.789-94.136-51.789-94.136h35.858Z" fill="#000"/><path d="M153.383 284.983c-3.947 1.095-7.735 17.846-7.735 17.846l15.432 12.03s5.14-13.253 3.338-19.055c-1.864-6.043-6.078-12.201-11.035-10.821Z" fill="#5A12EF"/><path opacity=".2" d="m156.402 295.776-1.072 14.604 5.737 4.493a67.518 67.518 0 0 0 3.496-12.997l-8.161-6.1Z" fill="#000"/><path d="M203.636 285.31s4.555 1.863-4.568 67.332h-38.805c.657-18.486.669-29.862-6.882-67.659a99.358 99.358 0 0 1 16.479-2.531 105.629 105.629 0 0 1 17.625 0c7.576.81 16.151 2.858 16.151 2.858Z" fill="#5A12EF"/><path d="M207.582 295.776c.877 2.844 1.803 5.901 2.777 8.845.974 2.943 1.9 5.972 2.887 8.958l2.984 8.93.755 2.233.39 1.109.182.555v.085a2.686 2.686 0 0 0-.852-.882 3.118 3.118 0 0 0-1.584-.554 2.793 2.793 0 0 0-1.352.298c-.56.299-.56.427-.548.413.102-.095.192-.205.268-.327a20.153 20.153 0 0 0 1.742-3.314c.573-1.308 1.121-2.701 1.669-4.109 1.072-2.844 2.058-5.788 3.045-8.76a346.028 346.028 0 0 0 2.838-9.001l2.777-9.072 4.689 1.422c-.926 6.484-2.119 12.798-3.557 19.225-.694 3.2-1.51 6.371-2.436 9.57a79.32 79.32 0 0 1-1.559 4.835 32.744 32.744 0 0 1-2.241 5.091 13.056 13.056 0 0 1-1.072 1.535 6.716 6.716 0 0 1-2.216 1.835 4.792 4.792 0 0 1-2.363.512 4.823 4.823 0 0 1-2.57-.896c-.918-.669-1.679-1.592-2.217-2.688a15.415 15.415 0 0 1-.451-1.009l-.231-.541-.463-1.109-.926-2.204c-1.218-2.958-2.436-5.944-3.495-8.944-1.06-3.001-2.18-6.044-3.228-9.101a145.63 145.63 0 0 1-2.874-9.414l9.232-3.526Z" fill="#E58A7B"/><path d="M203.636 285.31c4.665 1.294 9.915 17.391 9.915 17.391l-13.873 13.779s-8.977-17.547-7.162-23.335c1.888-6.029 5.03-9.527 11.12-7.835Z" fill="#5A12EF"/><path d="m227.765 286.092 4.872-4.749 3.386 6.157-2.497 5.133s-3.971 4.266-7.478 2.091a8.491 8.491 0 0 1-.381-4.652c.31-1.558 1.047-2.955 2.098-3.98Z" fill="#E58A7B"/><path d="m241.432 281.357-.365 1.55-7.71 1.507-.755-3.071 8.83.014Z" fill="#E58A7B"/><path d="m197.802 527.633-13.909-10.494 2.496-5.063 15.627 11.22-4.214 4.337Z" fill="#5A12EF"/><path d="M174.174 535.994a7.633 7.633 0 0 1-3.435-1.422.228.228 0 0 1-.107-.093.294.294 0 0 1 0-.297.228.228 0 0 1 .107-.093c.378-.142 3.654-1.322 4.604-.412a.913.913 0 0 1 .235.391c.047.152.059.317.033.476-.017.256-.09.503-.211.717a1.391 1.391 0 0 1-.483.506 1.422 1.422 0 0 1-.743.227Zm-2.741-1.564c1.523.91 2.741 1.237 3.325.896a.918.918 0 0 0 .312-.346 1.13 1.13 0 0 0 .127-.479c0-.227 0-.327-.11-.384-.511-.483-2.338-.113-3.678.313h.024Z" fill="#263238"/><path d="M170.823 534.672a.23.23 0 0 1-.17-.085.298.298 0 0 1-.028-.128c0-.045.009-.089.028-.128 0-.128.791-3.214 2.034-3.911.158-.084.331-.128.505-.128.175 0 .347.044.506.128a.822.822 0 0 1 .42.364c.102.173.151.38.14.589-.085 1.28-2.314 3.043-3.337 3.342l-.098-.043Zm2.363-3.882a.734.734 0 0 0-.341.099c-.755.427-1.376 2.091-1.681 3.1 1.072-.526 2.546-1.919 2.595-2.701 0-.128 0-.285-.281-.427a.82.82 0 0 0-.292-.114v.043Zm18.367 11.347c-1.376 0-3.289-2.062-4.336-3.327a.285.285 0 0 1-.041-.149c0-.054.014-.106.041-.15a.273.273 0 0 1 .099-.108.224.224 0 0 1 .132-.034c.488 0 4.714.739 5.311 2.133a.918.918 0 0 1 .096.412.922.922 0 0 1-.096.413c-.09.217-.225.404-.393.543a1.127 1.127 0 0 1-.569.253l-.244.014Zm-3.532-3.128c1.534 1.735 2.886 2.702 3.654 2.588a.77.77 0 0 0 .373-.171c.11-.092.2-.214.26-.355a.342.342 0 0 0 0-.327c-.316-.768-2.57-1.422-4.287-1.735Z" fill="#263238"/><path d="M188.155 538.938a3.443 3.443 0 0 1-.816-.071.21.21 0 0 1-.103-.052.269.269 0 0 1-.068-.105.343.343 0 0 1 0-.27c.073-.099 1.718-2.417 3.277-2.574.441-.04.878.124 1.218.455.475.484.45.91.329 1.181-.305.967-2.412 1.436-3.837 1.436Zm-.317-.526c1.364.085 3.545-.441 3.825-1.138 0 0 .097-.227-.22-.54a1.174 1.174 0 0 0-.432-.283c-.159-.059-.327-.079-.493-.059-1.05.343-1.986 1.052-2.68 2.034v-.014Z" fill="#263238"/><path d="m171.152 533.136-10.329-3.413a.655.655 0 0 0-.538.045.833.833 0 0 0-.375.453l-3.484 9.144a2.066 2.066 0 0 0 .044 1.466c.095.227.231.428.397.589.167.162.361.28.57.348 3.654 1.109 5.408 1.422 9.951 2.943 2.802.91 6.797 2.603 10.658 3.882 3.861 1.28 5.152-3.114 3.654-4.052-6.772-4.181-7.308-7.11-9.16-10.239-.331-.566-.823-.979-1.388-1.166Z" fill="#5A12EF"/><path d="m187.498 537.146-8.818-7.11a.678.678 0 0 0-.518-.165.722.722 0 0 0-.481.279l-5.846 7.337c-.143.19-.249.413-.312.654a2.058 2.058 0 0 0 .161 1.451c.113.215.264.399.443.54 3.106 2.432 4.714 3.413 8.599 6.556 2.436 1.934 7.15 6.228 10.439 8.901 3.288 2.674 5.736-.995 4.567-2.445-5.237-6.527-6.382-10.623-7.247-14.334-.15-.673-.5-1.263-.987-1.664Zm-7.15-13.225-15.895-9.228 1.644-5.034 16.979 9.726-2.728 4.536Zm-20.669-173.938-1.339 4.095c-.134.313.182.64.633.64h40.291c.354 0 .646-.199.67-.455l.341-4.067c0-.27-.28-.512-.657-.512h-39.305a.645.645 0 0 0-.348.059.762.762 0 0 0-.286.24Z" fill="#5A12EF"/><path opacity=".4" d="m159.679 349.983-1.339 4.095c-.134.313.182.64.633.64h40.291c.354 0 .646-.199.67-.455l.341-4.067c0-.27-.28-.512-.657-.512h-39.305a.645.645 0 0 0-.348.059.762.762 0 0 0-.286.24Z" fill="#fff"/><path d="M166.025 355.116h-1.06c-.207 0-.365-.128-.353-.285l.499-5.275c0-.142.195-.27.402-.27h1.06c.207 0 .365.128.353.27l-.499 5.275c-.012.157-.195.285-.402.285Zm24.847 0h-1.047c-.207 0-.366-.128-.354-.285l.488-5.275c0-.142.207-.27.414-.27h1.047c.207 0 .378.128.353.27l-.487 5.275a.425.425 0 0 1-.414.285Z" fill="#5A12EF"/><path d="M165.099 595.931c18.021 0 32.63-1.235 32.63-2.758 0-1.524-14.609-2.759-32.63-2.759s-32.63 1.235-32.63 2.759c0 1.523 14.609 2.758 32.63 2.758Z" fill="#F5F5F5" style="mix-blend-mode:multiply"/><path d="M184.976 589.277c-5.773-1.963-12.179-4.48-16.053-7.11-.109-.086-.231-.128-.341-.199v-30.516h11.681c.887-.062 1.72-.516 2.329-1.271.609-.754.948-1.752.948-2.789 0-1.037-.339-2.035-.948-2.79-.609-.754-1.442-1.209-2.329-1.27h-11.62v-139.1h-7.016v139.1H150.02a3.027 3.027 0 0 0-1.395.237 3.442 3.442 0 0 0-1.2.863c-.346.38-.621.839-.809 1.348a4.661 4.661 0 0 0-.285 1.612c0 .554.097 1.103.285 1.612.188.508.463.967.809 1.347a3.43 3.43 0 0 0 1.2.863c.446.19.921.27 1.395.238h11.607v30.473c-.109 0-.219.114-.328.199-3.935 2.673-10.293 5.19-16.066 7.11-.39.138-.725.434-.944.835a2.26 2.26 0 0 0-.25 1.351c.057.471.257.903.563 1.216.306.314.699.489 1.106.494h38.793c.39-.031.758-.217 1.044-.526.286-.31.473-.725.528-1.176a2.273 2.273 0 0 0-.222-1.302 1.795 1.795 0 0 0-.875-.849Z" fill="#E0E0E0"/><path d="M186.768 390.069h-43.312c-3.485 0-6.31 3.298-6.31 7.366v15.03c0 4.068 2.825 7.366 6.31 7.366h43.312c3.484 0 6.309-3.298 6.309-7.366v-15.03c0-4.068-2.825-7.366-6.309-7.366Zm-43.715 29.776v2.588c0 2.133 1.985 3.868 4.421 3.868h35.322c2.436 0 4.421-1.735 4.421-3.868v-2.588h-44.164Z" fill="#5A12EF"/><path opacity=".3" d="M143.053 419.845v2.588c0 2.133 1.985 3.868 4.421 3.868h35.322c2.436 0 4.421-1.735 4.421-3.868v-2.588h-44.164Z" fill="#fff"/></svg>