<svg width="609" height="711" viewBox="0 0 609 711" fill="none" xmlns="http://www.w3.org/2000/svg"><path d="M437.713 186.822c-44.603-45.504-104.98 0-163.638 95.758-58.659 95.757-86.552 55.458-136.417 97.663-49.864 42.205-63.201 215.091 112.483 198.283 175.684-16.808 304.171-272.91 187.572-391.704Z" fill="#F0F0F0"/><path d="M491.877 644.351c0 .199-84.578.37-188.875.37-104.298 0-188.912-.171-188.912-.37 0-.199 84.566-.37 188.912-.37s188.875.185 188.875.37Z" fill="#263238"/><path d="M409.468 470.27c-18.818-15.343-23.081-43.826-22.338-69.436.122-4.266-.28-8.788 1.462-12.528 1.741-3.74 5.809-6.314 9.086-4.522 2.716 1.493 3.897 5.19 5.42 8.247 2.031 4.073 5.008 7.39 8.587 9.571 2.326 1.422 5.213 2.275 7.515.796 3.167-2.034 3.532-7.11 3.508-11.376 0-7.935-.041-15.86-.122-23.776a45.925 45.925 0 0 1 1.096-12.627c1.133-4.039 3.654-7.779 7.101-8.916 3.447-1.138 7.747 1.208 8.526 5.361.134 1.758.171 3.525.11 5.289.097 1.778.804 3.726 2.229 4.266 1.425.541 2.911-.696 4.007-1.948 3.751-4.266 6.309-9.826 8.684-15.315 2.375-5.489 4.702-11.134 8.112-15.812 3.41-4.679 8.124-8.39 13.398-8.746 5.274-.355 10.767 3.427 12.083 9.4 1.315 5.972-1.669 12.073-4.872 16.922-4.834 7.197-10.532 13.543-16.918 18.841-1.247.795-2.242 2.036-2.838 3.541-.792 2.844 1.51 5.688 3.909 6.584 2.717 1.052 5.664.725 8.526 1.123 2.863.398 5.908 1.849 6.992 4.977 1.486 4.352-1.632 8.902-4.69 11.888-6.138 5.973-13.109 10.672-20.608 13.893-2.68 1.138-5.493 2.147-7.661 4.337-2.168 2.19-3.459 6.015-2.156 9.016 1.303 3 4.653 3.953 7.466 3.341 2.814-.611 5.311-2.374 7.99-3.555 5.006-2.204 11.462-1.806 14.616 3.243.978 1.738 1.596 3.718 1.808 5.783a15.58 15.58 0 0 1-.59 6.119c-1.219 3.898-3.095 7.471-5.517 10.508-7.978 11.128-18.343 19.583-30.036 24.501-11.608 4.693-22.363 5.973-33.897 1.038" fill="#5A12EF"/><path d="M482.572 322.311s-.109.142-.353.398l-1.084 1.124c-.95.995-2.351 2.445-4.117 4.365a152.17 152.17 0 0 0-13.909 17.533c-2.717 3.939-5.53 8.404-8.526 13.253a369.437 369.437 0 0 0-9.16 15.642 203.062 203.062 0 0 0-8.976 18.174c-1.413 3.256-2.656 6.655-3.935 10.124l-3.775 10.594a434.324 434.324 0 0 0-12.984 40.911 218.77 218.77 0 0 0-6.09 34.882 161.665 161.665 0 0 0-.341 24.017c.195 2.844.377 5.02.548 6.499.073.711.122 1.28.17 1.692v.583a3.384 3.384 0 0 1-.109-.569c-.061-.412-.134-.967-.232-1.678-.219-1.422-.45-3.668-.67-6.512a154.36 154.36 0 0 1 .122-24.089 215.489 215.489 0 0 1 5.956-35.038 424.079 424.079 0 0 1 12.948-41.011l3.873-10.551c1.279-3.455 2.533-6.882 3.958-10.153a200.567 200.567 0 0 1 9.05-18.216c3.118-5.688 6.261-10.835 9.22-15.642 2.96-4.806 5.822-9.3 8.526-13.224a144.263 144.263 0 0 1 14.093-17.406 165.093 165.093 0 0 1 4.214-4.266l1.133-1.066c.138-.141.29-.265.45-.37Z" fill="#263238"/><path d="M436.045 392.472a10.05 10.05 0 0 1-.353-1.806c-.195-1.18-.415-2.844-.67-5.005-.524-4.266-1.06-10.111-1.632-16.581-.573-6.47-1.218-12.328-1.754-16.552-.28-2.104-.524-3.796-.695-4.977a8.937 8.937 0 0 1-.207-1.848 8.87 8.87 0 0 1 .451 1.777c.268 1.166.572 2.844.914 4.963.694 4.266 1.376 10.068 1.948 16.552.573 6.484 1.06 12.172 1.438 16.595.182 1.991.341 3.683.462 5.034.095.609.128 1.23.098 1.848Zm46.868-10.21a8.358 8.358 0 0 1-1.803.256c-1.218.128-2.947.299-5.091.583-4.287.541-10.182 1.536-16.65 2.958-6.468 1.422-12.277 3.029-16.455 4.266a123.529 123.529 0 0 0-4.872 1.578 7.785 7.785 0 0 1-1.827.512 9.817 9.817 0 0 1 1.754-.81 79.448 79.448 0 0 1 4.872-1.82c4.153-1.422 9.963-3.115 16.455-4.565a143.595 143.595 0 0 1 16.626-2.702 69.374 69.374 0 0 1 5.115-.327 8.071 8.071 0 0 1 1.876.071Zm-67.208 70.958a3.153 3.153 0 0 1-.317-.668l-.804-1.977c-.694-1.72-1.632-4.266-2.752-7.38-2.266-6.257-5.152-15.016-8.222-24.743-3.069-9.726-5.895-18.486-8.039-24.814-1.047-3.071-1.912-5.588-2.557-7.465l-.682-2.034a3.026 3.026 0 0 1-.195-.739c.13.206.236.43.316.668l.804 1.977c.682 1.72 1.632 4.266 2.753 7.38 2.265 6.257 5.152 15.016 8.221 24.743 3.07 9.726 5.896 18.486 8.039 24.814 1.048 3.071 1.912 5.588 2.546 7.465.28.811.511 1.422.694 2.034.095.234.16.483.195.739Z" fill="#263238"/><path d="M477.919 429.8c-.195.13-.404.231-.621.298l-1.803.711-6.662 2.517c-5.627 2.133-13.398 5.176-21.924 8.532s-16.334 6.342-21.997 8.333a220.245 220.245 0 0 1-6.724 2.29l-1.839.554c-.214.08-.434.132-.658.157.195-.131.404-.231.622-.299l1.802-.711 6.663-2.517c5.627-2.133 13.398-5.176 21.924-8.532s16.321-6.342 21.985-8.333a221.212 221.212 0 0 1 6.735-2.289l1.839-.555c.214-.079.435-.132.658-.156Z" fill="#263238"/><path d="m452.535 84.865-6.273 2.616-2.692-9.57c-4.945-17.647-20.706-27.018-35.188-21.06-14.482 5.959-22.192 25.312-17.247 42.96l2.692 9.569-6.297 2.631c-2.401 1.087-4.351 3.213-5.444 5.936-1.094 2.722-1.246 5.832-.427 8.682l17.454 62.269a11.704 11.704 0 0 0 1.769 3.858 9.839 9.839 0 0 0 2.918 2.745 8.419 8.419 0 0 0 3.604 1.2 8.158 8.158 0 0 0 3.719-.536l65.004-27.146c2.433-1.086 4.411-3.23 5.517-5.983 1.106-2.753 1.255-5.899.415-8.777l-17.466-62.27a11.612 11.612 0 0 0-1.796-3.838 9.788 9.788 0 0 0-2.937-2.713 8.378 8.378 0 0 0-3.613-1.157 8.148 8.148 0 0 0-3.712.584Zm-49.549 9.954c-1.333-4.588-1.094-9.601.668-13.989 1.762-4.386 4.91-7.807 8.784-9.545a13.055 13.055 0 0 1 5.955-.901c2.017.17 3.983.811 5.783 1.888 1.799 1.076 3.395 2.565 4.691 4.376 1.296 1.812 2.266 3.91 2.852 6.17l2.68 9.57-28.733 12.001-2.68-9.57Zm36.54 55.259 4.458 15.898c.082.319.056.662-.073.959-.13.296-.352.523-.621.633l-6.248 2.603a.876.876 0 0 1-.742-.098 1.14 1.14 0 0 1-.476-.67l-4.495-15.827c-2.478-.158-4.856-1.195-6.815-2.974-1.959-1.779-3.406-4.215-4.147-6.98-1.059-3.656-.866-7.649.54-11.142 1.405-3.494 3.913-6.217 7-7.6a10.408 10.408 0 0 1 4.743-.716c1.606.136 3.173.647 4.606 1.504 1.433.858 2.704 2.043 3.736 3.486a14.86 14.86 0 0 1 2.274 4.912c.783 2.809.848 5.824.186 8.676-.662 2.852-2.022 5.416-3.913 7.379l-.013-.043Z" fill="#5A12EF"/><path d="M445.982 87.31c0 .2-11.632 5.305-26.102 11.377-14.47 6.072-26.272 10.949-26.333 10.807-.061-.142 11.632-5.29 26.114-11.376 14.482-6.086 26.26-10.992 26.321-10.807Zm13.812 2.617c.054.124.098.252.134.384.097.285.207.654.353 1.11l1.303 4.265 4.677 15.898c1.949 6.741 4.276 14.732 6.858 23.606 1.218 4.45 2.655 9.086 3.995 13.964a24.644 24.644 0 0 1 .913 7.806 11.816 11.816 0 0 1-.986 3.939 10.627 10.627 0 0 1-2.302 3.171c-1.882 1.604-3.971 2.847-6.188 3.683l-6.272 2.631-11.876 4.963-20.109 8.361-13.581 5.574-3.654 1.422-.974.37a.929.929 0 0 1-.329.1s.097 0 .304-.171l.95-.441 3.654-1.607 13.508-5.801 20.073-8.532 11.851-5.006 6.273-2.645c2.154-.802 4.182-2.007 6.004-3.569a9.876 9.876 0 0 0 2.144-2.944c.516-1.132.827-2.376.913-3.654a23.625 23.625 0 0 0-.877-7.522c-1.315-4.835-2.703-9.514-3.958-13.965-2.533-8.887-4.872-16.907-6.723-23.647-1.852-6.741-3.411-12.159-4.483-15.97-.511-1.862-.901-3.313-1.218-4.365l-.292-1.138a1.454 1.454 0 0 1-.085-.27Z" fill="#263238"/><path d="M425.495 70.318s-.646-.37-1.839-.938a14.229 14.229 0 0 0-5.323-1.252c-2.7-.108-5.388.485-7.868 1.735-3.017 1.557-5.596 4.076-7.442 7.266-1.859 3.182-2.856 6.942-2.862 10.793a38.386 38.386 0 0 0 1.218 9.315c.633 2.588 1.291 4.65 1.729 6.086.259.729.47 1.48.633 2.246a13.506 13.506 0 0 1-.864-2.147c-.5-1.422-1.218-3.441-1.925-6.043a37.25 37.25 0 0 1-1.4-9.457c-.033-3.996.988-7.908 2.923-11.205 1.91-3.307 4.595-5.904 7.734-7.48 2.558-1.257 5.329-1.811 8.1-1.62 1.861.11 3.69.616 5.395 1.492.457.246.896.531 1.316.854.173.089.333.208.475.355Zm.56 55.643c.194-.138.398-.256.609-.356.61-.321 1.241-.582 1.888-.782a11.784 11.784 0 0 1 3.155-.625 9.3 9.3 0 0 1 4.275.753c3.118 1.28 5.98 4.992 7.393 9.954a16.658 16.658 0 0 1 0 8.163c-.751 2.89-2.098 5.522-3.922 7.664l.073-.384c1.62 5.191 3.386 10.822 5.213 16.695l.11.355-.305.128-2.789 1.081-6.09 2.374-.304.114-.098-.355c-1.669-5.887-3.496-11.376-4.872-16.766l.268.242c-2.381-.231-4.651-1.274-6.528-3-1.699-1.527-3.091-3.468-4.081-5.688a14.803 14.803 0 0 1-1.291-6.399c.057-2.276.543-4.51 1.426-6.54.882-2.031 2.138-3.809 3.678-5.206a7.54 7.54 0 0 1 2.107-1.422 23.7 23.7 0 0 0-1.998 1.55c-1.691 1.671-2.987 3.82-3.763 6.243a15.442 15.442 0 0 0-.913 5.787 15.253 15.253 0 0 0 1.29 5.688c.973 2.136 2.332 3.999 3.983 5.461 1.791 1.64 3.955 2.629 6.224 2.844H431l.061.213c1.34 5.29 3.179 10.821 4.872 16.737l-.402-.228 6.09-2.374 2.777-1.095-.195.483c-1.815-5.873-3.569-11.518-5.176-16.708v-.214l.146-.17c1.771-2.054 3.091-4.576 3.849-7.352a15.967 15.967 0 0 0 0-7.807c-1.328-4.778-4.068-8.404-7.04-9.684a9.122 9.122 0 0 0-4.129-.81 12.108 12.108 0 0 0-3.118.497c-1.815.527-2.668 1.01-2.68.939Z" fill="#263238"/><path d="m388.407 536.549-121.666-.654c-7.026-.045-13.75-3.344-18.694-9.172-4.944-5.829-7.705-13.71-7.676-21.913l1.291-356.083a35.473 35.473 0 0 1 2.061-11.833c1.346-3.747 3.312-7.149 5.785-10.009 2.472-2.861 5.404-5.124 8.626-6.661 3.223-1.537 6.673-2.318 10.154-2.297l121.654.654c7.026.041 13.751 3.337 18.697 9.162 4.947 5.826 7.71 13.706 7.685 21.908l-1.291 356.069a35.492 35.492 0 0 1-2.061 11.837c-1.346 3.75-3.311 7.153-5.783 10.016-2.473 2.862-5.404 5.129-8.626 6.669-3.223 1.54-6.674 2.324-10.156 2.307Z" fill="#455A64"/><path d="M389.759 130.824h-23.581a5.15 5.15 0 0 0-2.233.57 5.92 5.92 0 0 0-1.877 1.524 7.054 7.054 0 0 0-1.235 2.247 7.853 7.853 0 0 0-.403 2.627v4.991a7.84 7.84 0 0 1-.405 2.625 7.026 7.026 0 0 1-1.234 2.244 5.924 5.924 0 0 1-1.878 1.521 5.156 5.156 0 0 1-2.232.564l-45.968-.242c-1.555-.048-3.03-.815-4.101-2.132-1.071-1.318-1.651-3.077-1.611-4.893v-4.991c.039-1.813-.539-3.57-1.607-4.887-1.069-1.317-2.541-2.085-4.093-2.138h-8.295l-20.645-.113c-4.911-.034-9.633 2.205-13.132 6.226-3.5 4.022-5.492 9.499-5.54 15.232l-1.218 347.565a24.855 24.855 0 0 0 1.379 8.295c.922 2.633 2.279 5.028 3.994 7.048 1.714 2.02 3.753 3.627 5.999 4.727a16.296 16.296 0 0 0 7.093 1.687l121.41.654a16.265 16.265 0 0 0 7.11-1.612c2.256-1.077 4.309-2.662 6.041-4.665 1.731-2.003 3.108-4.385 4.051-7.009a24.87 24.87 0 0 0 1.446-8.286l1.218-347.565c.029-5.749-1.899-11.276-5.359-15.367-3.46-4.09-8.17-6.409-13.094-6.447Z" fill="#fff"/><path d="m373.426 475.403-90.278-.455c-.938 0-1.693-1.194-1.681-2.645l.097-27.572c0-1.422.768-2.645 1.706-2.645l90.278.483c.519.105.984.44 1.298.936.313.495.45 1.113.383 1.724l-.086 27.544c0 1.464-.779 2.645-1.717 2.63Z" fill="#5A12EF"/><path d="M310.151 458.327a3.68 3.68 0 0 1-1.22-.204c-.385-.135-.683-.314-.895-.536l.236-.464c.206.206.48.374.822.504.341.125.693.187 1.057.187.509 0 .891-.092 1.146-.276.255-.19.382-.434.382-.732 0-.228-.07-.409-.211-.545a1.34 1.34 0 0 0-.504-.309 7.492 7.492 0 0 0-.838-.244 9.247 9.247 0 0 1-1.024-.309 1.752 1.752 0 0 1-.659-.463c-.179-.206-.268-.485-.268-.838 0-.287.076-.547.227-.78.152-.239.385-.429.7-.569.314-.141.704-.212 1.171-.212.325 0 .642.046.951.138.314.087.585.209.813.366l-.203.48a2.729 2.729 0 0 0-.765-.35 2.77 2.77 0 0 0-.796-.122c-.499 0-.876.098-1.131.293a.89.89 0 0 0-.374.74c0 .228.068.412.204.553.141.136.314.241.52.317.211.071.493.149.846.236.417.103.753.206 1.008.309.26.098.48.249.659.455.178.201.268.475.268.822 0 .287-.079.55-.236.788-.152.233-.388.42-.707.561-.32.136-.713.204-1.179.204Zm3.433-5.741h.602v5.692h-.602v-5.692Zm7.21 0v5.692h-.496l-3.659-4.619v4.619h-.601v-5.692h.496l3.667 4.619v-4.619h.593Zm5.867 2.846h.577v2.171c-.265.233-.58.412-.943.537a3.521 3.521 0 0 1-1.146.187c-.57 0-1.082-.125-1.537-.374a2.778 2.778 0 0 1-1.074-1.033 2.895 2.895 0 0 1-.39-1.488c0-.548.13-1.041.39-1.48a2.756 2.756 0 0 1 1.074-1.041c.455-.249.97-.374 1.545-.374.433 0 .832.071 1.195.212.363.135.669.338.919.609l-.374.383c-.45-.445-1.022-.667-1.716-.667a2.55 2.55 0 0 0-1.252.309c-.369.2-.659.482-.87.845a2.316 2.316 0 0 0-.317 1.204c0 .444.105.846.317 1.203.211.358.501.64.87.846.368.206.783.309 1.244.309.585 0 1.081-.146 1.488-.439v-1.919Zm6.701 2.895c-.737 0-1.311-.212-1.723-.635-.412-.422-.618-1.038-.618-1.845v-3.261h.601v3.236c0 .662.149 1.155.448 1.48.298.325.729.488 1.292.488.57 0 1.003-.163 1.301-.488.299-.325.448-.818.448-1.48v-3.236h.585v3.261c0 .807-.206 1.423-.618 1.845-.406.423-.978.635-1.716.635Zm6.278-5.741c.726 0 1.295.173 1.707.52.412.347.618.824.618 1.431 0 .608-.206 1.085-.618 1.432-.412.341-.981.512-1.707.512h-1.529v1.797h-.602v-5.692h2.131Zm-.017 3.366c.564 0 .995-.122 1.293-.366.298-.249.447-.599.447-1.049 0-.46-.149-.813-.447-1.057-.298-.249-.729-.374-1.293-.374h-1.512v2.846h1.512Z" fill="#E8E8E3"/><path d="m301.155 232.995-31.327-.166-.026 6.712 31.327.166.026-6.712Z" fill="#5A12EF"/><path opacity=".1" d="m301.155 232.995-31.327-.166-.026 6.712 31.327.166.026-6.712Z" fill="#000"/><path d="M392.986 274.204a2.47 2.47 0 0 0 .718-.199c.338-.154.631-.415.846-.755a2.47 2.47 0 0 0 .372-1.165v-18.884a3.129 3.129 0 0 0-.341-1.862 1.917 1.917 0 0 0-.637-.633 1.615 1.615 0 0 0-.812-.235h-19.5l-101.874-.441a1.43 1.43 0 0 0-.752.2 1.71 1.71 0 0 0-.587.582 3.093 3.093 0 0 0-.317 1.863v17.064a12.974 12.974 0 0 0 0 1.991c.064.284.183.547.347.769.165.222.371.397.603.511.24.111.497.165.755.156h6.2l27.051.171 45.797.327 30.877.284 8.392.114h2.923-42.192l-45.797-.171-27.051-.128h-6.2a2.11 2.11 0 0 1-.999-.199 2.345 2.345 0 0 1-.834-.711 2.843 2.843 0 0 1-.481-1.066 4.66 4.66 0 0 1-.073-1.138v-18.116a9.393 9.393 0 0 1 0-1.138c.045-.418.184-.815.402-1.151a2.37 2.37 0 0 1 .81-.813c.323-.191.68-.288 1.041-.282l101.874.654 17.6.142h1.9c.335 0 .664.095.961.275.297.181.552.443.744.763.343.618.482 1.361.39 2.09v9.087c0 4.266-.086 7.537-.11 9.812-.03.437-.166.856-.392 1.206-.227.35-.535.617-.887.77-.23.167-.496.256-.767.256Z" fill="#E0E0E0"/><path d="M336.533 257.169h-57.295v6.271h57.295v-6.271Z" fill="#5A12EF"/><path opacity=".2" d="M336.533 257.169h-57.295v6.271h57.295v-6.271Z" fill="#fff"/><path d="m300.942 294.225-31.327-.166-.026 6.711 31.327.166.026-6.711Z" fill="#5A12EF"/><path opacity=".1" d="m300.942 294.225-31.327-.166-.026 6.711 31.327.166.026-6.711Z" fill="#000"/><path d="M392.195 335.436a5.44 5.44 0 0 0 .731-.157c.34-.126.653-.336.918-.616.264-.279.475-.622.616-1.005a4.603 4.603 0 0 0 .22-1.806v-16.964a3.478 3.478 0 0 0-.354-1.877c-.3-.58-.773-1.01-1.327-1.209a6.46 6.46 0 0 0-1.839-.114h-17.527l-101.521-.44c-.546.001-1.073.234-1.483.655-.41.421-.675 1.002-.746 1.634v17.064a9.534 9.534 0 0 0 .073 1.991c.152.576.465 1.077.89 1.422.449.333.978.492 1.51.455h5.213l26.954.156 45.639.327 30.766.285 8.368.113h2.911-42.045l-45.663-.056-26.954-.114h-5.299a2.737 2.737 0 0 1-1.863-.583c-.555-.448-.959-1.106-1.145-1.863a10.482 10.482 0 0 1-.098-2.19V313.48c.089-.813.429-1.56.956-2.102.527-.542 1.205-.841 1.907-.841l101.52.654 17.527.156a6.463 6.463 0 0 1 1.949.157c.633.241 1.166.748 1.498 1.422.315.626.451 1.353.39 2.076v17.035a4.58 4.58 0 0 1-.256 1.863 3.01 3.01 0 0 1-.671 1.02c-.283.28-.616.485-.973.601a1.97 1.97 0 0 1-.792-.085Z" fill="#E0E0E0"/><path d="m300.704 358.113-31.327-.166-.026 6.712 31.326.166.027-6.712Z" fill="#5A12EF"/><path opacity=".1" d="m300.704 358.113-31.327-.166-.026 6.712 31.326.166.027-6.712Z" fill="#000"/><path d="M391.95 399.298c.247-.034.491-.086.731-.156.339-.126.651-.334.915-.611.265-.277.476-.617.62-.996a4.626 4.626 0 0 0 .219-1.806V378.75a3.487 3.487 0 0 0-.353-1.877c-.308-.569-.778-.992-1.328-1.194a6.355 6.355 0 0 0-1.839-.128h-17.527l-101.52-.441c-.546.001-1.073.234-1.483.655-.41.421-.675 1.002-.746 1.634v17.064a9.4 9.4 0 0 0 .073 1.977c.146.58.46 1.083.889 1.422.447.341.978.5 1.51.455h5.299l26.954.17 45.639.327 30.766.285 8.368.114h2.911-42.045l-45.639-.157-26.954-.128h-5.299a2.67 2.67 0 0 1-1.863-.583c-.554-.448-.959-1.106-1.145-1.863a10.404 10.404 0 0 1-.097-2.189v-17.136c.086-.811.423-1.559.948-2.101.525-.542 1.201-.841 1.902-.842l101.52.654 17.527.156a6.495 6.495 0 0 1 1.949.157c.633.241 1.166.748 1.498 1.422.315.626.451 1.353.39 2.076v17.036a4.49 4.49 0 0 1-.256 1.862 2.99 2.99 0 0 1-.671 1.02c-.283.28-.616.485-.973.601a1.657 1.657 0 0 1-.89.1Z" fill="#E0E0E0"/><path d="m335.31 320.173-57.294-.303-.025 6.271 57.294.303.025-6.271Z" fill="#5A12EF"/><path opacity=".2" d="m335.31 320.173-57.294-.303-.025 6.271 57.294.303.025-6.271Z" fill="#fff"/><path d="M283.195 387.694a3.232 3.232 0 0 1-.515 1.574 2.555 2.555 0 0 1-1.172.982c-.464.187-.965.21-1.441.067a2.478 2.478 0 0 1-1.235-.871 3.16 3.16 0 0 1-.619-1.521 3.372 3.372 0 0 1 .2-1.668c.205-.521.537-.961.954-1.264a2.244 2.244 0 0 1 1.392-.441c.679.044 1.315.399 1.771.987.456.588.695 1.363.665 2.155Zm7.76.043c.024.401-.023.803-.137 1.182a3.052 3.052 0 0 1-.531 1.02 2.533 2.533 0 0 1-.834.688 2.21 2.21 0 0 1-1.001.243c-.344 0-.684-.083-1-.243-.316-.16-.6-.394-.834-.688a3.052 3.052 0 0 1-.531-1.02 3.383 3.383 0 0 1-.138-1.182 3.383 3.383 0 0 1 .138-1.182c.115-.379.296-.726.531-1.02a2.55 2.55 0 0 1 .834-.689c.316-.16.656-.242 1-.242.345 0 .685.082 1.001.242.316.161.6.395.834.689.235.294.416.641.531 1.02.114.379.161.781.137 1.182Zm7.771.042a3.241 3.241 0 0 1-.514 1.574c-.3.454-.708.796-1.172.982-.465.187-.966.21-1.442.067a2.471 2.471 0 0 1-1.234-.871 3.152 3.152 0 0 1-.62-1.521 3.372 3.372 0 0 1 .2-1.668c.205-.521.537-.961.954-1.264a2.244 2.244 0 0 1 1.392-.441c.678.048 1.312.403 1.768.991.455.587.695 1.36.668 2.151Zm7.758.043a3.236 3.236 0 0 1-.515 1.574 2.557 2.557 0 0 1-1.171.982c-.465.187-.966.21-1.442.067a2.478 2.478 0 0 1-1.235-.871 3.16 3.16 0 0 1-.619-1.521 3.372 3.372 0 0 1 .2-1.668c.205-.521.537-.961.954-1.264a2.244 2.244 0 0 1 1.392-.441c.678.047 1.312.403 1.767.991.456.587.696 1.36.669 2.151Zm7.759.029a3.244 3.244 0 0 1-.509 1.577 2.565 2.565 0 0 1-1.17.989 2.163 2.163 0 0 1-1.443.072 2.467 2.467 0 0 1-1.238-.868 3.161 3.161 0 0 1-.623-1.521 3.379 3.379 0 0 1 .199-1.67c.205-.522.537-.962.954-1.266a2.249 2.249 0 0 1 1.394-.442c.675.048 1.308.402 1.763.986.455.585.696 1.353.673 2.143Zm7.771.043a3.234 3.234 0 0 1-.504 1.571 2.569 2.569 0 0 1-1.16.99c-.461.191-.96.221-1.435.085a2.468 2.468 0 0 1-1.24-.849 3.137 3.137 0 0 1-.637-1.503 3.37 3.37 0 0 1 .174-1.665c.195-.524.518-.969.928-1.281a2.252 2.252 0 0 1 1.377-.477c.686.03 1.334.376 1.803.962.468.586.717 1.366.694 2.167Zm7.758.042c.024.401-.023.803-.138 1.182a3.05 3.05 0 0 1-.53 1.02 2.547 2.547 0 0 1-.835.688 2.192 2.192 0 0 1-2.001 0 2.554 2.554 0 0 1-.834-.688 3.05 3.05 0 0 1-.53-1.02 3.383 3.383 0 0 1-.138-1.182 3.383 3.383 0 0 1 .138-1.182 3.05 3.05 0 0 1 .53-1.02c.235-.294.519-.528.834-.688a2.192 2.192 0 0 1 2.001 0c.316.16.6.394.835.688.235.294.415.641.53 1.02.115.379.162.781.138 1.182Zm7.758.042a3.248 3.248 0 0 1-.504 1.572 2.574 2.574 0 0 1-1.16.99c-.461.191-.96.221-1.435.085a2.463 2.463 0 0 1-1.24-.849 3.142 3.142 0 0 1-.638-1.503 3.386 3.386 0 0 1 .174-1.666c.196-.523.518-.968.928-1.281.41-.312.889-.477 1.378-.476.686.03 1.334.376 1.802.962.468.586.718 1.365.695 2.166Zm7.76.044a3.235 3.235 0 0 1-.51 1.577 2.558 2.558 0 0 1-1.169.989 2.163 2.163 0 0 1-1.443.072 2.467 2.467 0 0 1-1.238-.868 3.151 3.151 0 0 1-.623-1.521 3.378 3.378 0 0 1 .199-1.67c.205-.522.536-.962.954-1.266a2.243 2.243 0 0 1 1.394-.442c.675.048 1.307.402 1.763.986.455.584.696 1.353.673 2.143Z" fill="#5A12EF"/><path opacity=".2" d="M283.195 387.694a3.232 3.232 0 0 1-.515 1.574 2.555 2.555 0 0 1-1.172.982c-.464.187-.965.21-1.441.067a2.478 2.478 0 0 1-1.235-.871 3.16 3.16 0 0 1-.619-1.521 3.372 3.372 0 0 1 .2-1.668c.205-.521.537-.961.954-1.264a2.244 2.244 0 0 1 1.392-.441c.679.044 1.315.399 1.771.987.456.588.695 1.363.665 2.155Zm7.759.043c.023.401-.023.803-.138 1.182a3.052 3.052 0 0 1-.531 1.02 2.533 2.533 0 0 1-.834.688 2.21 2.21 0 0 1-1.001.243c-.344 0-.684-.083-1-.243-.316-.16-.6-.394-.834-.688a3.052 3.052 0 0 1-.531-1.02 3.407 3.407 0 0 1-.138-1.182 3.407 3.407 0 0 1 .138-1.182c.115-.379.296-.726.531-1.02a2.55 2.55 0 0 1 .834-.689c.316-.16.656-.242 1-.242.345 0 .685.082 1.001.242.316.161.6.395.834.689.235.294.416.641.531 1.02.115.379.161.781.138 1.182Zm7.77.042a3.245 3.245 0 0 1-.514 1.574c-.3.454-.708.796-1.172.982-.465.187-.966.21-1.442.067a2.475 2.475 0 0 1-1.234-.871 3.161 3.161 0 0 1-.62-1.521 3.372 3.372 0 0 1 .2-1.668c.205-.521.537-.961.954-1.264a2.244 2.244 0 0 1 1.392-.441c.678.048 1.312.403 1.768.991.455.587.695 1.36.668 2.151Zm7.758.043a3.236 3.236 0 0 1-.515 1.574 2.557 2.557 0 0 1-1.171.982c-.465.187-.966.21-1.442.067a2.478 2.478 0 0 1-1.235-.871 3.16 3.16 0 0 1-.619-1.521 3.372 3.372 0 0 1 .2-1.668c.205-.521.537-.961.954-1.264a2.244 2.244 0 0 1 1.392-.441c.678.047 1.312.403 1.767.991.456.587.696 1.36.669 2.151Zm7.761.029a3.244 3.244 0 0 1-.509 1.578c-.299.456-.706.8-1.17.989a2.175 2.175 0 0 1-1.443.072 2.475 2.475 0 0 1-1.238-.869 3.153 3.153 0 0 1-.623-1.521 3.38 3.38 0 0 1 .199-1.67c.205-.522.537-.962.954-1.265a2.236 2.236 0 0 1 1.394-.442c.675.047 1.308.401 1.763.986.455.584.696 1.353.673 2.142Zm7.769.042a3.234 3.234 0 0 1-.504 1.571 2.569 2.569 0 0 1-1.16.99c-.461.191-.96.221-1.435.085a2.468 2.468 0 0 1-1.24-.849 3.137 3.137 0 0 1-.637-1.503 3.37 3.37 0 0 1 .174-1.665c.195-.524.518-.969.928-1.281a2.252 2.252 0 0 1 1.377-.477c.687.03 1.335.376 1.803.962.468.587.717 1.366.694 2.167Zm7.76.043c.024.401-.023.803-.138 1.182a3.05 3.05 0 0 1-.53 1.02 2.547 2.547 0 0 1-.835.688 2.192 2.192 0 0 1-2.001 0 2.554 2.554 0 0 1-.834-.688 3.05 3.05 0 0 1-.53-1.02 3.383 3.383 0 0 1-.138-1.182 3.383 3.383 0 0 1 .138-1.182 3.05 3.05 0 0 1 .53-1.02c.235-.294.519-.528.834-.688a2.192 2.192 0 0 1 2.001 0c.316.16.6.394.835.688.235.294.415.641.53 1.02.115.379.162.781.138 1.182Zm7.758.043a3.24 3.24 0 0 1-.504 1.571 2.574 2.574 0 0 1-1.16.99 2.16 2.16 0 0 1-1.435.085 2.455 2.455 0 0 1-1.24-.848 3.146 3.146 0 0 1-.638-1.504 3.381 3.381 0 0 1 .174-1.665c.196-.524.518-.969.928-1.281.41-.312.889-.478 1.378-.476.686.029 1.334.375 1.802.962.468.586.718 1.365.695 2.166Zm7.758.043a3.235 3.235 0 0 1-.51 1.577 2.558 2.558 0 0 1-1.169.989 2.163 2.163 0 0 1-1.443.072 2.467 2.467 0 0 1-1.238-.868 3.151 3.151 0 0 1-.623-1.521 3.378 3.378 0 0 1 .199-1.67c.205-.522.536-.962.954-1.266a2.243 2.243 0 0 1 1.394-.442c.675.048 1.307.402 1.763.986.455.584.696 1.353.673 2.143Z" fill="#fff"/><path d="M334.267 182.742c.846-.435 1.564-1.151 2.064-2.059a6.197 6.197 0 0 0 .75-3.046 5.993 5.993 0 0 0-.268-2.063 5.385 5.385 0 0 0-.944-1.771 4.485 4.485 0 0 0-1.466-1.193 3.886 3.886 0 0 0-1.75-.421c-.602 0-1.197.143-1.75.421a4.485 4.485 0 0 0-1.466 1.193 5.364 5.364 0 0 0-.943 1.771 5.945 5.945 0 0 0-.268 2.063 6.217 6.217 0 0 0 .743 3.081c.503.918 1.227 1.642 2.083 2.081-6.821 1.194-6.517 9.84-6.517 9.84l16.127.085s.377-8.802-6.395-9.982Z" fill="#5A12EF"/><path opacity=".1" d="M334.267 182.742c.846-.435 1.564-1.151 2.064-2.059a6.197 6.197 0 0 0 .75-3.046 5.993 5.993 0 0 0-.268-2.063 5.385 5.385 0 0 0-.944-1.771 4.485 4.485 0 0 0-1.466-1.193 3.886 3.886 0 0 0-1.75-.421c-.602 0-1.197.143-1.75.421a4.485 4.485 0 0 0-1.466 1.193 5.364 5.364 0 0 0-.943 1.771 5.945 5.945 0 0 0-.268 2.063 6.217 6.217 0 0 0 .743 3.081c.503.918 1.227 1.642 2.083 2.081-6.821 1.194-6.517 9.84-6.517 9.84l16.127.085s.377-8.802-6.395-9.982Z" fill="#000"/><path d="m360.473 198.3-57.477-.304-.031 8.02 57.477.304.031-8.02Z" fill="#5A12EF"/><path opacity=".2" d="m360.473 198.3-57.477-.304-.031 8.02 57.477.304.031-8.02Z" fill="#fff"/><path d="M149.167 239.863h-.572l-1.657.142c-.896.063-1.788.201-2.667.412-.57.094-1.135.222-1.693.384l-1.888.612c-3.213 1.151-6.245 2.904-8.977 5.19-3.609 3.059-6.622 6.974-8.842 11.49a42.028 42.028 0 0 0-3.094 8.262 45.81 45.81 0 0 0-1.352 9.641 45.576 45.576 0 0 0 .073 5.148c0 .867.207 1.734.304 2.616.082.889.225 1.768.427 2.631 1.095 5.706 3.317 11.034 6.489 15.56 3.172 4.525 7.206 8.123 11.781 10.505 3.31 1.668 6.859 2.599 10.462 2.744 3.722.239 7.448-.384 10.962-1.834l1.072-.469h.146l.122.085 15.359 9.101-.451.455c-1.644-5.944-3.227-11.703-4.762-17.235v-.213l.134-.156c3.726-4.382 6.492-9.747 8.063-15.642a45.715 45.715 0 0 0 1.218-16.666c-.552-4.971-1.921-9.77-4.031-14.135-1.82-3.749-4.167-7.114-6.943-9.954a33.797 33.797 0 0 0-7.539-5.603 29.512 29.512 0 0 0-6.383-2.346l-2.436-.469-1.766-.157-1.072-.085h-.365c.121-.016.244-.016.365 0h1.084l1.766.085 2.436.413a28.855 28.855 0 0 1 6.468 2.261c2.76 1.453 5.341 3.333 7.673 5.588 2.828 2.827 5.225 6.193 7.089 9.954 2.171 4.412 3.582 9.276 4.154 14.32a46.244 46.244 0 0 1-1.133 16.95c-1.582 6.018-4.39 11.497-8.185 15.969l.073-.37c1.535 5.532 3.13 11.291 4.787 17.221l.231.867-.694-.412-15.359-9.087h.268l-1.096.47c-3.583 1.471-7.377 2.109-11.169 1.877-3.682-.164-7.304-1.129-10.682-2.844-6.444-3.222-11.805-8.822-15.262-15.941a42.058 42.058 0 0 1-3.447-10.523 25.167 25.167 0 0 1-.426-2.687c-.097-.896-.256-1.778-.292-2.66a48.715 48.715 0 0 1 1.352-15.016 41.634 41.634 0 0 1 3.179-8.361c2.273-4.557 5.349-8.498 9.025-11.561 2.777-2.292 5.859-4.032 9.123-5.148l1.912-.569a14.748 14.748 0 0 1 1.705-.355 15.611 15.611 0 0 1 2.692-.341l1.669-.071c.189-.03.381-.045.572-.043Z" fill="#5A12EF"/><path d="M156.111 273.024h-2.254l-4.872-7.992v-5.247s-3.483-.256-3.069 6.612c.414 6.868 0 5.119 0 5.119s-7.393 0-8.002.783c-.609.782-.646 9.115-.731 13.764a5.66 5.66 0 0 0 .783 3.146c.553.917 1.354 1.592 2.274 1.917.258.083.524.126.792.128 1.851 0 11.266-1.749 11.266-1.749h3.886l-.073-16.481Zm6.443-1.408-1.389 17.974h-3.849v-17.604l5.238-.37Zm45.907 365.924v-12.158l-18.672-.157-.158 18.386 1.157.1c5.152.384 26.211.953 29.67-.299 3.849-1.393-11.997-5.872-11.997-5.872Z" fill="#5A12EF"/><path d="M220.897 642.275c0 .199-6.992.37-15.603.37s-15.603-.171-15.603-.37c0-.199 6.992-.37 15.603-.37s15.603.171 15.603.37Zm-12.107-2.247c-.159-.1 0-.739.377-1.422.378-.683.889-.967 1.011-.825.122.142-.134.683-.499 1.266-.366.583-.731 1.081-.889.981Zm1.193.796c-.171 0-.085-.796.28-1.55.365-.753.853-1.208.987-1.095.134.114-.086.754-.427 1.422-.341.669-.682 1.294-.84 1.223Z" fill="#263238"/><path d="M195.32 642.218c-.073 0-.353-.256-.755-.796a13.29 13.29 0 0 0-1.633-1.906 4.035 4.035 0 0 0-2.021-1.038c-.573-.085-.938 0-.975-.085-.036-.085.317-.384.987-.441.884-.022 1.746.321 2.436.967a7.841 7.841 0 0 1 1.608 2.204c.28.626.426 1.038.353 1.095Zm13.531-4.48c.085.171-.232.598-.768.825-.536.228-1.011.142-1.035 0-.024-.142.353-.441.816-.64.463-.199.889-.355.987-.185Zm-.293-1.18c0 .214-.487.384-1.121.399-.633.014-1.133-.157-1.12-.356.012-.199.511-.384 1.12-.398.609-.014 1.096.156 1.121.355Z" fill="#263238"/><path d="M254.44 637.54v-12.158l-18.672-.157-.159 18.202 1.157.099c5.153.384 26.224 1.138 29.671-.113 3.849-1.394-11.997-5.873-11.997-5.873Z" fill="#5A12EF"/><path d="M266.877 642.303c0 .199-6.98.37-15.603.37s-15.59-.171-15.59-.37c0-.199 6.979-.369 15.59-.369s15.603.17 15.603.369Zm-12.108-2.275c-.146-.1 0-.739.377-1.422.378-.683.889-.967 1.011-.825.122.142-.134.683-.499 1.266-.366.583-.731 1.081-.889.981Zm1.194.796c-.158 0-.085-.796.293-1.55.377-.753.852-1.208.986-1.095.134.114-.097.754-.438 1.422-.341.669-.67 1.294-.841 1.223Z" fill="#263238"/><path d="M241.298 642.218c-.073 0-.341-.256-.755-.796a13.283 13.283 0 0 0-1.632-1.906 4.034 4.034 0 0 0-2.022-1.038c-.56-.085-.938 0-.974-.085-.037-.085.316-.384.986-.441.884-.022 1.747.321 2.436.967a7.593 7.593 0 0 1 1.608 2.204c.28.626.426 1.038.353 1.095Zm13.533-4.48c.085.171-.231.598-.767.825-.536.228-1.011.142-1.036 0-.024-.142.354-.441.817-.64.462-.199.889-.355.986-.185Zm-.27-1.18c0 .214-.487.384-1.12.399-.634.014-1.121-.157-1.109-.356.012-.199.5-.384 1.109-.398.609-.014 1.12.156 1.12.355Z" fill="#263238"/><path d="M323.233 276.494c-.487-.583-1.693-.299-1.693-.299a8.476 8.476 0 0 0 0-2.474c-.219-.796-1.754-.64-1.754-.64a9.596 9.596 0 0 1 0-2.019.832.832 0 0 0-.078-.428.681.681 0 0 0-.275-.298 4.927 4.927 0 0 0-2.29-.483c-.938-.782 2.862-6.996 4.275-8.987 1.413-1.991 1.157-3.541-.097-3.541-.865 0-5.299 5.973-6.663 7.978-1.364 2.005-4.982 7.579-5.103 3.128-.122-4.451-1.657-7.807-2.619-8.376-.962-.568-1.985.768-1.462 2.005.461 1.406.748 2.881.853 4.38a12.198 12.198 0 0 1-.134 3.584 48.654 48.654 0 0 1-1.644 6.427h-.098s-26.577 29.763-28.501 31.881c-1.717 1.906-36.26-2.261-43.19-3.114a39.956 39.956 0 0 0-7.113-.569c-3.009.157-3.545.654-6.541.697-7.567.098-15.116.873-22.582 2.318-3.38.671-6.538 2.413-9.128 5.036-2.59 2.623-4.514 6.026-5.561 9.838-6.979 25.454-22.789 85.704-25.578 119.548a155.07 155.07 0 0 0-5.7 13.75c-1.961 6.229-1.486 6.442-.828 6.584 1.778.384 3.8-10.793 4.555-8.091.755 2.702-3.837 13.324-1.973 13.637 2.436.398 4.372-11.376 4.604-12.314.231-.939 1.437-.64 1.218.241-.353 1.252-3.776 14.519-1.389 14.946 1.316.227 1.462-2.574 1.462-2.574s2.436-12.699 3.544-12.443c1.109.256-.073 7.75-.633 10.253s.219 3.768 1.364 3.157c.78-.427 2.643-8.035 3.155-10.509.511-2.474 1.79-9.328 3.508-5.361 1.717 3.968 4.324 6.271 5.395 6.328a1.14 1.14 0 0 0 .654-.333c.185-.185.317-.43.382-.704a1.656 1.656 0 0 0-.022-.833 1.43 1.43 0 0 0-.417-.675 16.084 16.084 0 0 1-2.351-3.555 11.498 11.498 0 0 1-1.218-3.328 41.84 41.84 0 0 1-.852-7.195l-.195-1.422c2.728-15.77 10.584-62.056 21.924-91.62l4.653 11.177 2.022 8.276-12.4 35.735 52.886-.81-7.893-35.465 9.586-36.972c10.365.27 36.978.725 41.412-1.621 5.578-2.844 34.433-45.39 34.433-45.39a70.993 70.993 0 0 0 5.396-5.461s1.753-1.72.694-3Z" fill="#FFBE9D"/><path d="M184.393 378.806c1.535-6.114 9.415-36.346 9.415-36.346s3.874 24.643 2.85 27.615a56.103 56.103 0 0 1-3.325 7.338c-8.94 15.884-7.771 23.833-7.771 23.833l54.019-1.92c.122-8.817-4.349-29.322-5.274-32.592-.926-3.271 2.156-13.979 2.156-13.979s6.09-7.238 5.87-10.963a69.873 69.873 0 0 0-1.059-9.954l32.886 1.422-1.036-26.023-47.234-5.517c-1.644 5.418-16.516 2.758-16.516 2.758-16.053.626-17.052 4.067-23.726 10.125-6.675 6.058-17.722 58.046-17.722 58.046l16.467 6.157Z" fill="#5A12EF"/><path d="M216.329 372.649a9.772 9.772 0 0 1-2.838.171c-1.766 0-4.19-.142-6.857-.455-2.668-.313-5.079-.754-6.797-1.152a10.357 10.357 0 0 1-2.765-.825 13.12 13.12 0 0 1 2.838.313c1.73.256 4.129.611 6.784.924 2.656.313 5.067.526 6.809.669.95.014 1.896.133 2.826.355Zm3.702-5.36a11.34 11.34 0 0 1-2.947 1.18 46.805 46.805 0 0 1-14.897 2.062 10.575 10.575 0 0 1-3.093-.342 17.803 17.803 0 0 1 3.093-.184 75.993 75.993 0 0 0 7.442-.626 70.141 70.141 0 0 0 7.308-1.422c1.015-.316 2.05-.54 3.094-.668Zm18.173-23.918a17.11 17.11 0 0 1-.378 3.213 165.947 165.947 0 0 1-1.425 7.636c-.621 2.958-1.218 5.688-1.754 7.537a15.77 15.77 0 0 1-.95 3.057c.068-1.08.24-2.149.512-3.185.463-2.218.986-4.778 1.571-7.579.585-2.802 1.145-5.361 1.608-7.579.165-1.068.439-2.109.816-3.1Zm-53.238 31.81a49.879 49.879 0 0 1-8.319-2.261 52.027 52.027 0 0 1-8.161-2.986 51.554 51.554 0 0 1 8.319 2.261 51.36 51.36 0 0 1 8.161 2.986Zm56.892-43.656a3.492 3.492 0 0 1-1.389 0 12.717 12.717 0 0 1-3.714-1.038c-1.993-.874-3.807-2.225-5.325-3.966-1.519-1.741-2.709-3.834-3.494-6.144a21.195 21.195 0 0 1-1.084-8.006c.055-2.252.631-4.443 1.669-6.342.73-1.279 1.82-2.22 3.081-2.659a3.217 3.217 0 0 1 1.036-.157h.365s-.511 0-1.327.384c-1.158.499-2.139 1.435-2.79 2.659-1.656 3.043-2.119 8.603-.353 13.794.822 2.447 2.109 4.645 3.764 6.427 1.356 1.459 2.917 2.633 4.616 3.47a20.864 20.864 0 0 0 4.945 1.578Zm28.392 1.223a138.163 138.163 0 0 1-.292-13.111 136.53 136.53 0 0 1 .341-13.096c.305 4.355.402 8.728.292 13.096.103 4.374-.011 8.752-.341 13.111Z" fill="#263238"/><path d="M225.574 303.313c.134-3.171.415-6.755.415-6.755s6.723-.867 7.125-8.973c.402-8.105 0-26.804 0-26.804l-12.18-7.281-13.52 12.414 2.083 40.527 12.399.924c.948.031 1.867-.378 2.557-1.138.689-.76 1.093-1.808 1.121-2.914Z" fill="#FFBE9D"/><path d="M226.779 281.172s0 .157-.11.341a.917.917 0 0 1-.341.31c-.134.07-.28.1-.426.089-.779 0-1.535-1.053-1.803-2.276a4.323 4.323 0 0 1 0-1.805c.025-.259.105-.507.233-.72a1.42 1.42 0 0 1 .498-.503.583.583 0 0 1 .512 0 .68.68 0 0 1 .28.327c.085.241 0 .398 0 .384 0-.015 0-.143-.122-.285a.441.441 0 0 0-.263-.199.384.384 0 0 0-.309.057c-.15.105-.274.253-.361.43a1.36 1.36 0 0 0-.139.58 4.253 4.253 0 0 0 0 1.606c.244 1.11.902 2.005 1.486 2.091a.735.735 0 0 0 .342-.028.823.823 0 0 0 .304-.185c.146-.114.195-.228.219-.214Z" fill="#EB996E"/><path d="M237.291 256.401c-.938-3.726-4.336-5.574-7.43-6.598-4.713-1.564-9.805-2.247-14.409-.27-4.604 1.976-10.133 5.446-10.133 11.376-2.717-.256-4.276 2.517-5.347 5.958a25.522 25.522 0 0 0-1.218 6.541c-.341 7.764-2.205 18.486-6.517 24.174-2.436 3.171-5.81 5.361-7.198 9.314-1.218 3.427-.585 7.494-1.717 10.964-1.011 3.057-3.24 5.233-4.872 7.892-1.663 3.016-2.642 6.477-2.844 10.057-.203 3.579.378 7.16 1.686 10.405 1.319 3.163 3.174 5.979 5.455 8.277 2.28 2.298 4.937 4.03 7.809 5.09 5.69 2.021 11.757 2.09 17.479.199 4.294-1.199 8.3-3.518 11.717-6.783 3.496-3.333 5.897-7.975 6.796-13.139.865-5.802-.523-11.703-1.559-17.476-3.24-18.245-2.314-19.197 1.779-36.133.097-.299.146-.612.219-.91.073-.299.109-.441.158-.669.116-.669.178-1.35.183-2.033a2.902 2.902 0 0 1-1.87.158 3.235 3.235 0 0 1-1.65-1.04 4.525 4.525 0 0 1-.918-1.999 4.947 4.947 0 0 1 .09-2.267 6.288 6.288 0 0 1 1.257-2.117 5.236 5.236 0 0 1 1.885-1.338c1.352-.654 2.801-.996 4.129-1.721 2.814-1.564 4.762-4.806 6.09-8.205 1.092-2.355 1.428-5.088.95-7.707Z" fill="#263238"/><path d="M227.267 281.556c.257.444.47.921.633 1.422.366.896.853 2.162 1.389 3.626l.097.27h-.256l-1.218.128c-.84 0-1.547.185-2.375.171a.42.42 0 0 1-.194-.116.517.517 0 0 1-.122-.211.727.727 0 0 1 0-.398c.028-.192.064-.382.109-.569l.219-1.01c.111-.673.282-1.331.512-1.962a11.085 11.085 0 0 1-.256 2.034l-.17 1.009c-.061.341-.171.868 0 .825.609 0 1.473-.157 2.277-.213l1.218-.128-.158.312c-.524-1.422-.962-2.758-1.218-3.683a6.123 6.123 0 0 1-.487-1.507Z" fill="#5A12EF"/><path d="m185.562 401.246 54.019-1.92 23.507 107.134-4.324 122.889h-28.562l3.496-120.273-20.889-74.584 3.215 199.621-28.866.497-3.033-187.633c-.134-5.218-1.596-16.978-1.047-22.154l2.484-23.577Z" fill="#263238"/><path d="M219.995 436.014a9.285 9.285 0 0 1-2.643-.185 74.297 74.297 0 0 1-6.309-1.195 71.321 71.321 0 0 1-6.224-1.749 9.131 9.131 0 0 1-2.436-1.024c0-.213 3.97.896 8.842 2.048 4.872 1.152 8.794 1.891 8.77 2.105Zm38.477 186.595c0 .199-6.468.369-14.446.369s-14.458-.17-14.458-.369c0-.2 6.468-.37 14.458-.37s14.446.156 14.446.37Zm-42.703 6.313c0 .213-6.285.37-14.031.37-7.747 0-14.019-.157-14.019-.37s6.285-.37 14.019-.37 14.031.171 14.031.37Z" fill="#455A64"/><path d="M212.042 628.41c-.17 0-.926-43.612-1.693-97.407-.767-53.794-1.218-97.435-1.06-97.435.159 0 .938 43.598 1.693 97.421.756 53.823 1.243 97.421 1.06 97.421Zm42.592-5.801a4.362 4.362 0 0 1 0-.583v-1.707c0-1.535.097-3.739.171-6.541.17-5.688.414-13.95.718-24.074.658-20.363 1.584-48.434 2.594-79.419v-.839.1c-6.394-29.862-12.18-56.966-16.382-76.575l-4.872-23.193c-.56-2.716-.986-4.835-1.291-6.314-.146-.696-.243-1.237-.329-1.649a2.853 2.853 0 0 1-.085-.569c.063.179.112.365.146.555.098.398.22.938.39 1.621.329 1.422.804 3.583 1.413 6.285 1.218 5.489 2.935 13.395 5.079 23.136 4.239 19.595 10.085 46.627 16.565 76.532v.939c-1.084 30.985-2.071 59.041-2.789 79.404-.378 10.139-.695 18.344-.914 24.06-.122 2.844-.219 5.006-.28 6.541 0 .726-.073 1.294-.085 1.707.002.196-.015.391-.049.583Z" fill="#455A64"/><path d="M245.317 506.943a28.71 28.71 0 0 1-6.309 1.635c-2.631.526-4.872.896-5.883.953v-.285c.329.114.5.185.5.242 0 .057-.207 0-.548 0h-.731l.731-.256c.95-.327 3.191-.867 5.822-1.422 2.11-.534 4.26-.825 6.418-.867Zm-.498 4.081c-1.9.102-3.804.002-5.688-.298a27.764 27.764 0 0 1-5.664-.726 31.073 31.073 0 0 1 11.352 1.024Z" fill="#455A64"/><path opacity=".2" d="M185.33 403.507a7.835 7.835 0 0 0 2.365 2.321 6.618 6.618 0 0 0 2.97.992 20.63 20.63 0 0 0 6.541-.142c13.946-1.806 28.72-3.47 42.374-7.352-17.673 1.152-36.345.768-54.018 1.92l-.183 1.763m18.162 29.578 9.963 45.134-.694-43.229-9.269-1.905Z" fill="#000"/></svg>