<svg width="611" height="611" viewBox="0 0 611 611" fill="none" xmlns="http://www.w3.org/2000/svg"><g clip-path="url(#a)"><path d="M35.772 327.686c34.44-17.704 68.675-7.723 68.675-7.723-24.491 21.23-68.675 7.723-68.675 7.723Zm108.954-32.076c6.774 21.955-4.023 41.485-4.023 41.485-10.315-16.338 4.023-41.485 4.023-41.485Zm-3.806 51.828c-25.603 12.672-52.201 5.186-52.201 5.186 17.849-15.362 52.201-5.186 52.201-5.186ZM87.183 300.21c.336-.404 16.913 11.681 37.03 26.973 20.117 15.293 36.166 28.034 35.83 28.438-.337.404-16.913-11.682-37.03-26.988S86.846 300.6 87.183 300.21ZM33.9 269.765s44.594 2.272 60.863 36.983c-.044 0-38.083-1.45-60.863-36.983Zm62.106-12.811s34.381 27.155 25.735 64.263c0 0-29.656-22.778-25.735-64.263Zm514.995-26.067c-40.483-7.723-71.763 12.406-71.763 12.406 31.573 14.205 71.763-12.406 71.763-12.406Zm-120.263-.293c.278 24.144 17.557 40.649 17.557 40.649 5.047-19.516-17.557-40.649-17.557-40.649Zm20.629 51.145c29.92 5.242 54.309-10.134 54.309-10.134-22.956-10.19-54.309 10.134-54.309 10.134Zm38.873-63.44c-.468-.307-13.27 16.728-28.603 38.112-15.332 21.384-27.373 38.906-26.905 39.199.468.292 13.27-16.728 28.603-38.098 15.332-21.37 27.373-38.906 26.905-39.213Z" fill="#E0E0E0"/><path d="M594.102 171.921s-44.214 15.417-49.393 55.202c0 .014 37.922-12.658 49.393-55.202Zm-66.774 5.367s-25.867 37.484-5.135 72.362c0 0 22.531-31.699 5.135-72.362ZM510.797 41.736c-17.329-3.08-35.241.032-50.315 8.74 22.122 9.967 50.315-8.74 50.315-8.74Zm-84.375-.181c.19 16.937 12.275 28.521 12.275 28.521 3.584-13.689-12.275-28.521-12.275-28.521Zm14.469 35.881c20.994 3.68 38.112-7.109 38.112-7.109-16.108-7.151-38.112 7.11-38.112 7.11Zm27.286-44.51c-.337-.21-9.32 11.765-20.073 26.737-10.754 14.971-19.21 27.294-18.874 27.517.337.223 9.305-11.765 20.059-26.737 10.753-14.971 19.21-27.294 18.888-27.517Z" fill="#E0E0E0"/><path d="M498.946.39s-31.031 10.818-34.645 38.725c8.543-3.435 16.124-8.726 22.14-15.45 6.015-6.723 10.297-14.694 12.505-23.275Zm-46.848 3.708s-18.157 26.305-3.6 50.784c4.711-7.613 7.489-16.169 8.114-24.986.625-8.817-.921-17.65-4.514-25.798Z" fill="#E0E0E0"/><path d="m20.684 178.212-6.327 58.335 76.579 7.54 6.326-58.335-76.578-7.54Z" fill="#F5F5F5"/><path d="m22.93 182.15-5.53 50.986 71.194 7.01 5.53-50.986-71.194-7.01Z" fill="#EBEBEB"/><path d="m17.396 233.145 28.31-29.246 13.256 21.342 11.587-9.577 18.04 24.479-71.192-6.998Zm50.667-30.974a5.237 5.237 0 0 1-1.264 2.875 5.654 5.654 0 0 1-2.727 1.722 5.899 5.899 0 0 1-3.272-.014 5.647 5.647 0 0 1-2.712-1.743 5.235 5.235 0 0 1-1.237-2.886 5.152 5.152 0 0 1 .654-3.054 5.517 5.517 0 0 1 2.327-2.193 5.869 5.869 0 0 1 3.212-.59c1.484.148 2.845.85 3.786 1.953a5.193 5.193 0 0 1 1.233 3.93Z" fill="#E0E0E0"/><path d="m493.201 467.631-6.455 41.901 55.007 7.693 6.454-41.901-55.006-7.693Z" fill="#F5F5F5"/><path d="m494.684 470.534-5.641 36.619 51.142 7.152 5.641-36.619-51.142-7.152Z" fill="#EBEBEB"/><path d="m489.084 507.204 21.361-20.255 8.88 15.78 8.676-6.552 12.217 18.192-51.134-7.165Zm37.557-20.785a3.793 3.793 0 0 1-1.009 2.032c-.54.568-1.244.97-2.024 1.157-.779.186-1.6.148-2.357-.109a4.062 4.062 0 0 1-1.897-1.337 3.77 3.77 0 0 1-.798-2.116 3.73 3.73 0 0 1 .569-2.182 4.001 4.001 0 0 1 1.745-1.514 4.25 4.25 0 0 1 2.333-.336 4.12 4.12 0 0 1 2.674 1.526c.644.826.919 1.861.764 2.879Z" fill="#E0E0E0"/><path d="m85.008 403.251-49.074 24.893 20.887 37.382 49.075-24.893-20.888-37.382Z" fill="#F5F5F5"/><path d="M84.578 406.497 38.95 429.641l18.254 32.669 45.627-23.144-18.254-32.669Z" fill="#EBEBEB"/><path d="m57.22 462.289 4.58-28.381 16.972 7.694 2.91-10.19 21.157 7.737-45.618 23.14Zm17.25-38a3.72 3.72 0 0 1 .455 2.207 3.78 3.78 0 0 1-.91 2.077 4.08 4.08 0 0 1-1.966 1.245 4.26 4.26 0 0 1-2.36-.005 4.078 4.078 0 0 1-1.961-1.254 3.722 3.722 0 0 1-.433-4.286 3.978 3.978 0 0 1 1.673-1.587 4.251 4.251 0 0 1 3.099-.284c.511.149.986.392 1.399.716a3.91 3.91 0 0 1 1.004 1.171Z" fill="#E0E0E0"/><path d="M610.795 610.652c0 .195-136.737.362-305.383.362S0 610.847 0 610.652c0-.196 136.708-.363 305.412-.363 168.705 0 305.383.195 305.383.363Z" fill="#263238"/><path d="M489.012 194.266c-1.917-4.182-2.356-8.698-3.629-13.047-.687-2.328-1.829-4.81-4.126-5.841a37.327 37.327 0 0 0-4.915-1.06c-5.853-1.658-7.316-9.353-12.861-11.751a19.029 19.029 0 0 0-5.515-1.087c-7.316-.837-14.938-3.248-19.547-8.741-1.463-1.77-2.663-3.875-4.521-5.311s-4.813-2.077-6.627-.599c1.536 2.955 3.058 5.91 4.579 8.824a23.324 23.324 0 0 0 5.135 7.36c2.356 1.98 5.853 3.011 8.647 1.77a5.78 5.78 0 0 1 2.926-.975 3.06 3.06 0 0 1 1.888 1.157c4.008 4.182 2.706 11.152-1.2 15.515-3.907 4.363-9.642 6.524-15.187 8.629a12.207 12.207 0 0 1-6.188 1.143c-3.848-.669-5.853-4.656-7.008-8.239-2.502-7.904-3.717-16.491-8.852-23.168-1.653-2.091-3.687-4.015-4.682-6.468-.994-2.453-.804-5.757-2.487-8.085-1.682-2.328-5.413-3.862-5.662-6.817-.161-2.063 1.639-3.889 3.629-4.781 1.989-.892 4.213-1.185 6.247-1.98.819-.32 1.712-.878 1.741-1.714 0-1.241-1.8-1.743-2.268-2.886-.468-1.143.907-2.509 1.463-3.778 1.273-2.899-1.887-5.812-4.96-6.969-3.072-1.158-6.715-2.036-8.149-4.879a16.39 16.39 0 0 1-.98-4.182c-.717-3.583-3.482-6.97-7.315-7.626-3.834-.655-8.018 2.635-7.403 6.232.365 1.979 1.916 3.512 2.75 5.339.834 1.826.629 4.558-1.36 5.143-3.248.948-6.379-4.725-9.101-2.788 1.112 3.625 2.195 7.263 3.307 10.915-4.272 2.077-9.378-1.672-11.207-5.924-1.829-4.252-1.887-9.061-4.067-13.145-2.18-4.085-8.018-7.138-11.705-4.182-.19 5.255 7.096 7.388 10.315 11.639 2.326 3.067 1.975 8.058-1.463 10.009-3.439 1.952-8.779-1.394-7.52-5.018.468-1.241 1.55-2.272 1.667-3.611.132-1.644-1.331-2.983-2.662-4.042-2.078-1.687-4.155-3.332-6.233-4.991a13.279 13.279 0 0 0-4.389-2.648c-4.287-1.185-8.559 2.119-10.812 5.757-2.253 3.638-3.541 7.932-6.672 10.971-4.491 4.433-13.006 4.697-17.22 0-4.213-4.698-2.077-13.313 4.155-15 2.356-.627 5.326-.557 6.569-2.537 2.166-3.513-4.038-8.001-1.902-11.542 1.654-2.788 5.984-1.478 9.145-2.398 3.16-.92 4.901-3.917 6.759-6.523 1.858-2.607 4.711-5.158 7.93-4.49a9.041 9.041 0 0 1 .336-5.366c.834-1.645 3.19-2.788 4.74-1.645-1.58 2.468.308 5.925 3.073 7.165 2.765 1.24 5.969.948 9.012.627 3.043-.32 6.847-1.393 7.096-4.32a9.617 9.617 0 0 1 .088-2.789c1.331-3.457 8.032 1.297 10.592-1.478 1.463-1.394-.146-4.014-2.224-4.488-2.077-.474-4.184.237-6.291.293-2.106.055-4.681-.962-4.769-2.97-.088-2.007 2.224-3.4 2.472-5.352.41-3.304-5.471-4.183-7.549-1.478-2.078 2.704-1.331 6.384-.717 9.66.615 3.276.966 7.137-1.58 9.451-1.083 1.562-3.906.725-4.828-.92-.922-1.645-.732-3.75-.907-5.576a4.52 4.52 0 0 0-.61-1.9 4.76 4.76 0 0 0-1.382-1.49 5.033 5.033 0 0 0-1.906-.809 5.152 5.152 0 0 0-2.086.017c-.366.084-.717.154-1.083.21-5.384.613-9.129-6.022-7.432-10.93 1.697-4.906 6.569-8.084 11.309-10.594 3.468-1.826 7.784-3.54 11.222-1.686 1.609.864 2.721 2.342 4.301 3.22 2.722 1.533 6.101.976 9.232 1.031 4.961.137 9.72 1.9 13.475 4.99 1.463 1.214 2.692 3.22 1.609 4.67-1.082 1.45-4.55 1.855-3.965 3.653.912.24 1.866.296 2.801.16a6.92 6.92 0 0 0 2.624-.942 6.563 6.563 0 0 0 1.992-1.883 6.23 6.23 0 0 0 1.011-2.493 5.593 5.593 0 0 1 2.241 1.767 5.22 5.22 0 0 1 1.021 2.596 10.124 10.124 0 0 1 3.52-1.986 10.476 10.476 0 0 1 4.061-.479c1.373.109 2.708.487 3.922 1.11a9.904 9.904 0 0 1 3.128 2.512 12.443 12.443 0 0 0 2.794 3.206c1.244.767 3.409.377 3.555-1.003a2.49 2.49 0 0 0-.248-1.297 211.348 211.348 0 0 0-2.253-5.966c2.926-1.477 6.291.823 8.237 3.304 7.315 9.242 12.421 3.694 22.648 5.2 6.905 1.003 9.948 5.227 13.855 10.329 11.953 15.71 27.798 28.577 38.624 44.984 1.156 1.715 2.195 3.457 3.19 5.228-.176-.447-.337-.893-.527-1.325a177.399 177.399 0 0 0-15.801-30.667c-1.331-2.064-2.692-4.183-4.082-6.12-.863-1.24-1.77-2.51-2.663-3.708-1.155-1.603-2.355-3.137-3.569-4.67a81.359 81.359 0 0 0-2.926-3.624 84.428 84.428 0 0 0-2.107-2.482c-.717-.822-1.551-1.868-2.414-2.788l-2.605-2.871c-.261-.307-.54-.6-.834-.879-.892-1.003-1.858-1.979-2.823-2.955a.771.771 0 0 0-.278-.292 20.86 20.86 0 0 0-.805-.795c-.775-.837-1.609-1.631-2.414-2.426a115.779 115.779 0 0 0-4.096-3.833 74.867 74.867 0 0 0-3.526-3.165c-1.215-1.031-2.107-1.826-3.19-2.788-1.083-.961-2.107-1.742-3.189-2.592-1.083-.85-2.634-2.091-3.994-3.123h-1.698a189.478 189.478 0 0 0-11.368-7.96 59.731 59.731 0 0 0-2.926-1.854c-1.024-.599-1.975-1.212-2.926-1.798a106.717 106.717 0 0 0-2.926-1.728c-.951-.544-1.99-1.157-2.999-1.715-1.01-.558-1.609-.892-2.429-1.296a13.54 13.54 0 0 0-1.243-.67 131.871 131.871 0 0 0-5.253-2.662 77.739 77.739 0 0 0-2.677-1.269c-.907-.404-2.268-1.073-3.424-1.56a3.004 3.004 0 0 0-.526-.238c-1.024-.46-2.063-.92-3.117-1.394-1.463-.613-2.926-1.226-4.477-1.798-1.55-.571-3.394-1.394-5.12-1.938-1.727-.543-3.833-1.394-5.779-1.965-1.946-.572-3.907-1.255-5.853-1.826a183.169 183.169 0 0 0-5.954-1.617 201.204 201.204 0 0 0-11.997-2.69h-.205c-1.551-.293-3.102-.586-4.653-.81a.889.889 0 0 0-.307 0 42.403 42.403 0 0 0-2.063-.306 172.03 172.03 0 0 0-8.778-1.17c-.322 0-.688-.085-1.053-.112-.849-.112-1.698-.168-2.59-.251-1.931-.182-3.877-.32-5.852-.446a172.185 172.185 0 0 0-6.16-.28c-2.063-.055-4.316-.125-6.481-.125-5.706 0-11.353.242-16.942.725-1.332.084-2.634.21-3.936.349-1.302.14-2.736.292-4.111.46a123.81 123.81 0 0 0-4.067.557c-1.346.21-2.707.405-4.067.628-1.361.223-2.341.376-3.497.613a170.318 170.318 0 0 0-8.471 1.742c-1.302.28-2.604.6-3.907.948-1.302.349-2.618.67-3.891 1.018-2.151.572-4.258 1.213-6.35 1.854h-1.17l-5.311 1.715a.278.278 0 0 0-.132 0c-1.8.599-3.541 1.226-5.311 1.895l-.278.084-4.799 1.868c-1.989.78-3.95 1.631-5.852 2.467-1.638.725-3.248 1.394-4.828 2.203-1.58.808-3.423 1.63-5.091 2.467l-.191.098a130.452 130.452 0 0 0-4.798 2.523c-1.58.878-3.263 1.77-4.872 2.788h.453c-1.463.85-2.926 1.7-4.389 2.579-.556.334-1.083.683-1.639 1.031-1.463.948-3.013 1.91-4.535 2.914-1.858 1.213-3.643 2.467-5.428 3.736a190.76 190.76 0 0 0-28.925 25.413 188.469 188.469 0 0 0-7.505 8.475c-2.034 2.467-4.009 4.976-5.852 7.569.497 0 .995-.126 1.463-.153 2.78-.21 5.706-.112 8.208-1.269 2.501-1.157 3.95-3.053 6.057-4.475 5.369-3.638 14.177-4.321 15.625-10.44.497-2.064-.088-4.294.717-6.273 1.463-3.68 6.671-4.183 10.812-4.183 1.756 0 3.818.224 4.623 1.701.225.55.326 1.137.295 1.726a4.025 4.025 0 0 1-.47 1.69c-2.591 6.918-7.595 12.778-14.177 16.602-5.384 3.108-12.392 5.576-13.87 11.36.731 1.966 4.506 1.813 4.813 3.876.22 1.645-2.004 2.51-2.809 3.973-1.17 2.147 1.463 4.767 4.082 4.656 2.619-.111 4.697-1.882 6.569-3.54 5.618-4.963 11.529-10.33 13.563-17.384.863-2.913 1.17-6.329 3.643-8.28a6.21 6.21 0 0 1 2.561-.982 6.326 6.326 0 0 1 2.752.206 6.11 6.11 0 0 1 2.369 1.35 5.728 5.728 0 0 1 1.491 2.214c2.443-1.296 6.247-2.258 7.506.153.288.907.465 1.842.526 2.788.805 3.764 6.218 5.479 6.76 9.27.658 4.391-5.238 6.65-9.847 7.333-4.169.613-8.339 1.226-12.509 1.882-1.839.127-3.62.672-5.194 1.589a3.874 3.874 0 0 0-1.625 2.048 3.681 3.681 0 0 0 .089 2.566 11.26 11.26 0 0 0 2.165 2.119c3.453 3.303.615 10.106-4.272 10.245-1.668 0-3.306-.529-4.974-.585-4.931-.209-8.866 3.945-11.207 8.085-2.341 4.14-4.111 8.894-8.062 11.724-6.364 4.558-17.322 3.498-20.482 10.496-1.229 2.788-.585 6.008-.088 9.047.497 3.039.717 6.357-1.141 8.852s-6.584 2.997-7.945.237a6.504 6.504 0 0 1-.175-3.917c.731-4.349 1.463-8.712 2.151-13.062.526-3.248.994-6.858-1.01-9.507-2.809-3.708-9.115-3.359-12.758-.39-3.643 2.969-5.135 7.625-6.145 12.072a50.646 50.646 0 0 1-3.526 11.709 169.153 169.153 0 0 0-1.58 11.152 174.718 174.718 0 0 0-.834 11.515 17.64 17.64 0 0 0 1.581-1.394c1.945-1.91 5.852-10.009 9.392-6.036a2.92 2.92 0 0 1 .659 1.84 2.92 2.92 0 0 1-.659 1.84c-1.082 1.324-3.248 1.631-4.082 3.067-1.009 1.7.41 3.819 2.078 4.948 1.668 1.13 3.701 1.854 4.872 3.471 2.268 3.081.102 7.765 2.297 10.915 1.873 2.705 5.852 2.886 9.32 3.234l1.17.182c.966-6.482 4.14-11.738 13.416-13.745 12.787-2.788 29.583 7.332 36.781 16.505 8.032 10.273 11.836 24.813 24.126 29.971 8.778 3.666 21.317 2.341 25.603 10.566 3.834 7.346-2.838 15.627-3.862 23.698-.644 5.395 1.214 10.748 1.639 16.128.424 5.381-1.259 11.724-6.423 13.94-2.926 1.241-6.482 1.088-8.779 3.151-4.096 3.708-.731 11.361-4.842 15.069-1.463 1.296-3.468 1.77-5.223 2.62-9.232 4.447-8.983 17.397-4.697 26.361l.468.948c30.257 17.236 64.85 26.341 100.103 26.346 31.938.042 63.395-7.418 91.587-21.718h.131a203.877 203.877 0 0 0 17.323-9.953 194.132 194.132 0 0 0 24.316-18.415 186.08 186.08 0 0 0 14.996-14.734c3.292-3.611 6.394-7.361 9.364-11.152 1.463-1.98 2.926-3.959 4.389-5.995 10.485-14.716 18.667-30.809 24.286-47.772a174.204 174.204 0 0 0 7.462-31.615c.6-4.182 1.053-8.364 1.361-12.714-2.057 2.053-4.88 3.251-7.857 3.332-4.711-.056-8.588-3.805-10.475-7.946Z" fill="#FAFAFA"/><path d="M265.589 49.78c-3.862 2.202-5.852 6.356-8.91 9.576-3.057 3.22-8.339 5.576-11.865 2.788a7.832 7.832 0 0 1-1.903-2.485 7.483 7.483 0 0 1-.745-2.993 13.414 13.414 0 0 1 2.107-8.532c1.682-2.606 4.243-4.67 5.662-7.416 1.419-2.746 1.141-6.775-1.785-8.057-1.58-.697-3.555-.432-4.96-1.394-2.516-1.77-.717-5.952 2.209-6.97 2.926-1.018 6.174-.237 9.291 0 11.324.697 19.648-6.37 28.163-12.24 6.613-4.557 20.717-9.952 28.369-5.282 3.058 1.854 4.257 6.635 1.375 8.74-1.287.934-3.058 1.143-4.257 2.188-1.463 1.241-1.653 3.304-2.473 4.977-2.136 4.363-8.325 5.952-10.241 10.385-1.2 2.663-.658 5.98-2.502 8.364-1.463 1.826-3.994 2.481-6.35 3.011l-14.762 3.346a22.611 22.611 0 0 0-6.423 1.993Zm131.982 229.06c-4.901 6.97-5.779 15.822-7.14 24.158-1.36 8.336-3.701 17.202-10.417 22.694-6.715 5.492-19.019 5.172-22.779-2.495-2.019-4.182-.981-9.075-2.078-13.536-1.463-5.813-6.291-10.288-8.588-15.85-1.96-4.725-1.975-9.953-2.136-15.041-.878-27.81-7.988-56.833-27.798-77.227-2.443-2.509-5.223-4.949-8.691-5.827a11.649 11.649 0 0 0-6.278.275 11.127 11.127 0 0 0-5.119 3.475c-1.594 2.021-2.414 4.586-4.389 6.287-4.243 3.694-11.704 1.045-14.499-3.722-2.794-4.768-2.443-10.608-1.96-16.073l1.755-20.31c.308-3.541.732-7.333 3.175-10.023 3.468-3.82 9.686-4.001 13.929-6.97 5.559-3.973 6.305-11.542 9.817-17.258 3.511-5.715 14.484-8.14 16.093-1.7 11.617-23.698 37.293 11.5 52.553 8.866 4.389-.781 8.778-2.788 13.168-2.203 7.885 1.046 11.953 9.312 14.63 16.449 4.467 11.849 8.92 23.698 13.358 35.547 1.697 4.516 3.877 9.535 8.573 11.263 3.599 1.325 7.769.321 11.397 1.576 9.583 3.317 6.467 17.675-1.243 24.032-7.71 6.357-18.493 10.274-22.165 19.362-2.766 6.831-.556 14.833-3.526 21.579-2.122 4.824-6.599 8.364-9.642 12.672Zm36.371 7.722c-3.145.419-6.861-1.059-9.261.934-1.39 1.171-1.697 3.081-2.253 4.768-.703 2.383-2.288 4.443-4.462 5.799a6.945 6.945 0 0 1-3.677.972 6.922 6.922 0 0 1-3.638-1.098 4.652 4.652 0 0 1-1.886-3.055 4.532 4.532 0 0 1 .891-3.441 30.964 30.964 0 0 1 2.721-2.119c4.17-3.763 1.317-10.733 4.492-15.208 1.872-2.635 4.813-5.311 6.876-7.988 1.58-2.063 2.165-3.68 5.077-4.181 12.757-2.44 18.493 22.833 5.12 24.617Z" fill="#EBEBEB"/><path opacity=".6" d="M203.512 341.709a192.994 192.994 0 0 0 4.989 3.08 97.885 97.885 0 0 0 3.555 2.064c-1.214-.684-2.385-1.394-3.555-2.064a192.994 192.994 0 0 1-4.989-3.08Zm-86.32-162.316v4.391-3.36c-.059-.348-.029-.683 0-1.031Z" fill="#263238"/><path d="M142.444 236.058c-.614-5.325 1.229-10.664 1.332-16.045 0-3.708-.22-7.625-.278-11.374a55.175 55.175 0 0 1-9.92-1.325 2.977 2.977 0 0 1-1.828-.878 3.383 3.383 0 0 1-.41-1.979c-.234-4.182-4.477-6.97-8.281-9.034a32.279 32.279 0 0 0-6.028-2.788v1.297c.74 20.197 4.941 40.144 12.436 59.049a174.137 174.137 0 0 0 11.953 24.339c1.917 3.388 4.024 6.719 6.218 9.981 2.722 4.043 5.56 7.988 8.618 11.78 3.057 3.791 5.852 7.22 9.056 10.636a190.295 190.295 0 0 0 13.826 13.605 186.006 186.006 0 0 0 13.445 10.887c-10.665-27.266-20.717-55.09-38.946-78.3-4.784-6.12-10.3-12.309-11.193-19.851Z" fill="#EBEBEB"/><path d="m143.892 201.431-1.17-.181c-3.424-.348-7.447-.53-9.335-3.234-2.194-3.15 0-7.834-2.282-10.929-1.185-1.617-3.219-2.328-4.886-3.485-1.668-1.157-3.088-3.234-2.078-4.934.834-1.394 2.926-1.743 4.082-3.067a2.92 2.92 0 0 0 .659-1.84 2.92 2.92 0 0 0-.659-1.84c-3.526-3.973-7.447 4.182-9.393 6.036-.493.498-1.02.964-1.58 1.394v9.521c0 .906 0 2.788.102 3.68a32.661 32.661 0 0 1 6.028 2.788c3.789 2.091 8.032 4.851 8.281 9.033-.074.682.063 1.37.395 1.979a2.98 2.98 0 0 0 1.829.878 55.254 55.254 0 0 0 9.919 1.325" fill="#EBEBEB"/><path d="M143.497 209.015c0 3.75.336 7.667.278 11.375-.103 5.381-1.946 10.719-1.332 16.045.893 7.541 6.394 13.73 11.193 19.794 18.229 23.21 28.281 51.034 38.946 78.315a137.53 137.53 0 0 0 6.028 4.293 192.564 192.564 0 0 0 4.872 3.248 184.765 184.765 0 0 0 4.989 3.081 96.419 96.419 0 0 0 3.555 2.063c-.161-.321-.322-.613-.468-.948-4.301-8.977-4.55-21.928 4.696-26.374 1.756-.865 3.775-1.394 5.224-2.621 4.111-3.722.746-11.375 4.857-15.083 2.312-2.063 5.925-1.91 8.778-3.15 5.165-2.273 6.833-8.573 6.423-13.94-.41-5.367-2.282-10.748-1.639-16.129 1.025-8.169 7.696-16.435 3.863-23.809-4.199-8.28-16.752-6.886-25.56-10.608-12.304-5.158-16.093-19.697-24.14-29.985-7.169-9.187-24.023-19.265-36.81-16.477-9.276 2.007-12.466 7.276-13.417 13.759m-14.614-68.905c3.643-2.983 9.948-3.332 12.757.376 2.019 2.649 1.551 6.273 1.025 9.521-.717 4.349-1.463 8.713-2.166 13.076a6.506 6.506 0 0 0 .19 3.917c1.361 2.788 6.116 2.23 7.945-.237 1.829-2.467 1.638-5.869 1.141-8.866-.497-2.997-1.141-6.217.088-9.047 3.087-6.97 14.06-5.952 20.483-10.511 3.95-2.788 5.72-7.569 8.061-11.723 2.341-4.154 6.276-8.364 11.222-8.099 1.667 0 3.306.655 4.974.585 4.887-.139 7.725-6.97 4.272-10.246a12.12 12.12 0 0 1-2.165-2.118 3.702 3.702 0 0 1-.087-2.572 3.903 3.903 0 0 1 1.623-2.056 12.113 12.113 0 0 1 5.194-1.59l12.524-1.882c4.608-.682 10.504-2.94 9.86-7.332-.555-3.805-5.969-5.576-6.773-9.27a11.696 11.696 0 0 0-.527-2.788c-1.258-2.411-5.062-1.394-7.506-.153-.31-.84-.821-1.6-1.491-2.22a6.114 6.114 0 0 0-2.374-1.353 6.33 6.33 0 0 0-2.758-.204 6.213 6.213 0 0 0-2.565.989c-2.472 1.937-2.779 5.353-3.643 8.266-2.033 7.068-7.944 12.435-13.562 17.411-1.887 1.645-4.023 3.415-6.584 3.527-2.56.111-5.252-2.495-4.082-4.642.805-1.478 3.029-2.328 2.809-3.987-.307-2.05-4.082-1.91-4.813-3.875 1.463-5.841 8.486-8.253 13.87-11.375 6.593-3.815 11.605-9.678 14.191-16.603a4.085 4.085 0 0 0 .19-3.43c-.804-1.393-2.926-1.7-4.637-1.7-4.155 0-9.305.474-10.827 4.183-.805 1.965-.219 4.181-.702 6.273-1.463 6.12-10.242 6.802-15.64 10.454-2.107 1.394-3.746 3.388-6.072 4.475-2.326 1.087-5.428 1.06-8.208 1.269-.497 0-.995.083-1.463.139a172.45 172.45 0 0 0-9.48 13.996 179.354 179.354 0 0 0-17.016 36.02c-1.463 4.391-2.926 8.88-4.008 13.411-1.083 4.53-2.151 9.158-2.927 13.828a50.039 50.039 0 0 0 3.526-11.723c.995-4.489 2.502-9.145 6.131-12.114Zm377.304 66.437s-4.916 3.415-7.842 3.36c-4.696 0-8.573-3.806-10.446-7.932-1.873-4.126-2.355-8.685-3.628-13.006-.673-2.328-1.814-4.809-4.111-5.841a40.01 40.01 0 0 0-4.902-1.059c-5.852-1.645-7.315-9.326-12.831-11.724a20.018 20.018 0 0 0-5.501-1.087c-7.315-.823-14.908-3.234-19.502-8.713a34.285 34.285 0 0 0-4.521-5.297c-1.887-1.394-4.784-2.063-6.613-.599 1.551 2.955 3.058 5.896 4.579 8.81a23.15 23.15 0 0 0 5.121 7.332c2.356 1.98 5.852 3.011 8.632 1.771a5.876 5.876 0 0 1 2.926-.976 3.06 3.06 0 0 1 1.888 1.157c3.994 4.182 2.692 11.152-1.2 15.487-3.892 4.335-9.612 6.51-15.143 8.601a12.273 12.273 0 0 1-6.188 1.143c-3.834-.683-5.853-4.656-6.979-8.211-2.502-7.903-3.716-16.463-8.779-23.126-1.638-2.091-3.686-4.001-4.667-6.44-1.053-2.663-.804-5.743-2.487-8.071-1.682-2.328-5.399-3.862-5.647-6.803-.161-2.063 1.638-3.889 3.614-4.781 1.975-.892 4.198-1.171 6.247-1.966.804-.32 1.697-.892 1.726-1.714 0-1.227-1.785-1.729-2.253-2.886-.468-1.157.893-2.495 1.463-3.764 1.273-2.885-1.887-5.799-4.945-6.97-3.058-1.171-6.701-2.035-8.12-4.851a15.795 15.795 0 0 1-.995-4.182c-.717-3.555-3.467-6.97-7.227-7.597-3.76-.627-8.003 2.621-7.389 6.217.366 1.98 1.917 3.513 2.751 5.339.834 1.826.614 4.531-1.361 5.116-3.248.948-6.364-4.712-9.085-2.788 1.112 3.611 2.194 7.235 3.306 10.887-4.272 2.063-9.363-1.673-11.192-5.91-1.829-4.238-1.888-9.047-4.053-13.118-2.165-4.07-8.003-7.123-11.704-4.182-.191 5.242 7.066 7.36 10.241 11.612 2.326 3.053 1.975 8.03-1.463 9.981-3.438 1.952-8.778-1.394-7.52-5.004.468-1.241 1.551-2.273 1.668-3.597.131-1.645-1.317-2.969-2.648-4.042l-6.218-4.977a13.281 13.281 0 0 0-4.389-2.649c-4.273-1.17-8.53 2.119-10.783 5.744-2.253 3.624-3.526 7.932-6.657 10.957-4.477 4.418-12.977 4.683-17.176 0-4.199-4.684-2.078-13.271 4.14-14.958 2.341-.613 5.311-.558 6.555-2.523 2.165-3.513-4.024-7.988-1.888-11.529 1.639-2.704 5.97-1.393 9.115-2.383 3.146-.99 4.887-3.917 6.745-6.51 1.858-2.593 4.696-5.144 7.915-4.475a8.995 8.995 0 0 1 .336-5.353c.834-1.645 3.175-2.788 4.726-1.645-1.58 2.468.307 5.91 3.058 7.151 2.75 1.241 5.969.934 8.998.614 3.028-.32 6.832-1.394 7.081-4.294a9.582 9.582 0 0 1 .088-2.788c1.331-3.443 8.002 1.297 10.577-1.477 1.463-1.394-.16-4.001-2.223-4.475-2.063-.474-4.185.237-6.277.293-2.092.056-4.667-.962-4.769-2.97-.103-2.007 2.223-3.387 2.472-5.325.41-3.303-5.472-4.181-7.535-1.477-2.063 2.704-1.331 6.356-.716 9.632.614 3.276.965 7.124-1.581 9.424-1.068 1.561-3.891.739-4.813-.92-.922-1.66-.732-3.736-.907-5.576a4.53 4.53 0 0 0-.609-1.897 4.75 4.75 0 0 0-1.378-1.487 5.03 5.03 0 0 0-1.9-.81 5.153 5.153 0 0 0-2.082.012c-.352.083-.717.153-1.068.209-5.384.613-9.115-6.008-7.418-10.901s6.554-8.071 11.28-10.567c3.467-1.826 7.754-3.54 11.192-1.686 1.61.85 2.722 2.328 4.287 3.206 2.721 1.533 6.101.976 9.217 1.032 4.949.138 9.697 1.895 13.446 4.976 1.39 1.213 2.692 3.22 1.609 4.656-1.083 1.436-4.55 1.854-3.95 3.652a6.987 6.987 0 0 0 2.795.16 6.89 6.89 0 0 0 2.619-.943 6.538 6.538 0 0 0 1.983-1.883 6.181 6.181 0 0 0 1.001-2.492 5.569 5.569 0 0 1 2.206 1.77c.562.763.906 1.652.998 2.58a10.14 10.14 0 0 1 3.521-1.982 10.487 10.487 0 0 1 4.059-.477 10.39 10.39 0 0 1 3.921 1.108 9.913 9.913 0 0 1 3.129 2.508 12.232 12.232 0 0 0 2.707 3.317c1.244.767 3.409.39 3.555-1.003a2.542 2.542 0 0 0-.248-1.297c-.732-1.993-1.463-3.973-2.253-5.938 2.926-1.478 6.276.822 8.222 3.29 7.242 9.228 12.392 3.68 22.604 5.185 6.891 1.004 9.919 5.214 13.811 10.316 11.924 15.668 27.696 28.507 38.537 44.872a74.637 74.637 0 0 1 3.189 5.214c.917 2.351 1.79 4.726 2.619 7.123a174.98 174.98 0 0 1 2.327 7.221 156.779 156.779 0 0 1 4.681 18.275s1.361 10.525 1.683 13.94c.249 2.635.497 5.256.644 7.904.146 2.649.234 5.297.263 7.974l-.293 14.776Z" fill="#EBEBEB"/><path d="M508.295 187.143s0-1.031-.117-3.025c0-1.004-.073-2.258-.117-3.736-.044-1.477 0-3.206-.278-5.158l-.542-6.523c-.248-2.398-.658-5.019-1.024-7.849-.834-5.659-2.136-12.141-3.979-19.348a180.076 180.076 0 0 0-8.047-23.461 176.267 176.267 0 0 0-13.636-26.305c-12.905-20.526-29.786-38.53-49.743-53.055-24.258-17.584-52.496-29.518-82.458-34.85a208.283 208.283 0 0 0-76.723.837 217.325 217.325 0 0 0-26.217 7.095c-17.723 6.162-34.426 14.716-49.598 25.399a213.839 213.839 0 0 0-22.092 18.121 205.486 205.486 0 0 0-19.342 21.496 183.095 183.095 0 0 0-15.947 24.478c-1.126 2.175-2.399 4.294-3.423 6.524a400.395 400.395 0 0 1-3.161 6.663c-1.887 4.545-3.833 9.089-5.398 13.787a174.195 174.195 0 0 0-7.447 28.856 191.51 191.51 0 0 0-2.575 30.012 193.526 193.526 0 0 0 2.56 30.027 175.78 175.78 0 0 0 7.447 28.855l1.244 3.499.629 1.743.702 1.714a327.669 327.669 0 0 1 2.824 6.831 58.888 58.888 0 0 0 3.175 6.677c1.009 2.231 2.282 4.349 3.409 6.524a180.838 180.838 0 0 0 15.961 24.479 204.177 204.177 0 0 0 19.342 21.523 210.714 210.714 0 0 0 22.107 18.122 204.561 204.561 0 0 0 24.111 14.553 211.432 211.432 0 0 0 25.472 10.873 217.146 217.146 0 0 0 26.174 7.109 208.386 208.386 0 0 0 76.737.837c29.955-5.337 58.187-17.271 82.443-34.85 19.96-14.522 36.841-32.526 49.744-53.055a177.042 177.042 0 0 0 13.635-26.305 181.88 181.88 0 0 0 8.091-23.544c1.843-7.207 3.145-13.689 3.979-19.335.366-2.788.776-5.451 1.024-7.848.249-2.398.381-4.586.542-6.538.161-1.952.249-3.666.278-5.144.029-1.477.088-2.788.117-3.736 0-1.993.117-3.025.117-3.025v3.025c0 1.004 0 2.259-.088 3.736-.088 1.478 0 3.206-.234 5.158-.234 1.952-.322 4.182-.512 6.538s-.629 5.018-.995 7.862a183.176 183.176 0 0 1-3.921 19.376c-4.622 17.56-11.891 34.388-21.58 49.961-12.882 20.598-29.764 38.67-49.744 53.25-24.3 17.681-52.611 29.688-82.662 35.059a209.462 209.462 0 0 1-77.001-.78c-18.097-3.614-35.558-9.679-51.85-18.011a207.124 207.124 0 0 1-24.214-14.595 211.937 211.937 0 0 1-22.18-18.191 205.707 205.707 0 0 1-19.429-21.579 183.867 183.867 0 0 1-16.02-24.59c-1.127-2.175-2.414-4.294-3.424-6.538l-3.175-6.691a342.712 342.712 0 0 1-2.838-6.859l-.717-1.728-.629-1.757-1.244-3.499a175.894 175.894 0 0 1-7.476-28.981 193.238 193.238 0 0 1-2.575-30.138 193.06 193.06 0 0 1 2.575-30.124 174.936 174.936 0 0 1 7.491-28.967c1.565-4.726 3.526-9.284 5.428-13.842l3.175-6.692c1.009-2.244 2.297-4.363 3.423-6.537A183.625 183.625 0 0 1 153.9 76.377a205.456 205.456 0 0 1 19.429-21.58 213.643 213.643 0 0 1 22.165-18.191c15.207-10.728 31.962-19.306 49.744-25.468 8.605-2.92 17.403-5.3 26.335-7.123a209.402 209.402 0 0 1 76.986-.781c30.047 5.374 58.357 17.376 82.662 35.045 19.976 14.583 36.858 32.655 49.744 53.25a175.3 175.3 0 0 1 13.606 26.388 178.294 178.294 0 0 1 7.989 23.517 182.945 182.945 0 0 1 3.921 19.391c.365 2.788.76 5.45.995 7.862.234 2.411.351 4.586.512 6.537.161 1.952.204 3.667.234 5.158.029 1.492 0 2.788.088 3.736-.015 1.994-.015 3.025-.015 3.025Z" fill="#263238"/><path d="m274.688 116.775-1.098-49.487-17.703 8.67-7.491 29.762 26.292 11.055Zm-20.265 22.61-18.508 8.852-6.993-.781 12.202-9.158 11.997-2.286 1.302 3.373Z" fill="#263238"/><path d="m128.47 109.61-69.525 51.438 78.23-47.995-8.705-3.443Z" fill="#E0E0E0"/><path d="M171.893 123.494c-1.068.501-101.872 38.725-101.872 38.725l-11.076-1.171 76.533-51.801 36.415 14.247Z" fill="#263238"/><path d="m142.45 132.087 8.454 3.284c1.511.587 3.236-.105 3.852-1.545l.05-.116c.616-1.44-.11-3.083-1.621-3.67l-8.454-3.284c-1.511-.587-3.236.104-3.852 1.544l-.05.116c-.616 1.441.11 3.084 1.621 3.671Zm-48.23 21.914 8.453 3.283c1.512.587 3.237-.104 3.853-1.544l.05-.116c.616-1.44-.11-3.084-1.621-3.671l-8.454-3.284c-1.512-.587-3.237.105-3.853 1.545l-.05.116c-.616 1.44.11 3.083 1.622 3.671Z" fill="#455A64"/><path d="M107.766 115.729s30.344 3.987 26.101 19.154c-4.243 15.166-34.177-.809-34.177-.809s-4.389-2.425-2.736-10.51c1.654-8.086 10.812-7.835 10.812-7.835Z" fill="#5E18EB"/><path d="M99.515 123.062a9.833 9.833 0 0 1 3.234-5.005 4.905 4.905 0 0 1 2.888-1.061 4.938 4.938 0 0 1 2.964.852l.834.516a7.982 7.982 0 0 1 2.135 3.988 7.743 7.743 0 0 1-.409 4.459c.103-.306.205-.613.322-.92-.614 3.109-2.437 5.883-5.106 7.765a4.854 4.854 0 0 1-2.399 1.004 4.225 4.225 0 0 1-1.64-.298 4.049 4.049 0 0 1-1.374-.901c-1.365-1.335-2.166-3.101-2.253-4.963a13.878 13.878 0 0 1 .804-5.436Z" fill="#263238"/><path d="M290.634 123.522s12.392 11.793-11.177 14.678c-23.57 2.886-64.375 1.394-110.256-13.535-45.881-14.93-86.788-35.951-93.943-41.444-5.31-4.07-13.825-11.054-10.782-21.049a16.929 16.929 0 0 1 4.23-6.799 18.05 18.05 0 0 1 6.991-4.255 55.408 55.408 0 0 1 31.631-1.854c20.483 5.171 183.306 74.258 183.306 74.258Z" fill="#fff"/><path d="M290.635 123.522s-.425-.154-1.229-.488l-3.585-1.478-13.782-5.743-50.68-21.105c-21.419-8.852-46.935-19.404-75.42-30.752-7.125-2.788-14.426-5.701-21.946-8.53a1407.89 1407.89 0 0 0-11.427-4.183c-1.96-.585-3.906-1.254-5.852-1.784a49.041 49.041 0 0 0-6.145-1.032 56.617 56.617 0 0 0-25.003 3.067c-4.048 1.446-7.413 4.232-9.48 7.848a13.857 13.857 0 0 0-1.799 5.877 13.74 13.74 0 0 0 .935 6.056c1.764 3.819 4.481 7.169 7.915 9.758 3.327 2.665 6.93 5 10.754 6.97 7.49 4.182 15.098 7.848 22.633 11.375 15.084 6.97 29.963 13.173 44.345 18.484a372.449 372.449 0 0 0 41.595 13.09 294.68 294.68 0 0 0 37.498 6.635 244.482 244.482 0 0 0 31.411 1.589c4.624 0 8.94-.293 12.89-.599a74.655 74.655 0 0 0 10.724-1.478c2.835-.501 5.448-1.797 7.506-3.722a5.141 5.141 0 0 0 1.287-2.955 6.401 6.401 0 0 0-.424-2.663 11.998 11.998 0 0 0-1.873-3.22c-.541-.669-.848-.989-.848-.989.33.285.634.598.907.934a11.49 11.49 0 0 1 1.96 3.234 6.53 6.53 0 0 1 .468 2.788 5.34 5.34 0 0 1-1.302 3.08c-1.638 1.91-4.477 3.039-7.608 3.862a73.331 73.331 0 0 1-10.768 1.547c-3.95.321-8.266.613-12.919.669a247.232 247.232 0 0 1-31.484-1.491 292.86 292.86 0 0 1-37.572-6.566 371.412 371.412 0 0 1-41.697-12.95 594.677 594.677 0 0 1-44.418-18.471c-7.564-3.527-15.172-7.262-22.706-11.403a64.425 64.425 0 0 1-10.856-7.067c-3.541-2.664-6.336-6.122-8.135-10.065a14.46 14.46 0 0 1-.981-6.367c.156-2.165.8-4.272 1.888-6.179 2.154-3.774 5.666-6.68 9.89-8.182a57.413 57.413 0 0 1 25.341-3.137 51.4 51.4 0 0 1 6.218 1.087c2.019.544 3.979 1.213 5.954 1.799 3.848 1.394 7.71 2.788 11.441 4.182 7.52 2.788 14.821 5.729 21.946 8.559 28.471 11.375 53.957 21.97 75.347 30.905l50.607 21.3 13.724 5.868 3.555 1.534 1.2.502Z" fill="#263238"/><path d="M251.791 111.115v4.614l-33.299-13.675 5.121-2.648 28.178 11.709Z" fill="#263238"/><path d="M248.864 108.648v7.569l-2.926-1.213v-7.75l2.926 1.394Zm-5.852-3.332v7.569l-2.926-1.212v-7.751l2.926 1.394Zm-5.852-2.342v7.584l-2.926-1.213v-7.765l2.926 1.394Zm-13.168-4.837v7.57l-2.926-1.199v-7.765l2.926 1.394Z" fill="#fff"/><path d="M353.706 32.048 210.97 106.069 178.871 91.39l157.703-60.653 17.132 1.31Z" fill="#263238"/><path d="m184.899 79.36 151.675-48.623L178.871 91.39" fill="#fff"/><path d="M178.871 91.39s.249-.125.776-.334l2.296-.92 8.896-3.5 32.758-12.713 108.134-41.722 4.667-1.784.263.67-107.432 34.347-32.436 10.274-8.778 2.788-2.297.697c-.512.153-.79.209-.79.209l.776-.279 2.267-.767 8.779-2.885 32.348-10.483L336.5 30.445l.264.683-4.667 1.798L223.831 74.44l-32.846 12.546-8.954 3.374-2.326.85a8.753 8.753 0 0 1-.834.181Z" fill="#263238"/><path d="m278.439 67.2 7.345 5.166c1.314.923 3.164.658 4.133-.594l.078-.1c.97-1.252.691-3.015-.623-3.938l-7.345-5.166c-1.313-.923-3.164-.658-4.133.594l-.078.1c-.969 1.252-.69 3.015.623 3.938Z" fill="#455A64"/><path d="M337.438 102.891c-.482.306-45.354 22.303-45.354 22.303l-9.803-5.241 42.999-17.704 12.158.642Z" fill="#263238"/><path d="M324.446 101.748h-3.087l-44.375 15.487 5.267 2.216 42.195-17.703Z" fill="#fff"/><path d="m179.809 81.298-4.17 2.997-66.686-27.155.761-4.475 70.095 28.633Z" fill="#263238"/><path d="M175.711 77.854v7.584l-2.926-1.213V76.46l2.926 1.394Zm-5.851-2.941v7.583l-2.926-1.212v-7.765l2.926 1.394Zm-7.315-2.941v7.583l-2.926-1.213v-7.764l2.926 1.394Zm-7.316-2.942v7.584l-2.926-1.213v-7.764l2.926 1.394Zm-5.852-2.94v7.583l-2.926-1.213v-7.765l2.926 1.394Zm-7.316-2.928v7.57l-2.926-1.214v-7.75l2.926 1.394Zm-7.315-2.426v7.584l-2.926-1.213v-7.765l2.926 1.394Zm95.098 39.813v7.583l-2.926-1.213v-7.764l2.926 1.394ZM128.895 57.976v7.584l-2.926-1.213v-7.765l2.926 1.394Zm-7.317-2.593v7.584l-2.926-1.213v-7.765l2.926 1.394Zm-7.314-2.593v7.57l-2.926-1.199v-7.764l2.926 1.394Z" fill="#fff"/><path d="M93.956 53.264S82.56 50.1 75.697 51.118a28.628 28.628 0 0 1 6.525-1.896s4.302-1.478 12.86.71l-1.126 3.332Z" fill="#263238"/><path d="m228.922 147.456 8.5-8.907 4.082.307-12.582 8.6Z" fill="#E0E0E0"/><path d="m228.66 147.68.234-.237 8.515-8.922 4.185.307h-.088l-12.846 8.852Zm8.778-9.089-8.251 8.656 12.202-8.364-3.951-.292Z" fill="#263238"/><path d="m248.593 82.385 7.346 5.165c1.313.924 3.163.658 4.132-.593l.079-.101c.969-1.252.69-3.015-.623-3.938l-7.346-5.166c-1.313-.923-3.163-.657-4.132.594l-.079.1c-.969 1.252-.69 3.015.623 3.939Zm61.451-31.36 7.346 5.165c1.313.924 3.163.658 4.133-.593l.078-.101c.969-1.251.69-3.014-.623-3.938l-7.345-5.165c-1.314-.924-3.164-.658-4.133.593l-.078.101c-.97 1.251-.691 3.014.622 3.938Z" fill="#455A64"/><path d="M222.134 64.124s29.262 8.796 22.341 23.056c-6.92 14.261-33.548-6.273-33.548-6.273s-3.935-3.108-.833-10.803c3.101-7.695 12.04-5.98 12.04-5.98Z" fill="#5E18EB"/><path d="M212.698 70.02a10.273 10.273 0 0 1 4.067-4.405 4.968 4.968 0 0 1 2.996-.56 4.862 4.862 0 0 1 2.739 1.285l.746.641a7.854 7.854 0 0 1 1.398 4.273 7.818 7.818 0 0 1-1.193 4.328l.468-.85c-1.145 2.967-3.43 5.409-6.393 6.83a5.126 5.126 0 0 1-2.546.614 4.286 4.286 0 0 1-1.555-.569 4.08 4.08 0 0 1-1.196-1.104 7.299 7.299 0 0 1-1.346-5.255c.253-1.836.868-3.61 1.815-5.228Z" fill="#263238"/><path opacity=".1" d="M85.398 70.3c4.111-1.102 7.813.975 11.222 2.927 53.591 30.779 113.576 55.355 176.093 55.216a3.621 3.621 0 0 1 1.966.561c.581.37 1.033.898 1.296 1.516a3.199 3.199 0 0 1-.287 3.091 3.443 3.443 0 0 1-1.216 1.1 3.66 3.66 0 0 1-1.613.437c-67.28 2.7-133.501-16.639-187.636-54.798-2.02-1.394-4.185-3.15-3.848-5.813a5.059 5.059 0 0 1 1.34-2.698 5.468 5.468 0 0 1 2.683-1.54Z" fill="#000"/><path d="M181.244 221.659a13.222 13.222 0 0 0-1.487-6.105 13.931 13.931 0 0 0-4.176-4.844 14.803 14.803 0 0 0-5.996-2.576c-2.18-.407-4.43-.33-6.574.226a14.668 14.668 0 0 0-5.787 2.98 13.797 13.797 0 0 0-3.799 5.116 13.183 13.183 0 0 0-1.023 6.191 13.305 13.305 0 0 0 1.966 5.982c.556.892 1.243 1.533 1.946 2.467l8.383 10.566c.241.309.554.56.915.732a2.691 2.691 0 0 0 2.325 0 2.55 2.55 0 0 0 .915-.732l8.252-10.399a28.85 28.85 0 0 0 2.092-2.648 13.234 13.234 0 0 0 2.048-6.956Zm-14.44 5.687a6.574 6.574 0 0 1-3.528-1.02 6.12 6.12 0 0 1-2.339-2.715 5.788 5.788 0 0 1-.361-3.495 5.967 5.967 0 0 1 1.738-3.098 6.457 6.457 0 0 1 3.251-1.656 6.647 6.647 0 0 1 3.669.345 6.294 6.294 0 0 1 2.849 2.228 5.848 5.848 0 0 1 1.07 3.361c0 1.605-.669 3.144-1.86 4.278-1.19 1.135-2.805 1.772-4.489 1.772Zm339.763-127.062c0-20.562-21.316-36.383-44.052-28.466-6.759 2.342-14.631 9.563-17.396 15.92a29.717 29.717 0 0 0-2.633 14.195 29.943 29.943 0 0 0 4.389 13.796l.102.112c1.229 1.965 2.765 3.387 4.316 5.45l18.625 23.503a5.814 5.814 0 0 0 2.049 1.589 6.094 6.094 0 0 0 2.574.568 6.09 6.09 0 0 0 2.574-.568 5.814 5.814 0 0 0 2.049-1.589l18.303-23.112a65.725 65.725 0 0 0 4.653-5.883l.073-.07c2.878-4.684 4.389-10.017 4.374-15.445Zm-32.055 13.494a14.626 14.626 0 0 1-7.848-2.261c-2.324-1.476-4.135-3.576-5.206-6.034a12.863 12.863 0 0 1-.81-7.773c.543-2.61 1.887-5.009 3.861-6.891 1.974-1.883 4.489-3.166 7.228-3.686a14.78 14.78 0 0 1 8.16.763c2.58 1.018 4.786 2.742 6.338 4.955a13.006 13.006 0 0 1 2.381 7.475c-.008 3.56-1.497 6.972-4.141 9.489-2.643 2.516-6.226 3.931-9.963 3.935v.028ZM70.05 341.667l18.318 34.892 81.126 64.96 19.942-24.744-79.649-63.342-39.736-11.766Z" fill="#5E18EB"/><path opacity=".7" d="M109.787 353.433a2.22 2.22 0 0 1-.251 1.017 2.34 2.34 0 0 1-.697.808 2.47 2.47 0 0 1-.998.434c-.363.07-.738.06-1.097-.029a6.748 6.748 0 0 1 1.357 4.028 6.748 6.748 0 0 1-1.338 4.034 7.289 7.289 0 0 1-3.54 2.553 7.67 7.67 0 0 1-4.438.133 7.728 7.728 0 0 1-.009 4.225 8.024 8.024 0 0 1-2.241 3.646 8.613 8.613 0 0 1-3.864 2.074 8.903 8.903 0 0 1-4.434-.062L70.05 341.667l39.736 11.766Z" fill="#fff"/><path d="M77.425 355.705s7.725 1.254 8.91-9.215l-16.284-4.823 7.374 14.038Z" fill="#5E18EB"/><path opacity=".3" d="m98.785 366.411 79.883 62.994-9.174 12.114-81.126-64.96-.132-.265a8.61 8.61 0 0 0 3.731.195 8.955 8.955 0 0 0 4.39-2.049c1.497-1.305 2.448-3.083 2.677-5.004a7.81 7.81 0 0 0-.25-3.025Zm7.959-10.748 80.146 64.291 2.561-3.179-79.664-63.343a2.402 2.402 0 0 1-.756 1.617 2.635 2.635 0 0 1-1.702.711 3.204 3.204 0 0 1-.585-.097Z" fill="#000"/><path d="M89.963 364.668s0 .167.365.237a.951.951 0 0 0 .63-.093.88.88 0 0 0 .409-.465 3.18 3.18 0 0 0-.102-1.965 1.998 1.998 0 0 0-.717-.99 1.5 1.5 0 0 0-.646-.263 1.537 1.537 0 0 0-.7.054 1.852 1.852 0 0 0-.614.451c-.168.19-.293.411-.366.65a5.981 5.981 0 0 0-.308 1.645 8.448 8.448 0 0 0 .556 3.639c.104.31.276.595.506.835.23.241.511.431.826.559.34.093.698.104 1.043.031s.666-.228.932-.45a5.372 5.372 0 0 0 1.19-1.83 5.182 5.182 0 0 0 .346-2.129 7.466 7.466 0 0 0-1.084-4.046 7.971 7.971 0 0 0-3.13-2.924 2.213 2.213 0 0 0-1.858 0 3.81 3.81 0 0 0-1.346 1.213 10.378 10.378 0 0 0-1.463 2.942 11.377 11.377 0 0 0-.395 4.642c.054.426.132.85.234 1.268.04.142.07.286.088.432a8.305 8.305 0 0 1-.41-1.686 10.95 10.95 0 0 1 .337-4.698c.315-1.068.809-2.08 1.463-2.997a3.994 3.994 0 0 1 1.39-1.283 2.436 2.436 0 0 1 2.048 0 8.162 8.162 0 0 1 3.252 2.986 7.645 7.645 0 0 1 1.137 4.165 7.25 7.25 0 0 1-.395 2.245 3.874 3.874 0 0 1-1.243 1.882c-.296.242-.65.41-1.03.488a2.444 2.444 0 0 1-1.15-.042 2.587 2.587 0 0 1-.902-.594 2.44 2.44 0 0 1-.561-.898 8.918 8.918 0 0 1-.542-3.736 5.887 5.887 0 0 1 .337-1.687c.083-.26.223-.501.409-.707a2.04 2.04 0 0 1 .673-.491 1.613 1.613 0 0 1 1.463.251c.37.266.641.637.776 1.059a3.234 3.234 0 0 1 0 2.035.92.92 0 0 1-.448.493.995.995 0 0 1-.679.079.507.507 0 0 1-.322-.307Z" fill="#fff"/><path d="M93.255 348.888s-.176.404-.337 1.185a8.22 8.22 0 0 0 .117 3.332 20.545 20.545 0 0 0 1.83 4.656 17.685 17.685 0 0 1 2.047 5.827 10.05 10.05 0 0 1-1.214 5.98 10.557 10.557 0 0 1-3.511 3.722 11.385 11.385 0 0 1-3.233 1.394 6.67 6.67 0 0 1-1.288.223l.337-.07.863-.237a11.5 11.5 0 0 0 3.16-1.394 10.438 10.438 0 0 0 3.424-3.68 10.102 10.102 0 0 0 1.184-5.883 18.295 18.295 0 0 0-1.916-5.771 20.194 20.194 0 0 1-1.8-4.712 7.975 7.975 0 0 1 0-3.373 4.55 4.55 0 0 1 .337-1.199Zm9.187 2.23a3.296 3.296 0 0 0-1.463 1.785 17.162 17.162 0 0 0-.512 5.576c.064 1.9.314 3.79.746 5.645.161.711.322 1.283.424 1.687.072.2.126.405.161.613a3.957 3.957 0 0 1-.248-.599c-.132-.39-.308-.948-.498-1.659a27.711 27.711 0 0 1-.819-5.673 27.164 27.164 0 0 1 .088-3.151 8.86 8.86 0 0 1 .497-2.537 3.242 3.242 0 0 1 1.068-1.394 1.91 1.91 0 0 1 .556-.293Zm3.497 13.564a5.543 5.543 0 0 1-.586-1.157 6.688 6.688 0 0 1-.614-3.053 3.47 3.47 0 0 1 .398-1.553 3.645 3.645 0 0 1 1.065-1.235 2.85 2.85 0 0 1 .907-.418c.121-.018.245-.018.366 0-.42.136-.815.334-1.171.586a3.609 3.609 0 0 0-.968 1.18 3.447 3.447 0 0 0-.378 1.454 7.73 7.73 0 0 0 .542 2.983c.171.396.318.801.439 1.213Zm-17.98-17.787.087.167c.082.162.15.33.205.502.115.265.175.549.176.836a2.412 2.412 0 0 1-.351 1.088 28.119 28.119 0 0 1-1.624 2.453 20.939 20.939 0 0 0-1.697 3.136 39.35 39.35 0 0 0-1.975 6.134c-.176.697-.322 1.324-.469 1.91-.146.585-.175.697-.19.697 0-.241.034-.48.103-.711.087-.46.219-1.115.41-1.924a33.499 33.499 0 0 1 1.916-6.189 19.447 19.447 0 0 1 1.726-3.164c.63-.921 1.273-1.687 1.668-2.412a1.972 1.972 0 0 0 .22-1.826c-.132-.446-.22-.683-.205-.697Z" fill="#fff"/><path d="m128.248 286.902 70.185-34.073a12.954 12.954 0 0 1 9.456-.71c3.125.968 5.719 3.079 7.212 5.869l46.215 86.423c1.492 2.79 1.76 6.03.745 9.008-1.016 2.979-3.232 5.45-6.16 6.872l-70.185 34.073-57.468-107.462Z" fill="#455A64"/><path d="M216.589 337.875a19.052 19.052 0 0 1-4.009 2.607 19.536 19.536 0 0 1-7.332 1.922 19.677 19.677 0 0 1-7.532-1.002c-4.994-1.67-9.115-5.117-11.5-9.618-2.456-4.4-2.983-9.547-1.463-14.316 1.519-4.768 4.96-8.769 9.568-11.125a19.712 19.712 0 0 1 14.88-.906c4.975 1.69 9.084 5.13 11.484 9.614 2.399 4.484 2.907 9.673 1.42 14.502-1.008 3.202-2.915 6.079-5.516 8.322Zm-25.311-27.949c-2.998 2.652-4.997 6.171-5.687 10.013a17.005 17.005 0 0 0 1.869 11.245c2.215 4.198 6.055 7.412 10.709 8.964a18.244 18.244 0 0 0 13.785-.841 17.306 17.306 0 0 0 5.507-4.198 16.358 16.358 0 0 0 3.312-5.932c1.413-4.501.936-9.349-1.331-13.522-2.209-4.2-6.043-7.419-10.695-8.977a18.369 18.369 0 0 0-13.782.85 17.223 17.223 0 0 0-3.687 2.398Z" fill="#fff"/><path d="m219.501 314.35-33.45 16.239.631 1.18 33.45-16.239-.631-1.18Z" fill="#fff"/><path d="m194.819 306.883-1.239.601 17.602 32.93 1.239-.601-17.602-32.93Z" fill="#fff"/><path d="m212.362 340.287-1.302-.446a32.694 32.694 0 0 0 2.531-13.522c-.416-4.934-2.656-9.567-6.321-13.075-3.526-3.165-8.529-4.503-12.948-5.674l.381-1.282c4.564 1.226 9.744 2.592 13.533 5.994 3.935 3.722 6.33 8.671 6.745 13.94a34.651 34.651 0 0 1-2.619 14.065Z" fill="#fff"/><path d="M211.645 340.761c-4.975-.866-9.67-2.828-13.708-5.729-4.235-3.428-7.034-8.193-7.886-13.424-.659-4.893 1.463-10.191 3.072-14.456l1.302.46c-1.609 4.182-3.599 9.256-2.999 13.828.832 4.885 3.455 9.331 7.403 12.546 3.879 2.779 8.39 4.651 13.168 5.465l-.352 1.31Z" fill="#fff"/><path d="M207.957 311.222c-6.498 5.518-14.661 8.933-23.321 9.758l-.132-1.31c10.244-1.007 19.682-5.752 26.335-13.243l1.053.85a37.481 37.481 0 0 1-3.935 3.945Zm14.192 15.961c-11.339 1.074-21.288 5.576-27.286 12.393l-1.068-.85c6.262-7.04 16.503-11.752 28.208-12.853l.146 1.31Z" fill="#fff"/><path d="M191.819 391.628c-.088 0-12.977-23.893-28.793-53.46-15.815-29.566-28.573-53.585-28.471-53.627.103-.042 12.978 23.893 28.793 53.46 15.816 29.566 28.559 53.627 28.471 53.627Z" fill="#263238"/><path d="M245.192 349.947c0 .084-9.685 4.893-21.726 10.734-12.041 5.841-21.843 10.525-21.946 10.441-.102-.084 9.686-4.893 21.727-10.748 12.041-5.854 21.887-10.566 21.945-10.427Zm-3.276 6.552c0 .098-7.169 3.68-16.094 8.015-8.925 4.336-16.225 7.793-16.269 7.695-.044-.097 7.169-3.666 16.094-8.001 8.924-4.336 16.225-7.793 16.269-7.709Zm-75.407-61.377c.17.288.272.607.3.936.027.33-.021.661-.14.971-.12.31-.308.591-.553.825-.245.234-.54.415-.865.529l-.936.447.79 1.505-1.463.739-3.087-5.729 2.443-1.185c.29-.181.618-.3.961-.349a2.537 2.537 0 0 1 1.026.064c.333.091.641.25.905.465.263.215.474.482.619.782Zm-1.463.738a.88.88 0 0 0-.242-.35.945.945 0 0 0-.826-.212.924.924 0 0 0-.395.186l-.848.404.892 1.673.849-.404a.932.932 0 0 0 .345-.21.84.84 0 0 0 .123-1.087h.102Zm6.862-.223-2.283 1.102.176 1.31-1.551.753-.688-6.873 1.464-.724 5.427 4.572-1.58.767-.965-.907Zm-1.083-.975-1.668-1.506.278 2.175 1.39-.669Zm3.454.571-.132-1.394a3.77 3.77 0 0 0 2.063-.293c.629-.306.775-.613.629-.892-.483-.906-3.189 1.241-4.316-.892-.556-1.018-.219-2.23 1.375-3.011a4.414 4.414 0 0 1 2.224-.446l.176 1.394a3.509 3.509 0 0 0-1.727.279c-.643.306-.746.655-.599.934.468.878 3.174-1.255 4.301.85.527 1.004.205 2.23-1.463 2.997a4.576 4.576 0 0 1-2.531.474Zm4.96-2.411-.132-1.394a3.659 3.659 0 0 0 2.063-.293c.629-.307.776-.613.629-.892-.482-.906-3.174 1.24-4.389-.892-.541-1.018-.205-2.231 1.463-2.997a4.175 4.175 0 0 1 2.21-.447l.175 1.394a3.526 3.526 0 0 0-1.726.279c-.629.307-.746.655-.585.934.468.878 3.16-1.254 4.286.851.527 1.003.205 2.23-1.39 2.997a4.583 4.583 0 0 1-2.604.46Zm8.529-8.03a2.196 2.196 0 0 1 .16 1.907c-.12.31-.309.592-.553.826-.245.234-.54.414-.865.529l-.936.46.804 1.492-1.463.739-3.058-5.716 2.458-1.199a2.51 2.51 0 0 1 1.954-.261c.327.091.629.247.888.458.258.211.467.472.611.765Zm-1.463.753a.859.859 0 0 0-.234-.361.918.918 0 0 0-.387-.212.956.956 0 0 0-.445-.01.927.927 0 0 0-.397.193l-.849.404.893 1.687.849-.418a.921.921 0 0 0 .353-.199.83.83 0 0 0 .144-1.084h.073Zm2.398-.265a3.051 3.051 0 0 1-.262-1.82 3.124 3.124 0 0 1 .834-1.657 3.38 3.38 0 0 1 1.654-.944 3.499 3.499 0 0 1 1.927.081c.62.206 1.162.582 1.56 1.079a3.067 3.067 0 0 1 .247 3.512 3.285 3.285 0 0 1-1.395 1.269 3.467 3.467 0 0 1-2.627.179 3.34 3.34 0 0 1-1.153-.659 3.185 3.185 0 0 1-.785-1.04Zm4.39-2.161a1.65 1.65 0 0 0-.737-.534 1.73 1.73 0 0 0-.924-.073c-.308.06-.593.202-.819.411a1.557 1.557 0 0 0-.459.767 1.5 1.5 0 0 0 .047.882c.103.283.289.533.537.719a1.718 1.718 0 0 0 1.769.17 1.68 1.68 0 0 0 .545-.432 1.57 1.57 0 0 0 .084-1.91h-.043Zm5.501-.934-.834.405.819 1.519-1.463.739-3.057-5.716 2.443-1.184c.29-.184.618-.306.961-.357a2.537 2.537 0 0 1 1.03.059c.335.09.646.248.911.463.265.215.477.482.624.783a2.063 2.063 0 0 1-.088 2.314l2.121 1.24-1.623.795-1.844-1.06Zm-1.551-2.927-.848.418.892 1.673.849-.418a.98.98 0 0 0 .302-.227.897.897 0 0 0 .129-1.035.95.95 0 0 0-.237-.288 1.004 1.004 0 0 0-.717-.222 1.012 1.012 0 0 0-.37.099Zm4.316-2.119-1.638.809-.688-1.283 4.799-2.342.688 1.283-1.639.794 2.37 4.447-1.463.725-2.429-4.433Zm33.812 33.846a5.208 5.208 0 0 1-.761 4.138 5.569 5.569 0 0 1-1.563 1.541 5.856 5.856 0 0 1-2.066.845s-.994-5.269 4.39-6.524Zm1.155 8.016a4.611 4.611 0 0 1-.643 1.78 4.821 4.821 0 0 1-1.317 1.403 5.125 5.125 0 0 1-1.786.806 5.23 5.23 0 0 1-1.975.081 4.922 4.922 0 0 1 2.01-3.12 5.385 5.385 0 0 1 3.711-.95Zm-1.024 6.956a5.082 5.082 0 0 1-1.201 1.651 5.342 5.342 0 0 1-1.778 1.078 5.564 5.564 0 0 1-4.132-.122c.612-1.218 1.689-2.167 3.011-2.652a5.807 5.807 0 0 1 4.1.045Zm-9.466-9.103a5.198 5.198 0 0 1 1.941.351 5.022 5.022 0 0 1 1.646 1.041c.47.448.841.981 1.092 1.568.251.587.376 1.216.369 1.849a5.322 5.322 0 0 1-3.529-1.447 4.84 4.84 0 0 1-1.519-3.362Zm1.755 5.255c.449.23.844.543 1.163.922.318.379.553.815.69 1.283a3.445 3.445 0 0 1-.39 2.8 3.781 3.781 0 0 1-1.789-2.222 3.594 3.594 0 0 1 .326-2.783Zm2.883-15.515c.326.485.547 1.027.65 1.595a4.109 4.109 0 0 1-.051 1.71 4.226 4.226 0 0 1-.743 1.557 4.443 4.443 0 0 1-1.319 1.16 4.322 4.322 0 0 1-.524-3.288 4.513 4.513 0 0 1 1.987-2.734Zm-7.886-.753a4.607 4.607 0 0 1 1.743.261 4.428 4.428 0 0 1 1.494.893c.429.391.771.861 1.004 1.382.234.52.354 1.08.353 1.646a4.713 4.713 0 0 1-3.178-1.212 4.29 4.29 0 0 1-1.416-2.97Zm.879 6.329a5.452 5.452 0 0 1 4.055.197c.628.29 1.188.697 1.648 1.197a4.936 4.936 0 0 1 1.027 1.715 5.691 5.691 0 0 1-4.014-.279c-1.252-.578-2.224-1.59-2.716-2.83Z" fill="#fff"/><path d="m225.69 331.184.147-.125c.117-.098.307-.251.541-.474a13.188 13.188 0 0 0 1.741-1.966 14.455 14.455 0 0 0 1.814-3.415c.257-.717.467-1.447.629-2.189l.103-.585v-1.826c0-.098 0-.195-1.054-.307v-.307c1.054-.209 1.054-.404 1.054-.613v-1.199l-.074-.571-.117-.558v-.279a1.806 1.806 0 0 0-.073-.278l-.131-.53a15.76 15.76 0 0 0-1.463-3.555 14.927 14.927 0 0 0-1.464-2.147c-.19-.237-.365-.418-.468-.543l-.117-.14.132.14.468.543c.551.675 1.04 1.393 1.463 2.147a15.668 15.668 0 0 1 1.463 3.555c0 .181.103.362.147.53.043.167 0 .181 0 .278v.279c0 .181.073.377.117.558v1.784a.614.614 0 0 0 .086.359.66.66 0 0 0 .279.254v.307c-.351.112-.351.209-.365.321v1.826l-.103.585a15.524 15.524 0 0 1-.629 2.189 14.183 14.183 0 0 1-1.814 3.415 12.435 12.435 0 0 1-1.77 1.966c-.235.223-.425.362-.556.474l-.147.111.161-.014Zm-51.309 9.326a5.669 5.669 0 0 0 1.799 1.302 5.932 5.932 0 0 0 4.423.212 5.734 5.734 0 0 0 1.927-1.124s-3.921-3.819-8.149-.39Zm6.131 5.59a5.213 5.213 0 0 0 3.852.364 5.055 5.055 0 0 0 1.734-.901 4.814 4.814 0 0 0 1.232-1.47 5.412 5.412 0 0 0-3.83-.294c-1.269.374-2.339 1.197-2.988 2.301Zm6.496 3.29a5.574 5.574 0 0 0 2.111.05 5.459 5.459 0 0 0 1.966-.735 5.194 5.194 0 0 0 1.512-1.405c.4-.56.679-1.191.819-1.855 0 0-5.165-.851-6.408 3.945Zm-2.151-12.63a4.662 4.662 0 0 0-.844 1.702 4.522 4.522 0 0 0-.085 1.881c.104.626.338 1.226.688 1.765a4.865 4.865 0 0 0 1.353 1.371 4.774 4.774 0 0 0 .842-3.569 4.921 4.921 0 0 0-1.954-3.15Z" fill="#fff"/><path d="M188.352 341.193c-.074.482-.044.974.087 1.444.131.471.36.912.674 1.297.315.384.708.703 1.155.939.448.236.94.383 1.449.432a3.626 3.626 0 0 0-.809-2.704 3.983 3.983 0 0 0-2.556-1.408Zm-14.893-6.858c.218.536.545 1.026.964 1.44.419.414.92.745 1.475.972a4.72 4.72 0 0 0 1.755.351 4.721 4.721 0 0 0 1.761-.324 4.628 4.628 0 0 0-2.47-2.346 4.94 4.94 0 0 0-3.485-.093Zm3.951-6.552a4.1 4.1 0 0 0-.796 1.485 4.001 4.001 0 0 0 .445 3.241c.299.484.697.906 1.17 1.24.69-.906.989-2.029.837-3.138a4.328 4.328 0 0 0-1.656-2.828Zm4.858 4.335a5.11 5.11 0 0 0-1.429 1.404 4.86 4.86 0 0 0-.752 1.82 4.753 4.753 0 0 0 .039 1.955c.148.643.429 1.252.825 1.791a5.168 5.168 0 0 0 2.096-3.238 5.003 5.003 0 0 0-.779-3.732Z" fill="#fff"/><path d="M197.13 345.054h-.263c-.161 0-.41.098-.717.14a16.357 16.357 0 0 1-8.881-1.227l-.556-.265-.292-.125a1.837 1.837 0 0 0-.278-.154l-.556-.306-.542-.335-.263-.181-.263-.181-.512-.363-.498-.39-.234-.195-.219-.209-.454-.391-.41-.418-.205-.209-.19-.209-.365-.418a15.65 15.65 0 0 1-2.151-3.234 15.88 15.88 0 0 1-.951-2.412 7.616 7.616 0 0 1-.176-.683v-.181.181c0 .153.088.39.161.683.25.831.568 1.642.951 2.426a15.093 15.093 0 0 0 2.136 3.248c.117.139.249.279.366.432l.19.209.205.195.424.418.439.405.234.209.234.195.483.39.512.363.264.181.278.181.541.335.571.306c.087.06.18.111.278.154l.278.139.555.265c.729.309 1.476.574 2.239.794 1.288.368 2.621.569 3.965.6.907.022 1.815-.048 2.706-.209.322 0 .556-.112.717-.14h.191l.058-.014Z" fill="#fff"/><path d="m538.609 428.569-3.322 7.945s-48.47-35.128-85.749-32.201a7.839 7.839 0 0 1-3.159 1.304 8 8 0 0 1-3.439-.147l-13.899-3.29a7.914 7.914 0 0 1-3.724-1.911 7.37 7.37 0 0 1-2.129-3.483s-28.178-22.193-66.378-18.75l-14.236.572 60.219-95.056 164.36 25.245-28.544 119.772Z" fill="#455A64"/><path d="m551.307 419.926-5.545 14.442s-45.354-42.406-108.631-33.066l37.981-65.754s77.176 68.249 76.195 84.378Z" fill="#EBEBEB"/><path d="M597.893 317.551s-51.382-59.649-119.385-20.059l-41.434 103.81S512.787 372.363 556.196 425l41.697-107.449Z" fill="#fff"/><path d="M597.891 317.551s-.219.669-.717 1.966c-.497 1.296-1.214 3.234-2.165 5.729l-8.354 21.774c-7.315 18.833-17.63 45.709-30.095 78.064l-.19.515-.366-.432c-12.582-15.395-30.629-25.883-50.753-29.497a121.25 121.25 0 0 0-33.299-1.394 144.952 144.952 0 0 0-17.103 2.551 135.64 135.64 0 0 0-16.986 4.601l-.6.223-.79.292.292-.752c15.055-37.736 29.261-73.241 41.419-103.797v-.097h.103a101.619 101.619 0 0 1 26.086-10.901c15.719-4.06 32.355-3.531 47.754 1.519a101.79 101.79 0 0 1 17.557 7.597 114.748 114.748 0 0 1 21.624 15.334 89.63 89.63 0 0 1 5.003 4.865 37.91 37.91 0 0 1 1.2 1.324c.135.147.262.301.38.46l-.424-.432-1.244-1.282a88.817 88.817 0 0 0-5.047-4.782 117.975 117.975 0 0 0-21.697-15.222 102.209 102.209 0 0 0-17.484-7.472 84.73 84.73 0 0 0-47.446-1.394 100.85 100.85 0 0 0-25.867 10.804l.131-.154c-12.158 30.557-26.335 66.076-41.331 103.811l-.497-.46.614-.223a135.647 135.647 0 0 1 17.03-4.586 145.86 145.86 0 0 1 17.206-2.551 121.678 121.678 0 0 1 33.504 1.394c20.287 3.644 38.472 14.241 51.119 29.789l-.556.084 30.402-77.799 8.529-21.774c.995-2.509 1.756-4.433 2.283-5.743.527-1.311.775-1.952.775-1.952Z" fill="#263238"/><path d="M436.488 401.107s-45.662-45.444-96.357-28.284l44.828-92.575 92.172 20.826-40.643 100.033Z" fill="#F5F5F5"/><path d="m436.751 402.389-.79-.794c-.454-.446-45.911-44.928-95.596-28.117l-1.638.558 45.808-94.61.585.139 92.918 21.021-.307.739-40.98 101.064Zm-73.153-34.097c36.943 0 67.389 26.667 72.67 31.574l39.883-98.304-90.709-20.505-43.892 90.609a73.549 73.549 0 0 1 21.99-3.374h.058Z" fill="#263238"/><path d="M478.507 297.492s-9.247-40.537-51.397-50.058l-27.228-5.409-47.359 92.324s68.047 14.065 84.682 66.326l41.302-103.183Z" fill="#fff"/><path d="M478.506 297.492a4.58 4.58 0 0 1-.175.488l-.542 1.394c-.497 1.282-1.214 3.136-2.165 5.576l-8.31 21.035c-7.228 18.122-17.557 43.938-29.788 74.801l-.351.865-.293-.893a77.017 77.017 0 0 0-10.343-20.631c-1.112-1.672-2.444-3.22-3.687-4.865-1.244-1.644-2.634-3.164-4.126-4.642a98.55 98.55 0 0 0-9.364-8.698c-13.46-10.943-30.285-19.377-48.544-24.994-2.794-.837-5.603-1.617-8.383-2.231l-.468-.097.205-.418c17.439-33.916 33.65-65.518 47.417-92.283l.117-.223h.249l22.18 4.419a75.271 75.271 0 0 1 19.444 5.967c9.943 4.794 18.487 11.858 24.872 20.561a76.55 76.55 0 0 1 9.905 17.941 61.495 61.495 0 0 1 1.711 5.088c.337 1.157.439 1.784.439 1.784s0-.139-.146-.432-.22-.753-.395-1.394c-.351-1.157-.922-2.788-1.8-5.046a77.455 77.455 0 0 0-10.022-17.802c-6.394-8.608-14.91-15.587-24.798-20.324a75.09 75.09 0 0 0-19.327-5.855l-22.195-4.377.351-.167-47.315 92.435-.263-.516c2.824.628 5.633 1.394 8.456 2.259a159.161 159.161 0 0 1 26.189 10.552 128.34 128.34 0 0 1 22.604 14.595 99.827 99.827 0 0 1 9.422 8.769c1.463 1.491 2.78 3.136 4.155 4.683 1.376 1.548 2.575 3.22 3.702 4.907a78.038 78.038 0 0 1 10.402 20.826h-.629c12.392-30.779 22.75-56.54 30.022-74.62 3.657-9.019 6.525-16.128 8.5-20.993.98-2.412 1.741-4.266 2.268-5.576l.6-1.394c.131-.307.219-.474.219-.474Z" fill="#263238"/><path d="M410.035 262.893c0 .321 4.302 1.004 10.915 3.178a87.489 87.489 0 0 1 23.745 12.114c6.899 4.988 12.839 11.077 17.557 17.996 3.438 5.172 4.813 8.643 5.208 8.573.146 0-.088-.906-.644-2.495a36.195 36.195 0 0 0-3.16-6.579c-4.482-7.322-10.45-13.72-17.557-18.819-7.426-5.383-15.805-9.452-24.74-12.016a57.549 57.549 0 0 0-8.251-1.757 9.703 9.703 0 0 0-3.073-.195Zm-7.197 9.883c0 .321 4.287 1.004 10.914 3.178a87.48 87.48 0 0 1 23.746 12.114c6.899 4.988 12.839 11.077 17.556 17.997 3.438 5.171 4.814 8.656 5.209 8.573.146 0-.088-.906-.644-2.496a36.235 36.235 0 0 0-3.16-6.565c-4.477-7.33-10.446-13.733-17.557-18.833-7.423-5.384-15.804-9.45-24.74-12.002a53.932 53.932 0 0 0-8.252-1.757 9.555 9.555 0 0 0-3.072-.209Zm-4.945 11.696c0 .334 4.286 1.017 10.914 3.192a87.418 87.418 0 0 1 23.745 12.114c6.899 4.988 12.839 11.077 17.557 17.996 3.438 5.172 4.813 8.643 5.194 8.573.38-.069-.073-.906-.629-2.495a36.306 36.306 0 0 0-3.161-6.58c-4.479-7.323-10.448-13.721-17.556-18.819-7.42-5.384-15.795-9.454-24.726-12.016a57.986 57.986 0 0 0-8.251-1.756 10.069 10.069 0 0 0-3.087-.209Zm-6.715 10.204c0 .334 4.286 1.017 10.914 3.192 8.537 2.819 16.551 6.907 23.745 12.114 6.899 4.988 12.839 11.077 17.557 17.996 3.438 5.172 4.814 8.643 5.194 8.573.161 0-.073-.906-.629-2.495a36.301 36.301 0 0 0-3.16-6.58c-4.48-7.323-10.449-13.721-17.557-18.818-7.416-5.39-15.792-9.461-24.726-12.017a57.957 57.957 0 0 0-8.251-1.756 10.069 10.069 0 0 0-3.087-.209Zm-7.346 10.678c0 .32 4.287 1.003 10.914 3.178a87.424 87.424 0 0 1 23.746 12.114c6.895 4.992 12.834 11.08 17.556 17.996 3.439 5.172 4.814 8.657 5.194 8.573.381-.083-.073-.906-.629-2.495a36.276 36.276 0 0 0-3.16-6.566c-4.475-7.331-10.444-13.734-17.557-18.832-7.416-5.387-15.792-9.453-24.725-12.003a54.316 54.316 0 0 0-8.252-1.756 9.534 9.534 0 0 0-3.087-.209Zm-8.836 11.751c0 .335 4.667 1.06 11.851 3.527a106.84 106.84 0 0 1 12.216 5.074c4.772 2.4 9.375 5.092 13.782 8.057 4.267 2.98 8.31 6.241 12.1 9.758a73.695 73.695 0 0 1 8.12 9.145c4.082 5.492 5.515 9.284 5.925 9.2.146 0-.132-.976-.775-2.704a18.789 18.789 0 0 0-1.463-3.081 31.655 31.655 0 0 0-2.371-3.973 62.242 62.242 0 0 0-7.959-9.59 96.602 96.602 0 0 0-12.289-10.093 108.974 108.974 0 0 0-14.207-8.141 91.398 91.398 0 0 0-12.596-4.865 53.478 53.478 0 0 0-5.063-1.324 33.212 33.212 0 0 0-3.877-.725 11.586 11.586 0 0 0-3.394-.265Zm-4.258 10.302c0 .334 4.697 1.045 11.851 3.624a102.47 102.47 0 0 1 12.143 5.339 122.524 122.524 0 0 1 13.548 8.434 112.887 112.887 0 0 1 11.807 10.064 78.977 78.977 0 0 1 7.93 9.312c4.009 5.576 5.472 9.368 5.852 9.298.146 0-.132-.99-.761-2.788a18.82 18.82 0 0 0-1.463-3.109 29.252 29.252 0 0 0-2.311-4 67.06 67.06 0 0 0-7.74-9.758 100.4 100.4 0 0 0-11.982-10.413 110.209 110.209 0 0 0-13.987-8.532 89.573 89.573 0 0 0-12.626-5.116 47.855 47.855 0 0 0-5.077-1.394 28.972 28.972 0 0 0-3.892-.752 11.438 11.438 0 0 0-3.292-.209Zm94.6 52.693c.234.278 4.068-1.84 11.119-3.834a75.588 75.588 0 0 1 29.261-2.119c10.12 1.317 19.88 4.474 28.749 9.298 6.789 3.708 10.373 6.747 10.637 6.524.263-.223-.702-.92-2.326-2.286a57.58 57.58 0 0 0-7.491-5.283c-8.957-5.31-18.996-8.745-29.452-10.079a69.586 69.586 0 0 0-30.095 2.788 47.251 47.251 0 0 0-7.915 3.36c-1.726.892-2.575 1.533-2.487 1.631Zm5.721-13.201c.234.278 4.067-1.841 11.119-3.834a75.548 75.548 0 0 1 29.261-2.119c10.119 1.317 19.879 4.474 28.749 9.298 6.789 3.694 10.373 6.747 10.622 6.524.249-.223-.688-.92-2.312-2.3a56.358 56.358 0 0 0-7.491-5.269c-8.962-5.32-19.013-8.756-29.48-10.079a69.833 69.833 0 0 0-30.095 2.704 48.35 48.35 0 0 0-7.915 3.374c-1.697.962-2.546 1.603-2.458 1.701Zm5.707-13.202c.234.279 4.067-1.854 11.134-3.833a75.18 75.18 0 0 1 29.261-2.119c10.126 1.309 19.892 4.465 28.763 9.298 6.774 3.694 10.359 6.747 10.622 6.51.263-.237-.688-.906-2.312-2.286a55.793 55.793 0 0 0-7.505-5.27c-8.957-5.329-19.01-8.766-29.48-10.078a69.77 69.77 0 0 0-30.081 2.704 48.3 48.3 0 0 0-7.915 3.374c-1.712.962-2.575 1.603-2.487 1.7Zm5.662-13.215c.234.293 4.067-1.84 11.134-3.833a75.487 75.487 0 0 1 29.261-2.105c10.125 1.304 19.891 4.457 28.763 9.284 6.774 3.708 10.359 6.747 10.622 6.524.263-.223-.688-.906-2.312-2.286a58.969 58.969 0 0 0-7.505-5.284c-8.965-5.315-19.014-8.751-29.481-10.078a69.954 69.954 0 0 0-30.08 2.718 47.953 47.953 0 0 0-7.93 3.374c-1.638.961-2.472 1.589-2.472 1.686Zm5.853-13.201c.234.293 4.067-1.84 11.119-3.833a75.333 75.333 0 0 1 29.261-2.105c10.125 1.304 19.891 4.457 28.764 9.284 6.774 3.708 10.358 6.747 10.621 6.524.264-.223-.687-.92-2.311-2.286a59.05 59.05 0 0 0-7.506-5.284c-8.965-5.313-19.014-8.748-29.48-10.078a69.588 69.588 0 0 0-30.095 2.718 48.327 48.327 0 0 0-7.915 3.36c-1.756.961-2.619 1.603-2.458 1.7Zm5.647-13.201c.234.279 4.067-1.84 11.119-3.833a75.55 75.55 0 0 1 29.261-2.119c10.12 1.314 19.88 4.471 28.749 9.298 6.789 3.694 10.373 6.747 10.637 6.524.263-.224-.703-.921-2.312-2.301a60.704 60.704 0 0 0-7.461-5.297c-8.963-5.319-19.014-8.755-29.481-10.078a69.585 69.585 0 0 0-30.066 2.746 47.247 47.247 0 0 0-7.915 3.359c-1.77.962-2.619 1.603-2.531 1.701Z" fill="#E0E0E0"/><path d="M135.92 518.55h-.878c-5.818 0-10.534 4.494-10.534 10.037v56.596c0 5.543 4.716 10.037 10.534 10.037h.878c5.817 0 10.534-4.494 10.534-10.037v-56.596c0-5.543-4.717-10.037-10.534-10.037Z" fill="#263238"/><path d="M213.694 610.763h-41.916c-12.831 0-26.628 1.394-32.187-5.813-4.39-5.576-3.6-13.09-3.263-19.837.975-18.986 1.917-37.972 2.824-56.958.248-5.144.526-10.399 2.794-15.209 2.268-4.809 12.421-71.344 18.537-72.487h51.821l1.39 170.304Z" fill="#263238"/><path d="M203.512 580.221c0 .195-13.884.362-31.017.362-17.132 0-31.016-.167-31.016-.362 0-.196 13.884-.377 31.016-.377 17.133 0 31.017.168 31.017.377Z" fill="#455A64"/><path d="M178.8 503.147c.22 0 .381 17.23.381 38.488s-.161 38.502-.381 38.502c-.219 0-.38-17.23-.38-38.502 0-21.272.175-38.488.38-38.488Zm-38.858 87.152a2.48 2.48 0 0 1-.103-.711c0-.543 0-1.213-.102-2.021a423.004 423.004 0 0 1-.234-7.472 887.162 887.162 0 0 1-.146-24.632c.073-9.618.336-18.345.585-24.645.131-3.151.249-5.702.366-7.458l.146-2.036c.001-.234.03-.468.088-.697a2.42 2.42 0 0 1 0 .711v2.022c0 1.882-.073 4.405-.117 7.471-.088 6.399-.22 15.056-.352 24.632-.131 9.577 0 18.22-.087 24.632v9.493a3.32 3.32 0 0 1-.044.711Z" fill="#455A64"/><path d="M426.67 344.065s22.75 4.182 34.338 39.129c13.24 40.022 35.581 122.072 35.406 131.537-.176 9.465-25.516 24.66-25.516 24.66L434.6 527.862l-19.02-68.305 11.09-115.492Z" fill="#5E18EB"/><path d="M425.968 343.981 369.992 324.2l-3.833-4.684-72.202 2.133-5.442 3.29s-54.25 11.333-59.869 12.03c-13.167 1.603-26.978 18.861-26.978 18.861-1.39 1.603-69.568 96.088-69.568 96.088l15.947 59.453s7.505 2.523 29.071-10.956c17.103-10.692 30.387-27.615 35.113-34.195l-.088 144.348h211.528l-11.47-91.558 13.767-175.029Z" fill="#5E18EB"/><path d="M415.932 439.163c-.01-.24.019-.48.087-.711.117-.544.249-1.213.41-2.021l1.566-7.417c1.302-6.259 2.926-14.943 4.506-24.562 1.58-9.618 2.589-18.4 3.277-24.743.336-3.095.6-5.646.805-7.528.087-.822.161-1.491.234-2.049.008-.241.053-.481.131-.711.035.241.035.485 0 .725 0 .558 0 1.227-.087 2.063-.088 1.785-.278 4.364-.556 7.542-.556 6.37-1.551 15.153-3.073 24.799-1.521 9.646-3.292 18.317-4.725 24.562-.717 3.123-1.332 5.646-1.8 7.374-.219.795-.395 1.464-.556 1.994a2.864 2.864 0 0 1-.219.683Zm-209.655-38.642c.094.286.158.58.19.878.102.642.234 1.478.409 2.496.337 2.188.776 5.339 1.288 9.256 1.009 7.82 2.194 18.651 3.116 30.668.922 12.016 1.463 22.875 1.58 30.737.088 3.945.132 7.137.132 9.34v2.537c.025.292.025.586 0 .878a3.823 3.823 0 0 1-.102-.878c0-.655-.074-1.506-.117-2.537-.103-2.286-.22-5.451-.381-9.312a936.95 936.95 0 0 0-1.799-30.668 813.1 813.1 0 0 0-2.927-30.668c-.438-3.847-.79-6.97-1.038-9.27a114.15 114.15 0 0 1-.264-2.523 3.452 3.452 0 0 1-.087-.934Zm164.388-69.086a4.598 4.598 0 0 1-.731.711c-.512.432-1.273 1.074-2.253 1.868a178.984 178.984 0 0 1-8.603 6.552 88.184 88.184 0 0 1-13.811 8.364 56.166 56.166 0 0 1-19.474 4.377 50.16 50.16 0 0 1-19.795-2.579c-5.111-1.931-9.636-5.045-13.167-9.061a25.123 25.123 0 0 1-5.238-9.228 17.568 17.568 0 0 1-.614-2.788 3.884 3.884 0 0 1-.103-.99c.119.311.203.634.249.962.199.941.448 1.871.746 2.788a26.193 26.193 0 0 0 5.369 8.977c3.54 3.901 8.031 6.912 13.08 8.768a50.233 50.233 0 0 0 19.444 2.44 56.634 56.634 0 0 0 19.21-4.252 93.084 93.084 0 0 0 13.782-8.155c3.745-2.606 6.701-4.823 8.778-6.356l2.341-1.771c.25-.224.513-.433.79-.627Z" fill="#263238"/><path opacity=".3" d="M262.678 398.249c-8.427 5.576-9.451 16.825-9.919 26.583-1.975 40.064-28.808 116.552-39.839 155.249 34.733-51.131 56.035-121.207 49.758-181.832Z" fill="#000"/><path d="M264.974 330.041s-2.809 86.218-10.563 138.005c-7.755 51.787-45.355 120.594-45.355 120.594l-6.072-11.333s20.776-57.432 30.183-105.622c6.657-34.028 0-136.612 0-136.612 9.506-5.569 20.922-7.376 31.807-5.032Z" fill="#263238"/><path d="M245.004 415.409c-.205 0 .278-17.955 1.097-40.091.82-22.137 1.654-40.077 1.858-40.063.205.014-.278 17.954-1.097 40.091-.819 22.136-1.653 40.077-1.858 40.063Z" fill="#455A64"/><path d="m127.784 420.358-7.213 17.759s-9.569 18.582-8.779 31.212c.791 12.629 17.44 58.77 51.207 43.813 33.768-14.958 16.855-39.269 16.855-39.269l-15.86-41.374-24.872-15.598a7.875 7.875 0 0 0-3.167-1.138 7.988 7.988 0 0 0-3.371.278 7.722 7.722 0 0 0-2.915 1.639 7.256 7.256 0 0 0-1.885 2.678Z" fill="#5E18EB"/><path d="M167.637 371.01c2.209 2.788 14.952-.418 17.849 5.256a10.118 10.118 0 0 1 1.315 4.976c0 1.737-.452 3.447-1.315 4.977a11.344 11.344 0 0 1 2.581 6.092 11.178 11.178 0 0 1-1.293 6.454 15.542 15.542 0 0 1 1.36 8.364c-.485 2.858-2.001 5.466-4.286 7.374a7.391 7.391 0 0 1-.482 4.32 7.807 7.807 0 0 1-2.854 3.389c-4.389 2.788-16.006 4.934-16.006 4.934l-4.769 8.364s-6.613 6.97-14.807 3.848c-8.193-3.123-13.723-18.694-13.723-18.694.366-1.993 9.568-16.504 9.568-16.504s1.829-21.593 5.853-26.849c4.023-5.255 5.852-6.314 5.852-6.314s3.511-7.207 3.511-10.302c0-3.095-3.014-12.992-1.2-14.999 1.815-2.008 9.232-.614 12.48 7.569 3.248 8.183.366 17.745.366 17.745Z" fill="#FFBF9D"/><path d="M185.062 385.564c0 .223-4.389-.502-9.773-.53-5.384-.028-9.759.641-9.803.418a9.82 9.82 0 0 1 2.824-.655 46.095 46.095 0 0 1 13.943.084 9.846 9.846 0 0 1 2.809.683Zm1.01 14.26c0 .223-4.126-.571-9.217-.571-5.092 0-9.188.725-9.232.502a34.367 34.367 0 0 1 18.449.069Zm-1.025 14.4a23.347 23.347 0 0 1-8.003 1.645 23.934 23.934 0 0 1-8.179-.502c0-.209 3.658.098 8.12-.223 4.462-.32 8.003-1.129 8.062-.92Zm-11.177 10.358a11.446 11.446 0 0 1-3.38 1.394 27.557 27.557 0 0 1-17.556-.628 11.53 11.53 0 0 1-3.248-1.659 40.461 40.461 0 0 0 12.026 2.691 40.29 40.29 0 0 0 12.158-1.798Zm.133-51.787c0 .237-4.726-.725-10.578-.516-5.853.209-10.447 1.394-10.505 1.157.92-.45 1.907-.765 2.926-.934a39.373 39.373 0 0 1 7.52-.962c2.528-.078 5.058.09 7.549.502 1.063.103 2.104.356 3.088.753Z" fill="#FF9A6C"/><path d="M176.546 494.616c-.073 0 .381-.879 1.024-2.468a30.414 30.414 0 0 0 1.932-6.97c.553-3.52.508-7.101-.132-10.608a30.642 30.642 0 0 0-4.989-12.002c-2.663-3.875-5.633-7.416-7.315-11.236a44.18 44.18 0 0 1-3.073-10.385 89.386 89.386 0 0 1-.936-7.207c0-.781-.117-1.394-.161-1.965a2.06 2.06 0 0 1 0-.683c.084.215.138.44.161.669 0 .529.176 1.171.293 1.951.248 1.701.585 4.182 1.185 7.137a44.095 44.095 0 0 0 3.175 10.218c1.638 3.708 4.564 7.18 7.315 11.152a30.343 30.343 0 0 1 5.047 12.281 31.312 31.312 0 0 1 0 10.804 28.512 28.512 0 0 1-2.194 6.97 16.01 16.01 0 0 1-.922 1.784 3.466 3.466 0 0 1-.41.558Z" fill="#263238"/><path opacity=".3" d="M163.395 430.659c.19.753.424 1.478.673 2.203v-2.203h-.673Zm14.512 24.939c-5.018-7.36-11.002-14.4-13.841-22.68 0 7.039.352 14.204 3.439 20.561 2.033 4.182 5.135 7.765 7.725 11.64 2.589 3.875 4.711 8.294 4.389 12.88a15.133 15.133 0 0 0-.132 4.865c.424 1.59 2.136 3.039 3.745 2.496a4.058 4.058 0 0 0 1.427-1.215 3.802 3.802 0 0 0 .695-1.699c2.516-9.228-2.005-18.847-7.447-26.848Z" fill="#000"/><path d="M406.1 249.357c-3.35 1.798-7.842-.516-9.364-3.875-1.521-3.36-.804-7.235.352-10.734 1.155-3.499 2.75-6.97 2.926-10.553.146-3.338-.841-6.633-2.815-9.395-1.974-2.762-4.83-4.844-8.144-5.938 6.511-4.921 7.052-15.474 1.054-20.91-2.795-2.579-6.525-3.973-9.773-5.994a35.194 35.194 0 0 1-5.165-4.001c2.908.681 5.935.766 8.881.251a14.636 14.636 0 0 0 6.391-3.07 13.672 13.672 0 0 0 4.04-5.629c.769-2.188.881-4.537.326-6.783a12.266 12.266 0 0 0-3.471-5.93 12.2 12.2 0 0 0-6.406-2.941 12.477 12.477 0 0 0-7.025 1.045c-4.199 2.119-6.511 6.482-8.559 10.567l-1.902 3.805c-5.925-7.472-11.499-15.208-20.629-17.829-8.295-2.384-17.205.279-25.837-.321-6.292-.432-12.319-2.606-18.581-3.248-6.262-.641-13.402.614-17.103 5.479-2.18 2.858-2.926 6.552-5.062 9.395-4.536 5.855-14.324 6.65-18.054 13.006-3.029 5.158-.703 11.682-2.005 17.467-1.463 6.301-6.847 10.901-11.309 15.724-4.463 4.823-8.34 11.487-5.852 17.467 2.194 5.255 8.632 8.085 10.738 13.382 1.463 3.862.41 8.155.337 12.281-.073 4.126 1.653 9.033 5.852 9.967l48.061 12.1c16.547 6.412 33.651 12.936 51.5 12.908 17.849-.027 36.942-8.196 43.994-23.837-2.614-.108-5.085-1.166-6.906-2.955a17.018 17.018 0 0 0 6.064-4.414 16.013 16.013 0 0 0 3.446-6.487Z" fill="#263238"/><path d="M366.714 263.729c3.965-11.612 7.872-23.321 9.686-35.407 1.814-12.086 1.463-24.702-3.058-36.146-.673-1.743-6.437-13.383-8.383-13.201-1.376.125 2.18 10.998 1.463 12.141-6.672 10.915-8.486 24.033-7.418 36.62a158.705 158.705 0 0 0 7.696 35.993" fill="#263238"/><path d="m318.565 160.853-2.619.139c-14.433.724-28.05 6.602-38.139 16.462-10.089 9.861-15.909 22.981-16.301 36.747-.731 26.262-1.741 51.424-.775 65.433 2.019 29.149 33.445 32.188 33.445 32.188v15.041c1.346 15.334 22.209 18.122 30.124 17.453 27.33 0 41.566-21.301 41.566-21.301l1.287-105.664c1.156-30.417-16.635-56.359-48.588-56.498Z" fill="#FFBF9D"/><path d="M294.205 312.17s19.488.098 39.502-13.34c0 0-8.573 21.843-39.502 20.77v-7.43Z" fill="#FF9A6C"/><path d="M275.859 237.689a4.1 4.1 0 0 0 1.378 2.879 4.51 4.51 0 0 0 3.099 1.136 4.412 4.412 0 0 0 1.664-.26 4.26 4.26 0 0 0 1.425-.86c.41-.374.736-.824.96-1.321a3.866 3.866 0 0 0 .34-1.574 4.098 4.098 0 0 0-1.377-2.879 4.514 4.514 0 0 0-3.099-1.135 4.4 4.4 0 0 0-1.665.26 4.261 4.261 0 0 0-1.425.859 4.047 4.047 0 0 0-.959 1.322 3.875 3.875 0 0 0-.341 1.573Zm-6.905-12.225c.57.53 3.774-1.993 8.5-2.23 4.726-.237 8.339 1.854 8.778 1.268.234-.251-.38-1.213-1.946-2.189a12.583 12.583 0 0 0-7.095-1.686c-2.46.117-4.817.976-6.731 2.453-1.36 1.143-1.799 2.161-1.506 2.384Zm49.743 12.323a4.103 4.103 0 0 0 1.378 2.879 4.514 4.514 0 0 0 3.099 1.135 4.39 4.39 0 0 0 1.667-.256 4.244 4.244 0 0 0 1.427-.859c.41-.375.736-.825.959-1.323a3.858 3.858 0 0 0 .336-1.576 4.096 4.096 0 0 0-1.377-2.879 4.51 4.51 0 0 0-3.1-1.136 4.405 4.405 0 0 0-1.666.256 4.25 4.25 0 0 0-1.427.859c-.41.375-.736.825-.959 1.324a3.852 3.852 0 0 0-.337 1.576Zm-3.277-12.867c.585.53 3.79-1.993 8.515-2.23 4.726-.237 8.325 1.854 8.779 1.269.248-.251-.366-1.213-1.946-2.189a12.531 12.531 0 0 0-7.082-1.687 12.05 12.05 0 0 0-6.744 2.454c-1.302 1.143-1.8 2.16-1.522 2.383Zm-15.025 35.533c0-.265-2.926-.599-7.769-.934-1.215 0-2.37-.223-2.619-1.004a5.602 5.602 0 0 1 .614-3.457c.976-2.843 2.005-5.827 3.087-8.949 4.258-12.741 7.316-23.196 6.731-23.349-.586-.154-4.39 10.036-8.691 22.777a347.822 347.822 0 0 1-2.926 9.006 6.44 6.44 0 0 0-.381 4.544c.201.398.493.748.855 1.023.363.275.786.469 1.238.566a9.38 9.38 0 0 0 2.063.167c4.813 0 7.783-.139 7.798-.39Zm14.104 2.412c-.775 0-.512 4.893-4.711 8.587s-9.7 3.443-9.7 4.182c0 .306 1.273.892 3.584.836 3.016-.114 5.891-1.24 8.12-3.178 2.137-1.855 3.433-4.43 3.614-7.179.088-2.119-.556-3.304-.907-3.248Zm.16-56.262c.527 1.213 5.224.391 10.812.739 5.589.349 10.169 1.561 10.842.432.292-.543-.542-1.659-2.429-2.788a19.654 19.654 0 0 0-8.146-2.244 19.785 19.785 0 0 0-8.357 1.366c-1.99.906-2.956 1.924-2.722 2.495Zm-44.593 3.806c.893.976 4.082-.251 8.003-.502 3.921-.251 7.315.321 7.988-.795.307-.543-.278-1.533-1.785-2.425a11.475 11.475 0 0 0-6.598-1.394 11.55 11.55 0 0 0-6.291 2.384c-1.317 1.143-1.712 2.216-1.317 2.732Z" fill="#263238"/><path d="M366.686 239c.512-.251 20.833-7.054 21.287 13.047.453 20.102-20.819 16.394-20.863 15.822-.044-.571-.424-28.869-.424-28.869Z" fill="#FFBF9D"/><path d="M373.371 260.118c.088 0 .381.237 1.01.488.877.34 1.859.34 2.736 0 2.224-.822 4.023-4.182 4.038-7.862a11.072 11.072 0 0 0-1.141-4.99 4.032 4.032 0 0 0-1.072-1.649 4.307 4.307 0 0 0-1.752-.986 1.956 1.956 0 0 0-1.266.132 1.821 1.821 0 0 0-.885.872c-.263.571-.131.976-.234 1.003-.102.028-.468-.32-.307-1.157.099-.498.379-.947.79-1.268a2.85 2.85 0 0 1 2.019-.558 5.28 5.28 0 0 1 2.379 1.03 4.92 4.92 0 0 1 1.542 2.009 11.71 11.71 0 0 1 1.463 5.576c0 4.043-2.136 7.89-5.165 8.782a4.128 4.128 0 0 1-1.744.138 4.05 4.05 0 0 1-1.635-.598c-.717-.488-.849-.934-.776-.962Z" fill="#FF9A6C"/><path d="M274.879 180.159c-3.438-1.756 6.672-12.42 15.011-16.156 12.612-5.576 31.938-9.242 43.672-6.231 14.133 3.638 25.911 10.162 33.153 22.304 7.242 12.141 10.08 26.318 9.846 40.258 0 4.182-.468 8.699-2.794 12.323-2.926 4.475-8.515 7.346-8.179 13.466.164 2.219-.593 4.411-2.106 6.106-3.804 3.959-8.589.334-10.812-3.318-4.741-7.82-5.384-17.216-5.853-26.235-.38-6.412-.731-12.95 1.083-19.139.98-3.36 2.604-6.538 3.394-9.954.79-3.415.629-7.276-1.638-10.022a13.208 13.208 0 0 0-1.727-1.631c-2.983-2.419-6.589-4.037-10.446-4.686a23.06 23.06 0 0 0-11.499.992c-11.837 4.182-32.041 10.385-37.396 6.607-7.696-5.436-9.568-9.019-9.568-9.019l-4.141 4.335Z" fill="#263238"/><path d="M332.421 155.054c-11.704-3.541-24.872-3.193-35.625 2.3-5.721 2.913-10.856 7.541-12.538 13.507-1.683 5.967 1.097 13.271 7.139 15.53l.41.236c9.042 2.788 14.879 1.562 23.818-1.505 7.506-2.593 14.177-7.109 21.698-9.66a44.944 44.944 0 0 1 25.091-1.004c-8.193-8.657-18.347-15.85-29.993-19.404Z" fill="#263238"/><path d="M372.538 174.932c-.176.153-1.873-1.771-5.296-4.029a30.859 30.859 0 0 0-6.409-3.262 20.459 20.459 0 0 0-8.573-1.394c-5.367.577-10.454 2.587-14.674 5.799-3.263 2.468-4.77 4.531-4.975 4.391-.205-.139.234-.613.922-1.547a21.877 21.877 0 0 1 3.423-3.569c4.26-3.6 9.596-5.838 15.26-6.398a20.998 20.998 0 0 1 9.173 1.561 27.895 27.895 0 0 1 6.511 3.652c3.336 2.538 4.799 4.726 4.638 4.796Zm2.107 7.123c.161 0-.205 2.3-1.595 5.743-3.795 9.011-10.763 16.482-19.707 21.133a18.1 18.1 0 0 1-5.779 2.203c-.249-.391 8.851-3.681 16.517-12.031 7.667-8.35 10.081-17.229 10.564-17.048Zm8.587 3.262c.161.752.191 1.525.088 2.286a34.432 34.432 0 0 1-.922 6.176c-1.612 6.766-4.96 13.046-9.745 18.277-4.785 5.23-10.857 9.248-17.672 11.693a40.035 40.035 0 0 1-6.291 1.715 7.773 7.773 0 0 1-2.327.279c0-.237 3.321-.795 8.31-2.788 6.516-2.612 12.321-6.606 16.971-11.68 4.65-5.073 8.023-11.09 9.862-17.594 1.434-5.13 1.434-8.364 1.726-8.364Zm-74.908-32.062c0 .223-2.18.711-5.589 2.008-8.904 3.363-16.473 9.307-21.638 16.992-1.99 2.928-2.926 4.935-3.146 4.838a15.93 15.93 0 0 1 2.283-5.325 38.675 38.675 0 0 1 9.392-10.664 40.208 40.208 0 0 1 12.773-6.733 17.133 17.133 0 0 1 5.925-1.116Zm81.522 2.495c.351 0-.571 5.827-5.34 11.152-4.77 5.325-10.593 7.291-10.637 6.97-.043-.32 5.106-2.69 9.554-7.82 4.448-5.13 6.013-10.441 6.423-10.302Z" fill="#455A64"/><path d="M323.102 250.012a.727.727 0 0 1-.134.418.77.77 0 0 1-.354.277.828.828 0 0 1-.457.043.794.794 0 0 1-.404-.206.733.733 0 0 1-.171-.82.756.756 0 0 1 .291-.338.814.814 0 0 1 .997.094.735.735 0 0 1 .232.532Zm5.501.892c.404 0 .731-.312.731-.697 0-.385-.327-.697-.731-.697-.404 0-.732.312-.732.697 0 .385.328.697.732.697Z" fill="#FF9A6C"/><path d="m420.472 390.919-90.813-25.844c-1.548-.44-3.178.399-3.641 1.874l-37.445 119.45c-.463 1.476.418 3.029 1.966 3.469l90.812 25.844c1.549.441 3.179-.398 3.641-1.873l37.446-119.451c.462-1.475-.418-3.028-1.966-3.469Z" fill="#455A64"/><path d="M293.313 472.2c-1.858-.339-3.527-1.302-4.703-2.714a7.294 7.294 0 0 1-1.705-4.981c.124-1.971 1.052-3.818 2.585-5.147 1.534-1.329 3.551-2.034 5.623-1.965 2.072.069 4.033.907 5.465 2.335 1.432 1.428 2.222 3.332 2.201 5.307h-1.463a5.95 5.95 0 0 0-.898-3.361 6.365 6.365 0 0 0-2.657-2.37 6.763 6.763 0 0 0-3.579-.632 6.66 6.66 0 0 0-3.372 1.307 6.184 6.184 0 0 0-2.101 2.832 5.886 5.886 0 0 0-.168 3.464 6.111 6.111 0 0 0 1.818 3.004 6.593 6.593 0 0 0 3.232 1.597l-.278 1.324Z" fill="#263238"/><path d="M296.619 461.941a8.086 8.086 0 0 1-3.961-1.956 7.484 7.484 0 0 1-2.231-3.681 7.23 7.23 0 0 1 .203-4.246 7.59 7.59 0 0 1 2.574-3.472 8.163 8.163 0 0 1 4.132-1.604 8.291 8.291 0 0 1 4.387.772 7.8 7.8 0 0 1 3.259 2.903 7.288 7.288 0 0 1 1.103 4.118h-1.463a5.905 5.905 0 0 0-.342-2.434 6.114 6.114 0 0 0-1.312-2.115 6.477 6.477 0 0 0-2.072-1.46 6.744 6.744 0 0 0-2.507-.575 6.761 6.761 0 0 0-2.543.401 6.537 6.537 0 0 0-2.178 1.314 6.183 6.183 0 0 0-1.468 2.019 5.94 5.94 0 0 0-.526 2.404 5.93 5.93 0 0 0 1.385 4.064 6.482 6.482 0 0 0 3.838 2.209l-.278 1.339Z" fill="#263238"/><path d="M299.869 451.667a8.086 8.086 0 0 1-3.963-1.957 7.5 7.5 0 0 1-2.23-3.683 7.23 7.23 0 0 1 .206-4.248 7.592 7.592 0 0 1 2.578-3.472 8.158 8.158 0 0 1 4.135-1.599 8.285 8.285 0 0 1 4.388.777 7.799 7.799 0 0 1 3.256 2.909 7.296 7.296 0 0 1 1.096 4.122h-1.463a5.939 5.939 0 0 0-.953-3.472 6.381 6.381 0 0 0-2.821-2.378 6.756 6.756 0 0 0-3.733-.476 6.605 6.605 0 0 0-3.379 1.586 6.131 6.131 0 0 0-1.831 2.858 5.874 5.874 0 0 0 .009 3.349 6.123 6.123 0 0 0 1.845 2.85 6.595 6.595 0 0 0 3.138 1.51l-.278 1.324Z" fill="#263238"/><path d="M303.146 441.407a8.086 8.086 0 0 1-3.963-1.957 7.495 7.495 0 0 1-2.23-3.683 7.23 7.23 0 0 1 .207-4.248 7.575 7.575 0 0 1 2.577-3.471 8.166 8.166 0 0 1 4.135-1.6 8.283 8.283 0 0 1 4.388.777 7.8 7.8 0 0 1 3.256 2.909 7.296 7.296 0 0 1 1.096 4.122h-1.463a5.947 5.947 0 0 0-.898-3.361 6.365 6.365 0 0 0-2.657-2.37 6.763 6.763 0 0 0-3.579-.632 6.667 6.667 0 0 0-3.372 1.306 6.192 6.192 0 0 0-2.101 2.833 5.885 5.885 0 0 0-.168 3.464 6.11 6.11 0 0 0 1.819 3.004 6.586 6.586 0 0 0 3.231 1.597l-.278 1.31Z" fill="#263238"/><path d="M306.422 431.147a8.094 8.094 0 0 1-3.847-1.853 7.524 7.524 0 0 1-2.265-3.494 7.227 7.227 0 0 1-.016-4.106 7.512 7.512 0 0 1 2.236-3.511 8.1 8.1 0 0 1 4.145-1.936 8.306 8.306 0 0 1 4.574.586 7.84 7.84 0 0 1 3.461 2.911 7.307 7.307 0 0 1 1.178 4.252h-1.463c.059-1.636-.566-3.227-1.737-4.424-1.172-1.197-2.794-1.902-4.511-1.96-.849-.03-1.696.1-2.493.382a6.548 6.548 0 0 0-2.149 1.263 6.21 6.21 0 0 0-1.478 1.951 5.927 5.927 0 0 0-.58 2.342 5.942 5.942 0 0 0 1.384 4.069 6.496 6.496 0 0 0 3.839 2.218l-.278 1.31Z" fill="#263238"/><path d="M309.699 420.901a8.094 8.094 0 0 1-3.846-1.852 7.518 7.518 0 0 1-2.265-3.494 7.221 7.221 0 0 1-.017-4.107 7.528 7.528 0 0 1 2.236-3.511c1.55-1.362 3.599-2.088 5.706-2.021a8.23 8.23 0 0 1 3.017.671 7.932 7.932 0 0 1 2.515 1.724 7.498 7.498 0 0 1 1.628 2.511c.364.931.531 1.921.492 2.914h-1.463a6.009 6.009 0 0 0-1.737-4.424c-1.171-1.197-2.793-1.902-4.51-1.96a6.679 6.679 0 0 0-4.425 1.51c-1.225 1.014-2.006 2.428-2.19 3.963a5.962 5.962 0 0 0 1.198 4.331c.953 1.25 2.364 2.114 3.954 2.421l-.293 1.324Z" fill="#263238"/><path d="M312.977 410.628c-1.935-.359-3.66-1.389-4.842-2.892a7.316 7.316 0 0 1-1.552-5.239c.182-1.869 1.087-3.607 2.539-4.877a8.169 8.169 0 0 1 5.318-1.992h.292c2.104.077 4.09.944 5.524 2.412 1.434 1.468 2.199 3.418 2.128 5.423h-1.463a5.912 5.912 0 0 0-.342-2.435 6.139 6.139 0 0 0-1.312-2.115 6.477 6.477 0 0 0-2.072-1.46 6.744 6.744 0 0 0-2.507-.575 6.761 6.761 0 0 0-2.543.401 6.544 6.544 0 0 0-2.178 1.314 6.179 6.179 0 0 0-1.468 2.019 5.912 5.912 0 0 0-.526 2.405 5.928 5.928 0 0 0 1.385 4.063 6.488 6.488 0 0 0 3.838 2.21l-.219 1.338Z" fill="#263238"/><path d="M316.254 400.368a8.092 8.092 0 0 1-3.962-1.955 7.497 7.497 0 0 1-2.23-3.682 7.223 7.223 0 0 1 .203-4.246 7.577 7.577 0 0 1 2.574-3.472 8.153 8.153 0 0 1 4.132-1.603 8.281 8.281 0 0 1 4.387.771 7.806 7.806 0 0 1 3.259 2.903 7.29 7.29 0 0 1 1.103 4.119h-1.463a5.95 5.95 0 0 0-.891-3.365 6.365 6.365 0 0 0-2.654-2.376 6.759 6.759 0 0 0-3.58-.637 6.659 6.659 0 0 0-3.375 1.303 6.19 6.19 0 0 0-2.105 2.831 5.9 5.9 0 0 0-.171 3.466 6.117 6.117 0 0 0 1.818 3.007 6.602 6.602 0 0 0 3.233 1.598l-.278 1.338Z" fill="#263238"/><path d="M319.531 390.094a8.094 8.094 0 0 1-3.846-1.852 7.518 7.518 0 0 1-2.265-3.494 7.221 7.221 0 0 1-.017-4.107 7.528 7.528 0 0 1 2.236-3.511 8.104 8.104 0 0 1 4.145-1.936 8.31 8.31 0 0 1 4.575.586 7.843 7.843 0 0 1 3.46 2.911 7.292 7.292 0 0 1 1.178 4.252h-1.463a5.948 5.948 0 0 0-.897-3.361 6.367 6.367 0 0 0-2.658-2.37 6.753 6.753 0 0 0-3.579-.631 6.649 6.649 0 0 0-3.372 1.306 6.184 6.184 0 0 0-2.101 2.832 5.894 5.894 0 0 0-.168 3.464 6.12 6.12 0 0 0 1.819 3.005 6.597 6.597 0 0 0 3.231 1.596l-.278 1.31Z" fill="#263238"/><path d="M322.809 379.835a8.099 8.099 0 0 1-3.847-1.853 7.526 7.526 0 0 1-2.265-3.494 7.23 7.23 0 0 1-.017-4.107 7.522 7.522 0 0 1 2.237-3.511 8.11 8.11 0 0 1 4.144-1.936 8.3 8.3 0 0 1 4.575.587 7.829 7.829 0 0 1 3.46 2.91 7.292 7.292 0 0 1 1.178 4.252h-1.463a5.948 5.948 0 0 0-.897-3.361 6.368 6.368 0 0 0-2.658-2.37 6.753 6.753 0 0 0-3.579-.631 6.658 6.658 0 0 0-3.372 1.306 6.184 6.184 0 0 0-2.101 2.832 5.905 5.905 0 0 0-.168 3.465 6.122 6.122 0 0 0 1.819 3.004 6.596 6.596 0 0 0 3.232 1.596l-.278 1.311ZM290.035 482.46a8.079 8.079 0 0 1-3.942-1.969 7.486 7.486 0 0 1-2.212-3.681 7.215 7.215 0 0 1 .213-4.236 7.584 7.584 0 0 1 2.571-3.463 8.158 8.158 0 0 1 4.123-1.6 8.275 8.275 0 0 1 4.378.763 7.808 7.808 0 0 1 3.261 2.888 7.287 7.287 0 0 1 1.118 4.105h-1.463a5.954 5.954 0 0 0-.965-3.46 6.389 6.389 0 0 0-2.818-2.369 6.771 6.771 0 0 0-3.724-.48 6.614 6.614 0 0 0-3.378 1.57 6.134 6.134 0 0 0-1.828 2.861 5.898 5.898 0 0 0 .009 3.351 6.143 6.143 0 0 0 1.843 2.852 6.602 6.602 0 0 0 3.136 1.516l-.322 1.352Z" fill="#263238"/><path d="M301.083 474.487c1.624-3.945 19.136-62.646 27.139-86.749.962-2.626 2.95-4.798 5.549-6.065a11.86 11.86 0 0 1 8.409-.737l89.963 25.482c2.617.812 4.801 2.561 6.09 4.879a9.68 9.68 0 0 1 .815 7.541l-39.765 131.245c-.771 2.548-2.562 4.706-4.986 6.01a11.091 11.091 0 0 1-7.977.96l-91.675-23.601a10.842 10.842 0 0 1-3.739-1.778 10.283 10.283 0 0 1-2.73-3.014 9.81 9.81 0 0 1-1.298-3.785 9.674 9.674 0 0 1 .335-3.969l13.665-45.89.205-.529Z" fill="#fff"/><path d="M333.196 378.05a7.292 7.292 0 0 0-5.183.609c-1.58.835-2.759 2.221-3.288 3.866-6.686 20.91-28.296 88.253-29.905 92.449l-15.933 49.752a6.332 6.332 0 0 0 .573 5.181 6.719 6.719 0 0 0 1.822 2.014 7.096 7.096 0 0 0 2.507 1.169l98.77 24.423a7.286 7.286 0 0 0 5.206-.658c1.579-.856 2.745-2.266 3.251-3.929l43.028-142.187a6.325 6.325 0 0 0 .227-2.612 6.421 6.421 0 0 0-.852-2.492 6.744 6.744 0 0 0-1.798-1.983 7.088 7.088 0 0 0-2.464-1.165l-95.961-24.437Z" fill="#E0E0E0"/><path d="m333.196 378.05 1.463.321 4.082 1.003 15.64 3.89 57.644 14.595 9.334 2.37 4.828 1.226 2.444.628a8.412 8.412 0 0 1 2.458.906c1.564.901 2.718 2.329 3.233 4 .263.84.352 1.721.263 2.593a13.94 13.94 0 0 1-.629 2.523l-3.014 9.995c-4.096 13.55-8.456 28.033-13.065 43.214-4.608 15.18-9.437 31.239-14.455 47.828a11813.31 11813.31 0 0 1-7.652 25.301 4856.732 4856.732 0 0 1-3.906 12.936l-.497 1.631a7.157 7.157 0 0 1-3.424 4.112 7.754 7.754 0 0 1-5.486.683l-1.741-.432-54.294-13.452-25.809-6.398-12.509-3.109-3.087-.767a12.21 12.21 0 0 1-3.072-1.017 7.2 7.2 0 0 1-2.409-2.108 6.78 6.78 0 0 1-1.205-2.897 6.85 6.85 0 0 1 .22-3.08c.307-.934.614-1.882.907-2.788l1.799-5.576c1.185-3.694 2.356-7.347 3.512-10.929l6.715-20.91 12.158-37.498c7.462-22.904 13.489-41.43 17.674-54.255 1.053-3.206 1.975-6.049 2.794-8.517a12.737 12.737 0 0 1 1.375-3.331 6.723 6.723 0 0 1 2.253-2.064 7.284 7.284 0 0 1 4.068-.947 6.14 6.14 0 0 1 1.463.25s-.468-.111-1.463-.167a7.33 7.33 0 0 0-3.98.99 6.675 6.675 0 0 0-2.165 2.035 12.682 12.682 0 0 0-1.331 3.304l-2.722 8.531a63259.673 63259.673 0 0 0-17.439 54.366c-3.687 11.458-7.74 24.032-12.07 37.512-2.156 6.747-4.38 13.717-6.672 20.91-1.151 3.596-2.316 7.244-3.497 10.943-.6 1.84-1.185 3.708-1.785 5.576-.307.934-.599 1.882-.907 2.788a6.224 6.224 0 0 0-.205 2.788 6.12 6.12 0 0 0 1.093 2.618 6.488 6.488 0 0 0 2.185 1.898 11.69 11.69 0 0 0 2.926.948l3.087.767 12.524 3.094 25.808 6.385 54.294 13.438a13.89 13.89 0 0 0 3.423.627 6.8 6.8 0 0 0 3.238-.811 6.417 6.417 0 0 0 2.395-2.228c.527-.979.921-2.019 1.17-3.094 1.317-4.336 2.619-8.657 3.921-12.937 2.595-8.559 5.146-16.988 7.652-25.287 5.033-16.574 9.876-32.577 14.499-47.813 4.623-15.237 9.012-29.706 13.168-43.214l3.028-9.995c.277-.786.483-1.592.615-2.412a6.26 6.26 0 0 0-.235-2.383c-.464-1.529-1.506-2.84-2.926-3.68a8.127 8.127 0 0 0-2.311-.851l-2.444-.627-4.828-1.227-9.334-2.397-57.571-14.819-15.655-4.056-4.052-1.087c-1.025-.21-1.507-.363-1.507-.363Z" fill="#263238"/><path opacity=".3" d="m340.262 516.083-58.522-4.293c.746 4.182 4.141 7.457 8.047 9.353a44.542 44.542 0 0 0 12.641 3.318l19.883 3.15c2.531.405 5.208.865 7.095 2.523 1.888 1.659 2.736 4.559 4.316 6.719 2.619 3.541 7.316 5.005 11.705 6.232a538.062 538.062 0 0 0 52.392 12.364c4.901.851 9.993 1.603 14.85.474 4.857-1.129 9.451-4.572 10.241-9.27l-82.648-30.57Z" fill="#000"/><path d="M337.307 380.476c.191 0-10.885 34.292-24.754 76.474-13.87 42.182-25.267 76.321-25.472 76.265-.205-.055 10.885-34.306 24.755-76.488 13.869-42.182 25.267-76.335 25.471-76.251Z" fill="#263238"/><path d="m405.696 428.466-56.971-16.213-8.517 27.168 56.971 16.213 8.517-27.168Z" fill="#fff"/><path d="M348.602 476.257s-14.455-18.345-19.678-22.527c-5.223-4.182-26.876-.823-26.876-.823l-9.393 9.424s1.843 7.165 10.622 3.624l2.443-1.756h10.037l6.232 6.97-19.517-.391s-9.612-5.952-11.807-5.952c-2.194 0-7.461 4.015-3.643 11.152 0 0-7.315 2.244-4.784 11.737 0 0-6.13 1.603-.541 12.853l.702 1.282s-6.408 2.9-2.195 9.326c4.214 6.427 14.85 8.364 18.054 8.197 3.205-.167 60.893 7.932 60.893 7.932l15.581-38.614-26.13-12.434Z" fill="#FFBF9D"/><path d="M304.885 485.415a8.685 8.685 0 0 1-3.087-.139c-4.993-.812-9.551-3.21-12.933-6.803a8.384 8.384 0 0 1-1.785-2.411c4.553 5.066 10.879 8.389 17.805 9.353Zm-9.244 12.351a7.363 7.363 0 0 1-2.604-.725c-4.079-1.606-7.62-4.243-10.242-7.625a7.105 7.105 0 0 1-1.346-2.23 55.712 55.712 0 0 0 6.394 6.203 53.569 53.569 0 0 0 7.798 4.377Zm.028 11.194a19.113 19.113 0 0 1-7.637-2.496 18.643 18.643 0 0 1-6.305-4.809c.16-.167 2.809 2.175 6.671 4.182 3.863 2.008 7.33 2.886 7.271 3.123Z" fill="#FF9A6C"/><path d="m493.912 500.54-62.692-9.298-73.694-13.271-17.235 55.202s88.076 24.604 112.202 27.629c25.779 3.234 35.771 0 43.891-16.142 5.238-10.288 2.004-30.933-2.472-44.12Z" fill="#5E18EB"/><path d="M435.493 557.638a1.958 1.958 0 0 1-.468-.084l-1.375-.32-5.311-1.311-19.839-4.99-68.339-17.425-.366-.084.117-.348c3.438-11.027 7.154-22.945 10.987-35.268l6.233-19.934.102-.321.337.07 80.717 15.222 23.847 4.586 6.423 1.255 1.653.349.556.139c-.19.015-.38.015-.57 0l-1.668-.279-6.452-1.143-23.892-4.363-80.76-14.999.424-.251a7738.89 7738.89 0 0 1-6.218 19.934c-3.848 12.337-7.579 24.255-11.017 35.268l-.263-.432 68.266 17.634 19.78 5.185 5.282 1.394 1.361.377.453.139Z" fill="#263238"/></g><defs><clipPath id="a"><path fill="#fff" d="M0 0h611v611H0z"/></clipPath></defs></svg>